<svg height="30" viewBox="0 0 1024 1024" width="30" xmlns="http://www.w3.org/2000/svg">
    <path d="m173.689018 476.141382s-60.611491-70.218473-41.248582-130.513455c0 0 36.175127-114.269091 137.402182-50.4832l-96.162909 180.996655z"
          fill="#5080a9"/>
    <path d="m176.518982 438.0672s-32.730764-39.7312-22.267346-75.049891c0 0 19.539782-63.488 71.214546-27.378036z"
          fill="#fff"/>
    <path d="m143.378618 305.179927c30.096291-40.792436 74.025891-53.192145 130.131782-19.725963l2.913745 1.768727-9.82109 15.825454c-48.705164-30.208-83.065018-20.945455-108.24611 13.181673-5.2224 7.074909-9.579055 14.717673-13.069963 22.351127l-1.414982 3.202328-1.1264 2.746182-.856436 2.24349-.577164 1.703564a71.922036 71.922036 0 0 0 -3.351273 20.107636c-.605091 21.894982 7.419345 45.986909 21.2992 70.190546 4.747636 8.285091 9.8304 15.965091 14.913164 22.844509l2.56 3.3792 1.191564 1.536 2.85789 3.518836-14.084654 12.166982-.633018-.744727-2.4576-3.016146-2.048-2.643781-2.3552-3.127855a254.882909 254.882909 0 0 1 -16.104728-24.650473c-15.415855-26.912582-24.4736-54.057891-23.738181-79.965091.232727-8.750545 1.619782-17.2032 4.207709-25.264872l.744727-2.187637 1.042618-2.7648 1.349818-3.2768 1.647709-3.742254a144.477091 144.477091 0 0 1 15.024873-25.655855z"
          fill="#030000"/>
    <path d="m862.459345 459.776s37.701818-52.875636 20.666182-107.706182c0 0-31.809164-98.583273-109.195636-42.514618z"
          fill="#5080a9"/>
    <path d="m857.060073 437.741382s18.078255-43.613091 8.061672-80.802909c0 0-21.839127-55.733527-73.541818-21.652946z"
          fill="#fff"/>
    <path d="m757.136291 301.8752c46.880582-32.134982 84.563782-21.550545 110.331345 14.9504 4.998982 7.074909 9.122909 14.605964 12.474182 22.127709l1.563927 3.658473 1.23811 3.146473.9216 2.569309.344436 1.061236c9.029818 29.910109 3.295418 60.918691-11.533964 90.540218-3.416436 6.823564-7.074909 13.032727-10.742691 18.543709l-.930909 1.377746-1.675636 2.401745-1.396364 1.917673-1.098472 1.414982-14.531491-11.627055 1.340509-1.778036 2.010763-2.857891.791273-1.182255c3.258182-4.887273 6.534982-10.4448 9.588364-16.542254 12.893091-25.767564 17.780364-52.224 10.379636-76.734837l-.242036-.744727-.707491-1.973527a88.212945 88.212945 0 0 0 -.465455-1.210182l-1.172945-2.820654a111.578764 111.578764 0 0 0 -11.3664-20.554473c-19.884218-28.169309-45.754182-35.895855-82.292364-11.869091l-2.299345 1.536-10.519273-15.36z"
          fill="#030000"/>
    <path d="m508.025018 166.763055c-30.263855 34.536727-60.779055 60.192582-89.981673 78.298763l-3.751563 2.290037c-3.723636 2.234182-7.298327 4.263564-10.742691 6.116072l-3.267491 1.722182.9216-1.461527a92.392727 92.392727 0 0 1 5.101382-6.916655l3.025454-3.602618 3.351273-3.872582c3.025455-3.621236 3.881891-4.905891 3.956364-8.564363.111709-5.641309-4.077382-9.355636-8.797091-9.867637-1.684945-.186182-3.137164 0-4.868655.418909l-3.537454.912291c-23.458909 6.507055-44.143709 20.573091-62.128873 39.982546l-1.908364 2.094545-.046545-.735418c-.7168-5.827491-7.112145-10.277236-13.339927-7.261091-57.008873 27.573527-102.716509 81.789673-138.621673 154.661236-18.506473 37.562182-33.233455 77.730909-44.590546 117.890328a726.462836 726.462836 0 0 0 -8.685381 33.726836l-2.187637 9.8304-.940218 4.468364-.279273.037236-1.284654.018618c-3.556073-.065164-7.726545-1.154327-12.008727-2.960291-.912291-.390982-1.768727-.781964-2.532073-1.154327l-2.020073-1.024-1.405673-.828509a9.309091 9.309091 0 0 0 -14.280145 7.4752l-.083782 3.006836c-.167564 14.866618 3.248873 26.921891 9.430109 36.268219l.344437.512-.390982-.018619c-5.492364.027927-10.454109 5.073455-9.085673 11.329164 2.522764 11.589818 7.400727 19.7632 14.242909 24.585309l1.675636 1.089164c.558545.335127 1.117091.651636 1.684946.930909l.986764.465454.372363-1.275345a73.858327 73.858327 0 0 0 -2.8672 14.7456c-1.042618 132.608 129.396364 191.013236 344.3712 196.012218 77.498182 1.805964 160.442182-3.584 242.688-13.665745 5.548218-.688873 11.003345-1.377745 16.365382-2.075928l15.750982-2.122472 15.117963-2.159709c4.933818-.726109 9.746618-1.452218 14.44771-2.178328l10.491345-1.666327 12.753455-2.122473 9.644218-1.712872c58.656582-16.011636 93.677382-49.030982 109.2608-93.789091 10.333091-29.668073 11.142982-60.946618 6.395345-89.879273l-.679563-3.909818-.167564-.847128 1.442909-.679563a34.490182 34.490182 0 0 0 12.194909-10.398255c4.217018-5.753018 5.995055-11.487418 6.432582-15.806836l.055854-1.079855a9.327709 9.327709 0 0 0 -10.733381-9.067054l-.847128.186182 1.275346-1.293964c11.208145-11.738764 14.056727-23.589236 10.630982-34.034036a18.497164 18.497164 0 0 0 -1.675637-3.7888c-4.542836-7.465891-15.937164-5.129309-17.175272 3.509527-.186182 1.321891-.279273 1.6384-1.768728 1.582545l-1.647709-.121018-1.489454-.195491a29.2864 29.2864 0 0 1 -3.230255-.754036l-.996073-.3072-.633018-6.795636c-8.434036-83.595636-37.422545-154.772945-80.616727-213.92291-18.199273-24.939055-37.711127-46.005527-57.250909-63.329745a298.756655 298.756655 0 0 0 -19.037091-15.592727l-3.974982-2.904437-2.857891-1.973527a55.323927 55.323927 0 0 0 -.688873-.456145l-.902981-.512a9.327709 9.327709 0 0 0 -12.995491 5.436509l-.223418.800582-1.275346-1.861819c-8.164073-11.394327-18.469236-20.852364-30.468654-28.495127a133.213091 133.213091 0 0 0 -34.788073-15.546182 124.509091 124.509091 0 0 0 -12.092509-2.885818l-2.923055-.465454a49.701236 49.701236 0 0 0 -1.219491-.158255 9.309091 9.309091 0 0 0 -9.197382 13.749527l1.182255 2.113164 2.085236 3.574691c2.141091 3.611927 4.486982 7.307636 6.981819 11.077818l2.504145 3.714327-5.092073-2.829963a410.875345 410.875345 0 0 1 -37.096727-23.738182 428.357818 428.357818 0 0 1 -56.1152-48.034909 347.694545 347.694545 0 0 1 -12.418327-13.330618l-3.090618-3.556073-2.3552-2.811346-1.4336-1.796654a9.309091 9.309091 0 0 0 -14.373237-.437527z"
          fill="#030000"/>
    <path d="m513.4336 188.602182 1.368436-1.508073 2.857891 3.220946c3.239564 3.593309 6.814255 7.400727 10.733382 11.403636a446.864291 446.864291 0 0 0 58.5728 50.138764c24.948364 17.901382 51.758545 33.252073 80.300218 45.25149 9.048436 3.816727 17.063564-7.168 10.677528-14.63389l-1.880437-2.2528-2.438982-2.97891-2.681018-3.351272-3.965673-5.101382c-2.634473-3.444364-5.250327-6.981818-7.801018-10.5472l-3.593309-5.147927 3.407127 1.303272c6.330182 2.522764 12.539345 5.650618 18.469237 9.4208 18.515782 11.794618 31.9488 28.476509 38.455854 51.125528 2.485527 8.620218 14.298764 8.955345 17.529019 1.061236l.428218-1.266036.260654-1.024.549237-2.373819c.707491-3.258182 1.3312-6.888727 1.824581-10.863709l.21411-2.010763 1.480145 1.191563c2.978909 2.438982 6.097455 5.092073 9.337018 7.959273 18.580945 16.477091 37.189818 36.566109 54.569891 60.369455 43.380364 59.419927 71.791709 131.509527 78.196364 216.966981a9.309091 9.309091 0 0 0 5.166545 7.652073l.912291.437527 2.345891.996073c.884364.353745 1.861818.7168 2.941673 1.079855l2.699636.847127c2.699636.772655 5.389964 1.321891 8.052364 1.563927l1.396363.093091-.6144.688873c-3.006836 3.202327-7.316945 6.739782-13.274763 10.630982a9.309091 9.309091 0 0 0 -1.210182 14.652509c1.359127 1.247418 3.500218 2.885818 6.311564 4.5056l1.582545.865745c1.061236.549236 2.141091 1.042618 3.230255 1.489455l1.62909.605091-.902981.670254c-1.582545 1.061236-3.462982 1.917673-5.687855 2.532073l-1.7408.418909a9.309091 9.309091 0 0 0 -7.316945 10.575127l.912291 3.881891c.558545 2.485527 1.1264 5.371345 1.657018 8.610909 4.291491 26.130618 3.556073 54.439564-5.604073 80.747055-13.581964 38.995782-43.873745 67.556073-95.8464 81.780364l-14.624582 2.504145-10.072436 1.6384-6.888727 1.079855-14.289455 2.159709-14.978327 2.141091-15.602037 2.103854c-5.306182.688873-10.705455 1.377745-16.207127 2.048-81.417309 9.988655-163.504873 15.322764-239.988364 13.544727l-6.144-.158254-12.148363-.4096c-38.130036-1.480145-73.169455-4.756945-104.866909-9.9328l-9.895564-1.694255c-123.941236-22.304582-193.852509-75.096436-193.163636-164.361309l.400291-2.625163c.4096-2.606545.968145-5.203782 1.675636-7.540364.651636-2.141091 1.396364-3.909818 2.122473-5.157236l1.117091-1.684946c2.9696-4.943127.595782-10.873018-3.947055-13.125818l-.605091-.260655 1.3312-.744727a23.179636 23.179636 0 0 0 7.195927-7.074909 9.309091 9.309091 0 0 0 -4.468363-13.870545l-1.061237-.335128c-1.954909-.474764-5.632-2.234182-9.41149-5.8368l-1.23811-1.238109c-4.002909-4.282182-6.925964-9.895564-8.3968-17.184582l-.148945-.791272 1.629091.484072c3.602618.968145 7.214545 1.545309 10.798545 1.610473 5.026909.093091 9.774545-.8192 14.103273-2.960291a9.309091 9.309091 0 0 0 5.036218-6.721163l.688873-3.611928 1.712873-8.192.521309-2.327272c2.532073-11.403636 5.715782-24.129164 9.588363-37.822837 11.0592-39.144727 25.413818-78.280145 43.371055-114.725236l2.401745-4.822109c28.206545-55.854545 62.324364-99.486255 102.669964-126.864291l1.293964-.856437-.893673 2.681019c-3.956364 12.381091-5.12 22.062545-1.824582 29.509818 3.258182 7.354182 13.684364 7.400727 16.9984.074473l1.163637-2.411055.474763-.930909a190.007855 190.007855 0 0 1 26.158546-38.046255l2.606545-2.848581c8.704-9.364945 18.031709-17.249745 27.964509-23.3472l2.848582-1.694255-.8192 1.545309a62.836364 62.836364 0 0 0 -6.534982 20.154182 9.309091 9.309091 0 0 0 12.027346 10.165527l2.792727-.977454 2.466909-.958837 4.580073-1.926982 1.750109-.781963c8.852945-3.9936 18.804364-9.262545 29.640145-15.983709 27.9552-17.333527 56.878545-41.099636 85.578473-72.275782z"
          fill="#fff"/>
    <path d="m490.374982 673.540655s.242036 8.0896 10.612363 9.849018h47.969746s6.190545-1.694255 3.248873-13.125818c-2.932364-11.450182-21.829818-20.042473-29.2864-13.246837-3.6864-2.420364-22.1184-4.887273-32.544582 16.523637z"/>
    <path d="m229.869382 695.454255 7.763782-1.731491c4.701091-1.908364 11.431564 7.214545 12.827927 17.622109l9.700073 33.670982c-4.803491 2.876509-6.683927 5.585455-9.355637 6.367418l-2.420363.698182c3.211636.781964-5.706473-.493382-6.935273-3.118546l-9.216-30.785164c-9.653527-9.513891-8.9088-17.966545-2.364509-22.72349zm-11.133673 20.0704 2.7648-.800582c3.044073-.893673 6.181236 3.351273 6.832873 8.192l2.103854 15.704436a2.755491 2.755491 0 0 1 -1.936291 2.9696l7.07491.325818c-9.439418.363055-10.863709-.232727-11.450182-1.452218l-4.272873-14.354618c-4.496291-4.440436-4.151855-2.913745-1.117091-10.593746zm578.56-38.828219-8.443345-1.768727c-6.376727-1.926982-10.919564 7.326255-14.289455 17.873455l-4.393891 34.164363a5.985745 5.985745 0 0 0 4.049455 6.460509l10.230691.7168c-5.287564 6.656-2.308655-.502691-1.117091-3.165091l14.038109-31.232c4.338036-9.653527 3.621236-19.269818-.074473-23.049309z"
          fill="#ee948d"/>
    <path d="m805.450473 697.977018-2.681018-1.7408c-2.978909-.902982-6.032291 3.407127-6.66531 8.331637l-2.048 15.918545c-.186182 1.359127 4.449745 2.643782 1.889746 3.006836l1.098473.335128a2.643782 2.643782 0 0 0 3.146472-1.489455l6.544291-14.5408c2.020073-4.496291 1.675636-1.629091-1.284654-9.821091z"
          fill="#ee948d"/>
    <path d="m269.405091 432.062836c-17.7152.977455-25.711709 13.991564-25.972364 32.079128a86.825891 86.825891 0 0 0 1.750109 17.7152c.605091 3.109236 1.275345 5.864727 1.899055 8.098909l.539927 1.861818a9.309091 9.309091 0 0 0 7.028364 6.395345l168.466618 34.750837a9.309091 9.309091 0 0 0 6.088145-.809891c2.048-1.042618 4.868655-2.718255 7.7824-4.933818 6.144-4.654545 10.0352-9.597673 10.0352-16.272291 0-6.423273-4.012218-11.422255-10.565818-14.652509l-8.424727-4.096-9.755927-4.663855-10.807855-5.064145-15.546182-7.140073-8.070981-3.630546-8.154764-3.630545-5.436509-2.401745-10.770618-4.663855-7.726546-3.286109-7.447273-3.099927-7.15869-2.923055-10.174837-4.021527-3.248873-1.247418-6.265018-2.3552-5.957818-2.141091-5.650618-1.954909-5.334109-1.750109-5.026909-1.536-4.7104-1.3312c-9.094982-2.429673-16.262982-3.574691-21.373673-3.295419z"
          fill="#030000"/>
    <path d="m270.429091 450.653091c2.048-.111709 4.905891.214109 8.4992.958836l3.248873.726109 1.759418.437528 3.770182 1.024 4.096 1.219491 4.421818 1.396363 4.729018 1.582546 5.026909 1.759418 5.3248 1.926982 5.594764 2.094545 5.864727 2.262109 9.271855 3.6864 9.811781 4.030837 10.305164 4.365963 10.6496 4.608 5.380655 2.364509 12.064581 5.399273 15.602037 7.121455 14.429091 6.730472 12.567272 6.013673 3.369891 1.647709-1.610472 1.210182-1.210182.791273-159.371637-32.8704-.549236-2.56a69.147927 69.147927 0 0 1 -1.4336-14.168437c.139636-9.513891 2.550691-13.433018 8.3968-13.758836z"
          fill="#5080a9"/>
    <path d="m768.930909 437.9648c-5.790255-.1024-13.339927 1.275345-22.965527 4.123927l-4.580073 1.424291-4.887273 1.619782-5.194472 1.833891-5.510982 2.038691-5.827491 2.243491-6.144 2.448291-6.488436 2.653091-6.823564 2.85789-10.891636 4.673164-34.601891 15.387927-27.350109 12.204219-6.386037 2.746181-5.501673 2.280728-4.570763 1.805963-2.504146.930909-2.048.726109-1.573236.493382-1.089164.260655-.363054.046545a9.309091 9.309091 0 0 0 -3.630546.968146c-9.346327 4.673164-12.539345 13.312-9.337018 22.155636 1.489455 4.096 4.151855 7.922036 7.670691 11.692218 2.811345 3.025455 5.585455 5.408582 7.568291 6.907346a9.309091 9.309091 0 0 0 7.773091 1.629091l170.635636-40.773819a9.309091 9.309091 0 0 0 6.572218-5.855418l.707491-2.029382.390982-1.2288.847127-2.85789.884364-3.323346a90.642618 90.642618 0 0 0 2.718255-16.672582l.083781-1.908363c.493382-17.659345-6.851491-30.468655-24.129163-31.353019l-1.312582-.027927-.837818-.074473z"
          fill="#030000"/>
    <path d="m767.683491 456.564364h.707491l1.489454.093091c6.5536.037236 8.545745 3.621236 7.959273 13.628509-.232727 4.086691-1.024 8.610909-2.178327 13.218909l-.791273 2.941672-160.916945 38.465164a45.167709 45.167709 0 0 1 -2.001455-2.020073l-.930909-1.024a22.546618 22.546618 0 0 1 -2.094545-2.820654l-.2048-.353746 1.992145-.530618 2.634473-.828509 1.442909-.493382 3.183709-1.172945 3.593309-1.396364 4.030836-1.657018 4.496291-1.908364 11.962182-5.241018 40.829673-18.292363 13.9264-6.116073 10.174836-4.356655 6.423273-2.681018 9.039127-3.6864 8.350255-3.258182 5.166545-1.936291 4.850037-1.7408c.781964-.279273 1.554618-.549236 2.308654-.800581l4.365964-1.461528 4.030836-1.256727 1.889746-.558545 3.537454-.958837 3.202327-.754036c3.025455-.651636 5.538909-1.014691 7.531055-1.042618z"
          fill="#5080a9"/>
    <path d="m389.362036 558.806109c-31.799855 0-56.655127 28.336873-56.655127 63.757964 0 35.607273 24.994909 65.024 56.655127 65.024s56.664436-29.416727 56.664437-65.024c0-35.421091-24.873891-63.767273-56.664437-63.767273z"/>
    <path d="m389.362036 577.424291c20.926836 0 38.046255 19.493236 38.046255 45.139782 0 25.935127-17.408 46.405818-38.046255 46.405818-20.647564 0-38.036945-20.48-38.036945-46.405818 0-25.637236 17.1008-45.149091 38.036945-45.149091z"/>
    <path d="m389.362036 674.704291c-18.041018 0-32.674909-18.059636-32.674909-33.512727s14.633891-27.983127 32.674909-27.983128c18.050327 0 33.512727 12.530036 33.512728 27.983128 0 15.453091-15.4624 33.512727-33.512728 33.512727z"/>
    <path d="m640.707491 558.806109c-31.799855 0-56.655127 28.336873-56.655127 63.757964 0 35.607273 24.994909 65.024 56.655127 65.024s56.664436-29.416727 56.664436-65.024c0-35.421091-24.873891-63.767273-56.664436-63.767273z"/>
    <path d="m640.707491 577.424291c20.926836 0 38.046255 19.493236 38.046254 45.139782 0 25.935127-17.408 46.405818-38.046254 46.405818-20.647564 0-38.036945-20.48-38.036946-46.405818 0-25.637236 17.1008-45.149091 38.036946-45.149091z"/>
    <path d="m640.707491 674.704291c-18.041018 0-32.674909-18.059636-32.674909-33.512727s14.633891-27.983127 32.674909-27.983128c18.050327 0 33.512727 12.530036 33.512727 27.983128 0 15.453091-15.4624 33.512727-33.512727 33.512727z"/>
    <path d="m326.581527 729.022836 48.854109 8.173382a9.309091 9.309091 0 0 1 -1.992145 18.478546l-1.079855-.111709-48.854109-8.173382a9.309091 9.309091 0 0 1 1.982837-18.478546zm40.448 26.987055a9.309091 9.309091 0 0 1 2.923055 18.348218l-1.070546.176873-54.281309 5.399273a9.309091 9.309091 0 0 1 -2.923054-18.348219l1.070545-.167563zm336.300218-69.706473a9.309091 9.309091 0 0 1 3.165091 18.310982l-1.070545.186182-47.8208 5.417891a9.309091 9.309091 0 0 1 -3.165091-18.310982l1.070545-.186182z"
          fill="#030000"/>
    <path d="m654.056727 716.874473a9.309091 9.309091 0 0 1 9.849018-7.4752l1.079855.139636 55.575273 10.947491a9.309091 9.309091 0 0 1 -2.513455 18.422691l-1.079854-.148946-55.575273-10.94749a9.309091 9.309091 0 0 1 -7.344873-10.938182z"
          fill="#030000"/>
    <path d="m589.433018 696.906473a9.309091 9.309091 0 0 1 15.220364 10.733382c-10.8544 15.397236-22.8352 27.582836-35.774837 36.75229-31.250618 22.155636-64.512 25.2928-94.673454 17.370764a107.054545 107.054545 0 0 1 -5.5296-1.610473l-2.978909-1.024-2.392437-.930909a37.282909 37.282909 0 0 1 -.958836-.4096 9.309091 9.309091 0 0 1 7.661382-16.970472l1.396364.577163 1.964218.707491 2.522763.800582c.930909.279273 1.9456.558545 3.044073.847127 25.274182 6.646691 52.968727 4.030836 79.173818-14.5408 11.170909-7.931345 21.662255-18.590255 31.325091-32.302545z"/>
    <path d="m514.466909 533.969455s-9.569745 3.146473-51.181382-7.400728c-33.987491-10.556509-39.535709-22.360436-80.430545-22.248727-40.885527.130327-205.675055-6.218473-214.704873 0-9.029818 6.237091-11.142982 14.336 0 50.762473 44.311273 117.694836 80.858764 146.804364 192.772655 141.954327 111.913891-.484073 146.236509-118.597818 146.236509-118.597818h7.307636v-44.460218z"/>
    <path d="m328.862255 520.164073c73.700073 3.407127 141.963636 21.485382 141.740218 58.274909-.242036 36.808145-43.817891 89.181091-85.894982 90.670545-42.077091 1.489455-63.2832 1.461527-83.781818 0-20.489309-1.452218-49.542982-24.743564-70.292946-68.421818-21.010618-44.2368-32.954182-86.109091 98.229528-80.523636z"
          fill="#373336"/>
    <path d="m515.025455 533.969455s17.193891 3.146473 51.181381-7.400728c33.978182-10.556509 39.545018-22.360436 80.430546-22.248727 40.885527.130327 205.684364-6.218473 214.714182 0 9.029818 6.237091 11.142982 14.336 0 50.762473-44.311273 117.694836-80.868073 146.804364-192.791273 141.954327-111.904582-.484073-146.217891-118.597818-146.217891-118.597818h-7.316945v-44.460218z"/>
    <path d="m700.639418 520.164073c-72.117527 3.407127-141.982255 21.485382-141.749527 58.274909.242036 36.808145 43.817891 89.181091 85.894982 90.670545 42.077091 1.489455 63.2832 1.461527 83.781818 0 20.498618-1.452218 49.542982-24.743564 70.283636-68.421818 21.019927-44.2368 35.309382-86.109091-98.210909-80.523636z"
          fill="#373336"/>
    <path d="m823.696291 546.527418-33.615127 12.660364-14.401164 50.734545-14.410473-50.734545-33.605818-12.660364 33.605818-12.669673 14.410473-41.658181 14.401164 41.658181z"
          fill="#fff"/>
    <path d="m515.4816 158.254545-7.447273 8.50851c-30.273164 34.536727-60.788364 60.192582-89.990982 78.298763l-3.751563 2.290037c-3.723636 2.234182-7.298327 4.263564-10.742691 6.116072l-3.267491 1.722182.9216-1.461527a92.392727 92.392727 0 0 1 5.101382-6.916655l3.025454-3.602618 3.351273-3.872582c3.025455-3.621236 3.881891-4.905891 3.956364-8.564363.111709-5.641309-4.077382-9.355636-8.797091-9.867637-1.684945-.186182-3.137164 0-4.868655.418909l-3.509527.902982c-22.099782 6.116073-41.667491 18.897455-58.786909 36.435782l-2.141091 2.224873 9.029818-17.314909-29.7984 14.857309c-52.922182 27.154618-95.902255 77.433018-130.280727 144.402618l-5.473746 10.668218 11.692219 2.6624a1475.202327 1475.202327 0 0 0 170.989381 28.225164l1.44291.083782c.949527 0 1.861818-.074473 2.7648-.251346l.828509-.2048.316509.400291c2.345891 2.699636 5.855418 4.384582 10.128291 4.682473l4.961745.335127 10.5472.623709 5.557527.297891 11.589819.539927 12.101818.484073 6.190545.223418 18.990546.558546 12.8.279272 12.753454.223419 6.330182.083781 12.427636.093091 12.036655.037237 8.229236-.037237 7.074909-.093091 9.458037-.214109 7.410036-.242036 10.714764-.465455 15.453091-.781963 49.2544-2.792728 12.306618-.539927 8.378182-.279273 1.508072-.09309c6.441891-.577164 11.515345-3.574691 14.875928-8.471273l.605091-.949527c.279273 1.563927.642327 2.681018 1.3312 4.049454a11.264 11.264 0 0 0 10.938181 6.171927c65.256727-3.6864 126.882909-9.467345 182.942255-17.147345l12.846545-1.768727-5.780945-11.608437a421.953164 421.953164 0 0 0 -36.864-60.602182c-18.199273-24.939055-37.711127-46.005527-57.250909-63.329745a298.756655 298.756655 0 0 0 -19.037091-15.592727l-3.974982-2.904437-2.857891-1.973527-15.173818-9.802473.111709 14.699055-1.024-1.489455c-8.164073-11.394327-18.469236-20.852364-30.468654-28.495127a133.213091 133.213091 0 0 0 -34.788073-15.546182 124.509091 124.509091 0 0 0 -12.092509-2.885818l-2.923055-.465454-19.130182-2.178328 9.895564 17.873455 2.085236 3.584c2.141091 3.611927 4.486982 7.307636 6.981819 11.077818l2.504145 3.714327-5.092073-2.829963a410.875345 410.875345 0 0 1 -37.096727-23.738182 428.357818 428.357818 0 0 1 -56.1152-48.034909 347.694545 347.694545 0 0 1 -12.418327-13.330618l-3.090618-3.556073-2.3552-2.811346-1.4336-1.796654z"
          fill="#030000"/>
    <path d="m513.4336 188.602182 1.368436-1.508073 2.857891 3.220946c3.239564 3.593309 6.814255 7.400727 10.733382 11.403636a446.864291 446.864291 0 0 0 58.5728 50.138764c24.948364 17.901382 51.758545 33.252073 80.300218 45.25149l36.277528 15.26691-26.847419-31.390255-3.072-3.742255-2.681018-3.351272-3.965673-5.101382c-2.634473-3.444364-5.250327-6.981818-7.801018-10.5472l-3.593309-5.147927 3.407127 1.303272c6.330182 2.522764 12.539345 5.650618 18.469237 9.4208 18.515782 11.794618 31.9488 28.476509 38.455854 51.125528l9.169455 31.892945 8.778473-32.069818.269963-1.051927.549237-2.373819c.707491-3.258182 1.3312-6.888727 1.824581-10.863709l.21411-2.010763 1.480145 1.191563c2.978909 2.438982 6.097455 5.092073 9.337018 7.959273 18.580945 16.477091 37.189818 36.566109 54.569891 60.369455l4.3008 6.013672a402.934691 402.934691 0 0 1 23.812655 38.2976l1.061236 1.992146-7.959273 1.024c-46.238255 5.799564-96.013964 10.333091-148.2752 13.526109l-5.687854.335127a33.466182 33.466182 0 0 0 -9.439418-18.562327 47.420509 47.420509 0 0 0 -9.876946-7.5776l-18.357527-10.798546 4.533527 20.805819c2.681018 12.278691.875055 15.685818-2.038691 15.7696l-6.832873.223418-14.829381.651636-58.107346 3.258182-16.356073.735418-9.653527.3072-6.935273.148946c-3.072.046545-6.125382.083782-9.271854.093091l-12.790691.018618-14.484945-.093091-14.894546-.2048-15.043491-.297891-7.521745-.186182-14.857309-.446836-14.4384-.530618c-9.439418-.390982-18.432-.837818-26.689164-1.321891l-5.054836-.316509 1.061236-4.012219c.186182-.8192.363055-1.563927.512-2.345891a29.975273 29.975273 0 0 0 .595782-8.946036l-1.340509-13.321309-12.018037 5.892655c-5.976436 2.923055-9.495273 7.568291-11.654981 13.656436l-.456146 1.377745-.660945 2.262109-8.247855-.91229a1465.837382 1465.837382 0 0 1 -133.166545-21.420219l-11.357091-2.429672 2.262109-4.123928c25.944436-46.6944 56.441018-83.577018 91.703854-107.976145l2.783419-1.880436-.465455 1.396363c-3.881891 11.608436-5.287564 21.029236-3.109236 28.392727l.642327 1.815273 7.726545 21.224727 9.588364-20.759272.530618-1.117091 1.312582-2.606546.791273-1.489454 1.815272-3.304727 2.15971-3.705019a193.051927 193.051927 0 0 1 17.09149-24.296727l2.476219-2.923054c9.960727-11.533964 20.824436-21.113018 32.544581-28.234473l2.420364-1.424291-.837818 1.554618a62.836364 62.836364 0 0 0 -6.516364 20.154182l-2.048 14.615273 14.875928-4.719709 1.982836-.707491 2.466909-.958837 4.580073-1.926982 1.750109-.781963c8.852945-3.9936 18.804364-9.262545 29.640145-15.983709 27.9552-17.333527 56.878545-41.099636
85.578473-72.275782z" fill="#5080a9"/>
</svg>