<svg height="35" viewBox="0 0 1024 1024" width="35" xmlns="http://www.w3.org/2000/svg"><path d="m543.4 370.3c-.3.3-.7.5-1.2.5-.4 0-.7-.4-1.2-.5-144.4-36.6-288-77.1-288 38.5v142.4c0 118.5 201 214.9 288.5 215.5 86.6.6 289.9-93 289.9-206.6v-151.2c.1-118.5-151.5-186.7-288-38.6z" fill="#bc3506"/><path d="m489.9 370.3c-.3.3-.6.5-1 .5s-.7-.2-1-.5c-113.1-148.7-237.8-77.1-237.8 38.5v142.4c0 118.5 166 214.9 238.2 215.5 71.5.6 239.4-93 239.4-206.6v-151.2c.1-118.5-125.1-186.7-237.8-38.6z" fill="#f74e00"/><path d="m308.2 538.2c-7.9 0-14.5-6.1-15-14.1-.3-4.7-.6-9.2-.8-13.3-2.2-34.1-3.3-51.2 1.1-82.9 1.3-9.4 1.6-10.9 3.1-15.6.5-1.5 1.1-3.3 2-6.5 2.3-8 10.6-12.6 18.5-10.3 8 2.3 12.6 10.6 10.3 18.5-1.1 3.7-1.8 5.9-2.3 7.5-.9 2.7-.9 2.9-2 10.4-3.9 28.8-3 43.9-.9 77 .3 4.2.6 8.6.8 13.4.5 8.3-5.8 15.4-14.1 15.9zm14.9-157.3c-7.7 0-14.3-6-14.9-13.8-.1-1.4-.2-2.3-.2-2.9-.2-3.7.7-6.9 2.3-9.5 2.4-4.6 7.2-7.9 12.8-8 8.2-.3 15.2 6.3 15.4 14.6v3.3c-.1 1.8-.4 3.5-.9 4.9-1.5 6.1-6.8 10.8-13.4 11.3-.3.1-.7.1-1.1.1z" fill="#fff"/><path d="m488.3 385.7c-4.6 0-9-1.9-12.1-5.3-56.9-60.7-122.6-88.5-180.2-76.5-38.3 8-68.6 33.6-81 68.4-2.8 7.8-11.4 11.9-19.2 9.1s-11.9-11.4-9.1-19.2c15.9-44.8 54.5-77.6 103.2-87.7 31.8-6.7 66.7-3.3 100.8 9.7 34 13 66.8 35 97.7 65.6 94.6-93.9 194.8-94.6 253.7-52.4 6.7 4.8 8.3 14.2 3.4 20.9-4.8 6.7-14.2 8.3-20.9 3.4-50.3-36.1-139.1-32-224.1 58.5-3.3 3.6-7.7 5.5-12.2 5.5zm294.6 98.1c-8.3 0-15-6.7-15-15v-60.1c0-16.7-3.4-32.4-10.1-46.8-3.5-7.5-.3-16.4 7.2-19.9s16.4-.3 19.9 7.2c8.6 18.4 13 38.4 13 59.5v60.1c0 8.3-6.7 15-15 15zm0 49c-8.3 0-15-6.7-15-15v-10.9c0-8.3 6.7-15 15-15s15 6.7 15 15v10.9c0 8.3-6.7 15-15 15zm-294.5 248.8h-1c-40.7-.3-100.2-18.3-155.3-47.1-12.3-6.4-24.3-13.3-35.5-20.5-7.8-5-15.4-10.1-22.5-15.3-12.4-9.1-23.9-18.6-34.1-28.2-40.1-37.9-61.2-79.2-61.2-119.5v-53.2c0-8.3 6.7-15 15-15s15 6.7 15 15v53.2c0 40.2 28.2 75.3 51.9 97.7 9.3 8.8 19.8 17.4 31.2 25.8 6.6 4.8 13.7 9.6 21 14.3 10.6 6.7 21.8 13.2 33.3 19.2 50.4 26.3 106 43.4 141.7 43.7h.8c40.3 0 104.3-20.5 159.5-51.1 64.7-35.8 107.6-79.9 117.5-121 1.5-6.1 2.4-17.5 2.4-24.6 0-8.3 6.7-15 15-15s15 6.7 15 15c0 7.4-.9 21.9-3.2 31.6-16.4 67.3-89.8 116.7-132.1 140.2-59.6 32.8-129.4 54.8-174.4 54.8zm-294.7-308.6c-8.3 0-15-6.7-15-15v-45.3c0-8.3 6.7-15 15-15s15 6.7 15 15v45.3c0 8.2-6.7 15-15 15zm793.8 409.7h-20.4c-8.3 0-15-6.7-15-15s6.7-15 15-15h20.4c8.3 0 15 6.7 15 15s-6.7 15-15 15zm-70 0h-433.2c-8.3 0-15-6.7-15-15s6.7-15 15-15h433.2c8.3 0 15 6.7 15 15s-6.7 15-15 15z" fill="#1a1a1a"/><path d="m515.9 882.7h-262.4c-8.3 0-15-6.7-15-15s6.7-15 15-15h262.4c8.3 0 15 6.7 15 15s-6.7 15-15 15zm-361.4 0h-117.7c-8.3 0-15-6.7-15-15s6.7-15 15-15h117.7c8.3 0 15 6.7 15 15s-6.7 15-15 15z" fill="#1a1a1a"/><g fill="#f74e00"><path d="m54.3 312.4c-.8 0-1.5-.7-1.5-1.5v-38.7c0-.8.7-1.5 1.5-1.5s1.5.7 1.5 1.5v38.7c0 .9-.7 1.5-1.5 1.5z"/><path d="m42.2 307c-.4 0-.7-.1-1-.4-.6-.6-.7-1.5-.1-2.1l25.1-27.4c.6-.6 1.5-.7 2.1-.1s.7 1.5.1 2.1l-25.1 27.4c-.3.4-.7.5-1.1.5z"/><path d="m67.4 306.8c-.4 0-.8-.2-1.1-.5l-25.1-27.4c-.6-.6-.5-1.6.1-2.1.6-.6 1.6-.5 2.1.1l25.1 27.4c.6.6.5 1.6-.1 2.1-.3.2-.6.4-1 .4z"/><path d="m72 293.1h-35.5c-.8 0-1.5-.7-1.5-1.5s.7-1.5 1.5-1.5h35.5c.8 0 1.5.7 1.5 1.5s-.6 1.5-1.5 1.5z"/></g><path d="m120.5 474.2h-7.4c-1.4 0-2.5-1.1-2.5-2.5s1.1-2.5 2.5-2.5h7.4c1.4 0 2.5 1.1 2.5 2.5s-1.1 2.5-2.5 2.5zm-23.8 0h-7.4c-1.4 0-2.5-1.1-2.5-2.5s1.1-2.5 2.5-2.5h7.4c1.4 0 2.5 1.1 2.5 2.5s-1.1 2.5-2.5 2.5zm2.3-6.1c-.7 0-1.3-.3-1.8-.8l-5.3-5.7c-.9-1-.9-2.6.2-3.5 1-.9 2.6-.9 3.5.2l5.3 5.7c.9 1 .9 2.6-.2 3.5-.5.4-1.1.6-1.7.6zm18.1 18.4c-.7 0-1.3-.3-1.8-.8l-5.3-5.7c-.9-1-.9-2.6.2-3.5 1-.9 2.6-.9 3.5.2l5.3 5.7c.9 1 .9 2.6-.2 3.5-.5.3-1.1.6-1.7.6zm-5.3-18.9c-.6 0-1.2-.2-1.7-.7-1-.9-1.1-2.5-.2-3.5l5.3-5.7c.9-1 2.5-1.1 3.5-.2s1.1 2.5.2 3.5l-5.3 5.7c-.4.6-1.1.9-1.8.9zm-6.6-.3c-1.4 0-2.5-1.1-2.5-2.5v-8.1c0-1.4 1.1-2.5 2.5-2.5s2.5 1.1 2.5 2.5v8.1c0 1.4-1.1 2.5-2.5 2.5zm0 23.1c-1.4 0-2.5-1.1-2.5-2.5v-8.1c0-1.4 1.1-2.5 2.5-2.5s2.5 1.1 2.5 2.5v8.1c0 1.4-1.1 2.5-2.5 2.5zm-11.2-4.1c-.6 0-1.2-.2-1.7-.7-1-.9-1.1-2.5-.2-3.5l5.3-5.7c.9-1 2.5-1.1 3.5-.2s1.1 2.5.2 3.5l-5.3 5.7c-.5.7-1.2.9-1.8.9z" fill="#42da56"/><path d="m132.1 272.7h-4.1c-3.1 0-5.7-2.5-5.7-5.7v-1c0-3.1 2.5-5.7 5.7-5.7h4.2c3.1 0 5.7 2.5 5.7 5.7v1c-.1 3.2-2.7 5.7-5.8 5.7z" fill="#3268cf"/><path d="m90.6 594.7c-2.5 0-4.5-2-4.5-4.5v-.8c0-2.5 2-4.5 4.5-4.5s4.5 2 4.5 4.5v.8c-.1 2.5-2.1 4.5-4.5 4.5z" fill="#f74e00"/><path d="m57.1 402.7c-7.3 0-13.2-6-13.2-13.2v-2.4c0-7.3 6-13.2 13.2-13.2 7.3 0 13.2 6 13.2 13.2v2.4c0 7.3-5.9 13.2-13.2 13.2z" fill="#42da56"/><path d="m965.2 448.5h-6.2c-5.4 0-9.8-4.4-9.8-9.8v-1.3c0-5.4 4.4-9.8 9.8-9.8h6.2c5.4 0 9.8 4.4 9.8 9.8v1.3c0 5.4-4.4 9.8-9.8 9.8zm-6.2-15.9c-2.6 0-4.8 2.2-4.8 4.8v1.3c0 2.6 2.2 4.8 4.8 4.8h6.2c2.6 0 4.8-2.2 4.8-4.8v-1.3c0-2.6-2.2-4.8-4.8-4.8z" fill="#42da56"/><g fill="#00f"><path d="m915.6 378.7c-.8 0-1.5-.7-1.5-1.5v-23.4c0-.8.7-1.5 1.5-1.5s1.5.7 1.5 1.5v23.4c0 .8-.7 1.5-1.5 1.5z"/><path d="m908.3 375.4c-.4 0-.7-.1-1-.4-.6-.6-.7-1.5-.1-2.1l15.2-16.6c.6-.6 1.5-.7 2.1-.1s.7 1.5.1 2.1l-15.2 16.6c-.3.3-.7.5-1.1.5z"/><path d="m923.5 375.2c-.4 0-.8-.2-1.1-.5l-15.2-16.6c-.6-.6-.5-1.6.1-2.1.6-.6 1.6-.5 2.1.1l15.2 16.6c.6.6.5 1.6-.1 2.1-.3.3-.6.4-1 .4z"/><path d="m926.3 366.9h-21.5c-.8 0-1.5-.7-1.5-1.5s.7-1.5 1.5-1.5h21.5c.8 0 1.5.7 1.5 1.5s-.7 1.5-1.5 1.5z"/></g><path d="m967.8 534.9h-7.4c-1.4 0-2.5-1.1-2.5-2.5s1.1-2.5 2.5-2.5h7.4c1.4 0 2.5 1.1 2.5 2.5s-1.2 2.5-2.5 2.5zm-23.8 0h-7.4c-1.4 0-2.5-1.1-2.5-2.5s1.1-2.5 2.5-2.5h7.4c1.4 0 2.5 1.1 2.5 2.5s-1.2 2.5-2.5 2.5zm2.2-6.2c-.7 0-1.3-.3-1.8-.8l-5.3-5.7c-.9-1-.9-2.6.2-3.5 1-.9 2.6-.9 3.5.2l5.3 5.7c.9 1 .9 2.6-.2 3.5-.4.4-1.1.6-1.7.6zm18.1 18.4c-.7 0-1.3-.3-1.8-.8l-5.3-5.7c-.9-1-.9-2.6.2-3.5 1-.9 2.6-.9 3.5.2l5.3 5.7c.9 1 .9 2.6-.2 3.5-.5.4-1.1.6-1.7.6zm-5.3-18.9c-.6 0-1.2-.2-1.7-.7-1-.9-1.1-2.5-.2-3.5l5.3-5.7c.9-1 2.5-1.1 3.5-.2s1.1 2.5.2 3.5l-5.3 5.7c-.4.6-1.1.9-1.8.9zm-6.6-.2c-1.4 0-2.5-1.1-2.5-2.5v-8.1c0-1.4 1.1-2.5 2.5-2.5s2.5 1.1 2.5 2.5v8.1c0 1.4-1.1 2.5-2.5 2.5zm0 23.1c-1.4 0-2.5-1.1-2.5-2.5v-8.1c0-1.4 1.1-2.5 2.5-2.5s2.5 1.1 2.5 2.5v8.1c0 1.4-1.1 2.5-2.5 2.5zm-11.2-4.1c-.6 0-1.2-.2-1.7-.7-1-.9-1.1-2.5-.2-3.5l5.3-5.7c.9-1 2.5-1.1 3.5-.2s1.1 2.5.2 3.5l-5.3 5.7c-.5.6-1.1.9-1.8.9z" fill="#f74e00"/><path d="m904.2 616.7h-4.3c-1.2 0-2.1-1-2.1-2.1v-.4c0-1.2 1-2.1 2.1-2.1h4.3c1.2 0 2.1 1 2.1 2.1v.4c0 1.2-.9 2.1-2.1 2.1z" fill="#3268cf"/><path d="m905.4 501.4h-9.3c-4 0-7.2-3.2-7.2-7.2v-.8c0-4 3.2-7.2 7.2-7.2h9.3c4 0 7.2 3.2 7.2 7.2v.8c0 4-3.2 7.2-7.2 7.2zm-9.3-10.2c-1.2 0-2.2 1-2.2 2.2v.8c0 1.2 1 2.2 2.2 2.2h9.3c1.2 0 2.2-1 2.2-2.2v-.8c0-1.2-1-2.2-2.2-2.2z" fill="#f74e00"/><path d="m893.9 289a5.7 6.3 0 1 0 11.4 0 5.7 6.3 0 1 0 -11.4 0z" fill="#3268cf"/></svg>