<svg height="30" viewBox="0 0 1024 1024" width="30" xmlns="http://www.w3.org/2000/svg">
    <path d="m994.454528 471.04c20.992-35.84 31.232-77.312 29.696-122.88-2.048-54.272-19.968-95.744-20.992-97.28-6.656-14.848-23.552-21.504-37.888-15.36l-451.584 181.76-1.024-.512v32.256l1.024.512 462.848-186.368s66.048 148.992-52.224 244.736l62.976-7.168s27.648 215.552-201.728 242.176c-100.352 11.776-194.56-10.24-271.872-41.472-.512 0-.512.512-1.024.512v31.744c.512 0 .512-.512 1.024-.512 73.728 28.16 146.432 42.496 216.576 42.496 19.968 0 39.424-1.024 58.88-3.584 78.336-9.216 138.24-39.424 177.664-90.624 62.464-79.872 50.176-180.736 49.664-184.832-1.536-12.8-10.752-22.528-22.016-25.6z"/>
    <path d="m513.174528 700.416c77.824 31.232 171.52 53.248 271.872 41.472 229.376-26.624 201.728-242.176 201.728-242.176l-62.976 7.168c118.272-95.744
 52.224-244.736 52.224-244.736l-462.848 186.368-1.024-.512v252.416c.512.512.512 0 1.024 0z" fill="#fff"/>
    <path d="m29.846528 471.04c-20.992-35.84-31.232-77.312-29.696-122.88 2.048-54.272 19.968-95.744 20.992-97.28 6.656-14.848 23.552-21.504 37.888-15.36l451.584 181.76 1.024-.512v32.256l-1.024.512-462.336-186.88s-66.048 148.992 52.224 244.736l-62.976-7.168s-27.648 215.552 201.728 242.176c100.352 11.776 194.56-10.24 271.872-41.472.512 0 .512.512 1.024.512v31.744c-.512 0-.512-.512-1.024-.512-73.728 28.16-146.432 42.496-216.576 42.496-19.968 0-39.424-1.024-58.88-3.584-78.336-9.216-138.24-39.424-177.664-90.624-62.464-79.872-50.176-180.736-49.664-184.832 1.024-12.288 10.24-22.016 21.504-25.088z"/>
    <path d="m511.126528 700.416c-77.824 31.232-171.52 53.248-271.872 41.472-229.376-26.624-201.728-241.664-201.728-241.664l62.976 7.168c-118.272-95.744-52.224-244.736-52.224-244.736l462.848 186.368 1.024-.512v252.416c-.512 0-.512-.512-1.024-.512z"
          fill="#fff"/>
    <path d="m892.054528 701.44-55.808-189.952 55.296-189.952 9.728-33.792-33.792-8.192-194.048-46.592-137.728-142.848-24.064-25.088-24.064 25.088-137.728 143.36-193.536 47.104-34.304 8.192 10.24 33.792 55.808 189.952-55.296 189.952-9.728 33.792 33.792 8.192 194.048 46.592 137.728 142.848 24.064 25.088 24.064-25.088 137.728-143.36 193.536-47.104 34.304-8.192z"/>
    <path d="m801.430528 511.488 58.368-199.68-203.264-48.64-144.896-150.016-144.384 150.528-203.264 49.152 58.88 199.68-58.368 199.68 203.264 48.64 144.896 150.016 144.384-150.528 203.264-49.152z"
          fill="#ffb921"/>
    <path d="m859.798528 311.808-203.264-48.64-144.896-150.016.512 398.848z" fill="#ffe35b"/>
    <path d="m512.150528 512 348.16 199.168-58.88-199.68 58.368-199.68z" fill="#ffb921"/>
    <path d="m512.150528 512-.512-398.848-144.384 150.528-203.264 49.152z" fill="#fff"/>
    <path d="m512.662528 910.848 144.384-150.528 203.264-49.152-348.16-199.168z" fill="#c95e40"/>
    <path d="m164.502528 712.192 347.648-200.192-348.16-199.168 58.88 199.68z" fill="#ffe35b"/>
    <path d="m512.150528 512-347.648 200.192 203.264 48.64 144.896 150.016z" fill="#ffb921"/>
    <path d="m267.414528 509.952a244.736 244.224 0 1 0 489.472 0 244.736 244.224 0 1 0 -489.472 0z"/>
    <path d="m315.542528 509.952a196.608 196.096 0 1 0 393.216 0 196.608 196.096 0 1 0 -393.216 0z"/>
    <path d="m267.414528 509.952c8.704 64 38.4 121.344 83.456 161.28 44.544 40.448 102.912 62.464 161.792 62.464s117.248-22.016 161.28-62.464c45.056-39.936 74.752-97.28 83.456-161.28 4.608 32.256 1.024 65.536-9.216 97.28-10.752 31.744-27.648 61.952-51.2 87.04-23.04 25.088-51.712 45.568-83.456 59.392-8.192 3.072-15.872 6.656-24.064 9.216-8.192 2.048-16.896 4.608-25.088 6.656-8.704 1.536-16.896 3.072-25.6 4.096l-26.112 1.536-26.112-1.536c-8.704-1.024-17.408-2.56-25.6-4.096-8.704-2.048-16.896-4.608-25.088-6.656-8.192-2.56-16.384-6.144-24.064-9.216-31.744-13.824-60.416-34.304-83.456-59.392s-40.448-55.296-51.2-87.04c-10.752-31.232-14.336-65.024-9.728-97.28z"
          fill="#ffe35b"/>
    <path d="m512.150528 306.176c-112.128 0-203.264 95.232-203.264 195.072 0 65.536 39.424 117.248 98.816 144.384v23.04c0 12.288 10.24 22.528 22.528 22.528h164.864c12.288 0 22.528-10.24 22.528-22.528v-23.04c58.88-27.648 98.816-78.848 98.816-144.384-1.024-99.84-92.16-195.072-204.288-195.072zm15.36 173.568 26.112-26.112c5.632-5.632 14.336-5.632 19.968 0s5.632 14.336 0 19.968l-26.112 26.112c-2.56 2.56-6.144 4.096-9.728 4.096s-7.168-1.536-9.728-4.096c-6.144-5.12-6.144-14.336-.512-19.968zm-75.264-25.6c5.632-5.632 14.336-5.632 19.968 0l26.112 26.112c5.632 5.632 5.632 14.336 0 19.968-2.56 2.56-6.144 4.096-9.728 4.096s-7.168-1.536-9.728-4.096l-26.112-26.112c-5.632-5.632-5.632-14.848-.512-19.968zm-29.696 150.528c-32.768 0-59.392-27.648-59.392-61.44s26.624-61.44 59.392-61.44 59.392 27.648 59.392 61.44-27.136 61.44-59.392 61.44zm58.88 10.24s31.744-51.2 31.744-50.688l29.696 50.688zm124.928-10.24c-32.768 0-59.392-27.648-59.392-61.44s26.624-61.44 59.392-61.44 59.392 27.648 59.392 61.44-26.624 61.44-59.392 61.44z"
          fill="#ffbf21"/>
    <path d="m487.062528 358.4c-13.824-22.016-52.736-23.04-86.528-1.536s-49.664 56.32-35.328 78.848c13.824 22.016 52.736 23.04 86.528 1.536 33.28-21.504 49.152-56.832 35.328-78.848z"
          fill="#fff"/>
</svg>