<svg height="30" viewBox="0 0 1412 1024" width="30" xmlns="http://www.w3.org/2000/svg">
    <g fill="#fdb933">
        <path d="m559.574487 727.279121h-62.497732l-1.552887 2.580181a245.59506 245.59506 0 0 0 53.514877 38.702724 163.213207 163.213207 0 0 0 4.802005 21.477622 367.943447 367.943447 0 0 1 -67.968672-44.101992l-12.136409 20.235313a137.131872 137.131872 0 0 0 13.641515 10.989662 100.340394 100.340394 0 0 1 -6.593797-18.777988s41.378467 30.651601 79.268911 47.088313c6.952156 13.307047 17.894037 24.129476 35.596949 25.13288 22.815494 1.337872 36.648134-12.542549 43.743634-22.982728l1.600668 40.66175c-17.774584 3.511914-52.224786 5.255925-101.726047-17.129539-26.231846-11.897504-52.82205-30.484367-75.374748-48.593419l-9.699572 16.173916-64.002837-59.630863a49.214574 49.214574 0 0 1 -23.771117 4.563099 392.968819 392.968819 0 0 0 207.585163 145.421899c40.016705 13.713187 63.883384 47.422781 77.716024 77.716024a233.329641 233.329641 0 0 1 17.679022 57.194025v-264.014689a246.648634 246.648634 0 0 1 -109.82495-32.70619zm15.576651 80.89347a143.677888 143.677888 0 0 1 -14.716591-33.92461 210.585818 210.585818 0 0 0 73.821861 18.969113c-22.672151 31.965583-48.712872 31.248866-59.10527 14.955497zm19.327471 68.565936-6.474344-2.938541-13.904312-6.808812c-8.528933-4.252521-16.74729-8.767839-24.822302-13.450391a177.251306 177.251306 0 0 0 51.98588 11.037443 258.734873 258.734873 0 0 0 40.303392-.883951l1.791793 46.132691c-11.32413-8.337809-28.453669-22.481026-48.880107-33.088439zm-240.083505-150.529704a66.602131 66.602131 0 0 1 6.648746-14.265059l-31.127024-29.005541a392.732302 392.732302 0 0 0 24.478278 43.2706zm33.621199-472.990283 14.370178 13.35244s-22.994674 23.591938-43.358995 66.848204l-19.96296-10.347006a388.271933 388.271933 0 0 0 -19.829174 41.856279h39.921143c2.675744-6.761031 5.566503-13.400221 8.648386-19.970128 12.279753-14.862324 29.003152-33.709594 42.33409-43.313603a45.616654 45.616654 0 0 1 24.941755-8.815621 411.264217 411.264217 0 0 0 -7.907778 8.096515 248.700834 248.700834 0 0 0 -43.241932 64.002837h16.34115c9.914587-25.847208 25.085098-48.115608 48.569529-71.502087 1.648449.188736 3.273008.453921 4.897566.738218 3.679148 3.299288 7.310514 6.3095 10.320727 9.19787a33.284342 33.284342 0 0 1 9.747352 26.401469 282.295753 282.295753 0 0 0 -28.143091 35.16453h25.419566v-12.755176h22.337683a247.695041 247.695041 0 0 1 175.977939-88.182483v-144.487778a391.566442 391.566442 0 0 0 -281.383134 133.71552zm27.66528 24.413774-.334467-6.450454q5.697901-6.68936 11.825832-13.070531a250.707641 250.707641 0 0 1 8.361699-8.266137 34.550542 34.550542 0 0 0 4.802005 29.602805 245.024075 245.024075 0 0 0 -24.655069-1.815683zm43.361385-7.690375c-5.685956-11.828221-4.348084-20.97831 6.784922-34.309247 9.22176-11.035054 25.921268-24.67657 37.460414-34.423922 16.962305-13.737078 30.914398-19.160237 39.82558-20.593672 2.819087 5.303707 4.658661 15.122731-9.412885 26.661876-15.409418 12.611832-45.487645 36.120153-74.658031 62.664965zm32.992877 41.925562c-4.706442-1.911246-8.457262-6.163767-13.474281-12.97258a39.044359 39.044359 0 0 1 19.423033 7.883888c-1.959027 1.67234-3.965835 3.347069-5.948752 5.088692zm79.460036-51.07565a294.876527 294.876527 0 0 0 -42.262418 22.717543c3.201336-58.003915 73.75019-79.030006 75.948122-79.672662-42.238528 20.306984-37.436523 46.849408-33.685704 56.955119zm76.043684-46.469548a37.541642 37.541642 0 0 0 -14.167108 27.283031 283.753078 283.753078 0 0 0 -48.880106 13.83264c-3.870272-11.775662-5.924861-29.576526 11.873613-39.106474 18.180724-9.773632 43.863087-13.115923 51.173601-13.9067zm0-22.550309c-87.845626-3.750819-113.050177 52.102944-127.742877 74.703424-13.617625 20.882747-28.453669 20.452717-52.511473 16.818961-1.051185-1.528996-2.10237-3.007823-3.010212-4.371974 10.440179-9.317322 22.170449-18.966724 35.501387-29.170386 64.050618-49.236076 80.200643-72.672725 82.852497-83.80812a421.190749 421.190749 0 0 1 64.910678-15.07495zm180.182679 1.075076c41.808497 18.969113 84.596508 54.969812 110.422215 78.958334a442.806937 442.806937 0 0 1 59.798096 93.123053h49.716276a392.135038 392.135038 0 0 0 -35.071356-67.154004 67.7441 67.7441 0 0 1 -8.3617 16.936025 64.370752 64.370752 0 0 0 -32.371722-26.444471s7.716654-8.361699 28.692574-7.957949a392.975986 392.975986 0 0 0 -207.585162-145.39562c-40.016705-13.715576-63.859494-47.422781-77.716024-77.718413a233.862401 233.862401 0 0 1 -17.655132-57.194025v263.969297a247.769101 247.769101 0 0 1 176.169063 88.203984h30.55604v12.755176h21.740418c-25.897378-46.46477-63.118886-85.621414-108.104829-109.511984a160.49446 160.49446 0 0 0 -4.825895-21.480012c21.573185 10.750756 85.480459 46.015627 119.04671 101.319908a295.442734 295.442734 0 0 1 15.624433 29.672088h14.6927c-14.764372-30.219182-31.84613-56.809386-49.835729-74.583971 0 0 1.744012-18.801879-33.064548-43.504728a101.482363 101.482363 0 0 1 6.617687 18.777988s-41.402358-30.677881-79.292801-47.088313c-6.952156-13.309437-17.870146-24.129476-35.59695-25.13288-22.815494-1.337872-36.624244 12.51627-43.719743 22.958838l-1.600668-40.63786c17.750694-3.514303 52.224786-5.255925 101.726047 17.129539zm-35.883636 22.980339a144.119863 144.119863 0 0 1 14.692701 33.92461 210.585818 210.585818 0 0 0 -73.821862-18.966724c22.696041-31.965583 48.712872-31.248866 59.129161-14.957886zm-66.439675-55.519295-1.791793-46.13508c11.32413 8.316307 28.453669 22.483415 48.880106 33.090828l6.474345 2.938541 13.904312 6.808812c8.528933 4.250132 16.77118 8.767839 24.822302 13.450391a176.35541 176.35541 0 0 0 -51.96199-11.039832 255.868005 255.868005 0 0 0 -40.327282.88634zm216.496345 603.332454c-.716717.740608-1.385653 1.505106-2.10237 2.245714-2.675744 2.795197-5.494831 5.542612-8.337809 8.266137a34.677162 34.677162 0 0 0 -4.802005-29.624307 6.928265 6.928265 0 0 1 .740608.095563l-10.870209-14.286561c-1.098966-.167234-2.197932-.310577-3.296899-.501702-.955623-.883951-1.935136-1.720121-2.890759-2.556291h-102.729451a246.459898 246.459898 0 0 1 -110.016075 32.730081v144.466276a391.100576 391.100576 0 0 0 263.895237-115.080875zm-146.425303-.43003a297.676502 297.676502 0 0 0 42.286309-22.743823c-3.225227 58.030195-73.75019 79.053896-75.948122 79.698942 42.214637-20.306984 37.412633-46.849408 33.661813-56.955119zm-76.043685 46.443268a37.269289 37.269289 0 0 0 14.167108-27.25914 282.732951 282.732951 0 0 0 48.880107-13.83264c3.894163 11.778051 5.924861 29.576526-11.849723 39.084972-18.180724 9.795134-43.886977 13.115923-51.197492 13.928202zm64.93457 48.378404a418.713297 418.713297 0 0 1 -64.93457 15.07495v-40.900656c87.869516 3.77471 113.050177-52.081443 127.766769-74.681922 13.617625-20.880358 28.453669-20.474218 52.511473-16.842852 1.027295 1.552887 2.07848 3.010212 3.010211 4.395865-10.440179 9.317322-22.19434 18.969113-35.525277 29.146496-64.026728 49.262355-80.200643 72.699004-82.828606 83.808119zm116.800996-69.664902c-9.22176 11.013553-25.945159 24.678959-37.484304 34.426312-16.938414 13.713187-30.914398 19.160237-39.80169 20.56978-2.842978-5.303707-4.682552-15.122731
 9.388994-26.637985 15.433308-12.614221 45.511536-36.146432 74.658032-62.664965 5.685956 11.825832 4.348084 20.97592-6.761032 34.306858z"/>
        <path d="m918.363067 718.867251h-426.042924l-40.009538 66.65469-120.210181-112.046773h-242.55379l-89.537078-31.92258 118.657294-103.073475 17.566736 11.467474 19.611769-101.790552-65.780295-90.232294 13.335716 3.012601c2.322163.513647 56.560924 12.377704 105.684714 12.377705h270.407806v-12.731285h115.983939l86.631985-92.353776 86.653486 92.353776h127.143225v12.733674h307.614979c49.145292 0 103.384053-11.864057 105.667991-12.370537l13.378719-3.019768-65.780295 90.232293 19.611769 101.790552 17.564347-11.467474 118.657294 103.073475-89.551413 31.920191h-263.699333l-90.067449 112.30957zm-468.331622 50.483163 36.464177-60.746552h436.958525l46.070575 60.490923 84.92142-105.883006h266.857667l71.334853-25.414788-99.537671-86.483864-23.859512 15.598154-23.388868-121.182528 52.542531-72.092184-4.99074.900675c-22.815494 4.12829-56.92645 9.047359-89.873936 9.047359h-317.89748v-12.728896h-121.321093l-82.202673-87.611498-82.183561 87.611498h-110.159418v12.733674h-280.690307a527.503785 527.503785 0 0 1 -89.847655-9.047359l-4.99074-.903064 52.540141 72.094573-23.388868 121.182528-23.859512-15.598153-99.51378 86.483863 71.310962 25.414788h244.823394z"/>
        <path d="m682.10922 302.024586-50.480774 53.230579 50.480774 53.25208 50.504665-53.25208zm-37.31707 53.230579 37.31707-39.350158 37.340961 39.350158-37.340961 39.371659z"/>
        <path d="m680.759403 337.408909a119.727592 119.727592 0 0 0 -.733441 8.323475c-.140954 2.30544-.215015 4.7375-.258018 7.188672a163.514228 163.514228 0 0 0 -7.183894.25324 122.785584 122.785584 0 0 0 -8.325864.731052 74.139606 74.139606 0 0 0 -8.122794 1.364151 72.646445 72.646445 0 0 0 8.122794 1.36893c2.436838.308188 5.277427.561428 8.325864.731051 2.30544.136176 4.735111.215015 7.183894.25324.038225 2.448783.107508 4.883233.238906 7.191062.167234 3.04127.425252 5.886636.73344 8.321085a72.28092 72.28092 0 0 0 1.371319 8.122794 72.197303 72.197303 0 0 0 1.371319-8.122794c.308188-2.434449.563817-5.279816.73344-8.321085.138565-2.30544.212626-4.739889.250851-7.188673a175.894322 175.894322 0 0 0 7.186284-.238905 117.080516 117.080516 0 0 0 8.323474-.731052 71.965564 71.965564 0 0 0 8.122794-1.373708 73.733466 73.733466 0 0 0 -8.122794-1.371318 112.23312 112.23312 0 0 0 -8.323474-.716717 144.454331 144.454331 0 0 0 -7.191062-.238906 189.93481 189.93481 0 0 0 -.238906-7.186284 122.740192 122.740192 0 0 0 -.73344-8.323474 73.181594 73.181594 0 0 0 -1.366541-8.122794 72.589108 72.589108 0 0 0 -1.364151 8.086958zm-289.70183 205.898488 3.182224-35.042688h-76.390098l9.893085-57.834291h98.352699l-11.945285-35.735515h-255.927731l19.411088 27.445487-1.693841 8.290028h81.875372l-9.893085 57.834291h-76.660061l-7.167171 35.042688h77.835477l-11.706379 68.487097h-88.423778l-4.130679-15.741496-46.837463 47.993766h291.861537l14.535023-32.25227h-97.08172l11.706379-68.487097z"/>
        <path d="m682.10922 509.060265v-31.057741h-21.501513v-14.334342h-55.7367v14.334342h-15.52887v-25.751645h89.780762v-37.558365h-89.780762v-9.556228l3.72454-9.150088h-74.299673l3.691093 10.344616v8.3617h-87.224471l8.982854 30.749553 1.982918 6.808812h76.258699v25.751645h-100.149269v31.057741h46.586611l-27.306921 59.274894-42.572996 92.432615h-43.60029l66.893596 52.559254 3.7986 18.515192 43.194151-94.152737 21.095373-45.965456v52.320348h177.387482v-119.049099h-146.759771l7.310514-15.935011zm-142.93728 42.217027h70.477181v22.696041h-70.477181zm0 43.003026h70.477181v28.262544h-70.477181zm215.41888-138.572474h45.392083l-3.220449-8.758282h69.664903l-2.061757 8.758282h45.392083l2.061757-8.758282h43.848752v-32.25227h-36.261107l3.08905-13.139813h-45.392083l-3.08905 13.139813h-89.111826l-4.828285-13.139813h-45.392083l4.828285 13.139813h-36.48329v32.25227h48.340179zm-5.576059 46.586612h155.088024v16.326815h59.133939v-44.598916h-263.990798v44.596527h49.768835z"/>
        <path d="m963.236724 529.369639h-98.866346v-13.937759h-67.966282v13.937759h-97.153392v31.655005h97.153392v83.019731h67.966282v-83.019731h98.871124z"/>
        <path d="m702.73156 636.688468-14.637752 7.358296h68.685389l27.278252-77.644353h-54.551727zm284.395734 28.859809-60.52437-99.145866h-55.746256l85.449402 165.439809 5.179476-17.119983 53.906682-49.17396zm14.389291-170.819965-7.358296-63.907274h-23.474874l4.300303 6.271274 5.929639 57.636zm51.715916 0h20.605617l-7.353517-63.907274h-23.470096l4.288357 6.271274z"/>
        <path d="m1069.148399 531.460064h12.650057l-2.819087-24.487834h-33.021546l-14.764372-99.843471h-39.419441l9.687626 7.566144 13.419333 92.277327h-38.924905l5.208144 24.487834h13.139814l6.550794 101.238679h-8.958964l9.154866 11.348021h37.030384l-6.746697-112.5867h5.076746l16.546609 112.5867h51.12582l-2.403392-12.243917h-17.516566zm54.953089-36.731752h30.259796l-9.159644-87.599553h-71.695601v21.501513h43.4235zm80.850467 0h30.259796l-7.01666-67.149225 16.154803-20.450328h-89.986221v21.501513h43.4235z"/>
        <path d="m1079.301891 441.870426h28.967317v15.029558h-28.967317zm6.149433 30.957401h28.967316v15.031947h-28.967316zm71.941674-30.957401h28.967316v15.029558h-28.967316zm9.109474 30.957401h28.967316v15.031947h-28.967316zm117.14741 135.977957-5.162752 14.525467h-60.34758l-1.887355-11.634708h42.931354l-5.064801-23.699445h-41.712935l-2.174042-13.426501h40.088377l-2.771306-23.699445h-41.139562l-1.69623-10.442568h43.218041l-4.443646-23.699446h-42.620777l-1.887355-11.656209h-37.221508l1.744011 11.656209h-27.044125l.40614-11.656209h-32.25227a40.613969 40.613969 0 0 1 -18.061271 38.224912l1.313982 7.979451 13.784859-.81228 11.34802 93.579363h197.694467zm-149.554968-68.3772h32.945096l1.552887 10.442568h-32.968987zm5.017019 34.142013h33.016768l2.006808 13.426501h-33.040658zm7.167171 48.760654-1.69623-11.634708h33.088439l1.744012 11.634708z"/>
    </g>
</svg>