<svg height="40" viewBox="0 0 1025 1024" width="40" xmlns="http://www.w3.org/2000/svg">
    <path d="m1023.363184 527.283582v473.154229c0 19.104478-4.457711 23.562189-23.562189 23.562189h-480.79602c15.283582-27.383085 44.258706-41.711443 62.089552-66.547264a513.910448 513.910448 0 0 0 55.721393-53.174129c20.696517-20.378109 41.393035-41.074627 61.771145-62.089552s56.676617-47.442786 40.756219-91.064677c-18.467662-31.840796-43.621891-27.064677-70.049752-12.41791-28.0199 22.925373-51.58209 50.308458-77.373134 75.462686s-41.711443 42.666667-63.681592 63.681592a31.840796 31.840796 0 0 1 -40.756219 0c-19.741294-17.512438-37.253731-36.935323-56.358209-55.084577s-35.343284-35.9801-53.492537-53.810945-31.840796-31.840796-46.487562-46.169154c-19.104478-22.288557-39.482587-41.393035-59.860697-61.452737s-35.661692-35.9801-53.810945-53.492537-35.9801-36.616915-54.447761-54.129353c-11.781095-14.965174-31.840796-24.517413-28.975125-48.39801a194.547264 194.547264 0 0 1 37.57214-43.303483c19.422885-16.238806 32.796019-38.208955 51.263681-55.402985 12.099502-7.960199 19.104478-21.651741 31.840796-31.840796a229.890547 229.890547 0 0 1 23.880597-22.606965 144.238806 144.238806 0 0 0 24.835821-21.333333c10.189055-10.189055 20.059701-20.059701 29.930348-31.840796s14.00995-17.512438 22.288558-24.835821 17.830846-22.606965 30.248756-31.840796a183.084577 183.084577 0 0 0 31.840796-28.975125c13.691542-11.781095 21.333333-29.293532 36.298507-39.482587a207.283582 207.283582 0 0 0 31.840796-29.61194 43.303483 43.303483 0 0 1 26.746269-14.646766c22.288557 4.457711 31.840796 24.199005 48.39801 37.253731 10.507463 11.144279 21.333333 21.970149 31.840796 31.840796l35.661691 40.119403 17.19403 17.19403a318.40796 318.40796 0 0 0 23.562189 22.925373 33.432836 33.432836 0 0 0 25.154229 9.870647c46.80597-6.049751 55.721393-18.149254 47.442786-65.910448a56.995025 56.995025 0 0 0 -20.378109-25.472637 234.348259 234.348259 0 0 1 -21.014926-24.517413c-7.641791-8.278607-15.60199-16.238806-23.562189-23.880597s-21.014925-21.014925-31.840796-31.840796c-23.880597-26.427861-51.58209-49.034826-77.054726-73.870646-6.686567-17.19403-31.840796-21.651741-31.840796-43.303483h465.512438c19.104478 0 23.562189 4.457711 23.562189 23.562189v480.79602c-6.049751 2.547264-9.552239 0-13.054727-5.412935a187.223881 187.223881 0 0 0 -67.820895-74.825871c-28.338308-27.383085-55.402985-55.402985-83.422886-82.78607a47.761194 47.761194 0 0 0 -63.681592-9.552238 52.537313 52.537313 0 0 0 -15.283582 18.149253 34.706468 34.706468 0 0 0 0 31.840796 112.39801 112.39801 0 0 0 30.248756 43.621891c23.880597 31.840796 63.681592 48.716418 75.144279 90.746268a24.517413 24.517413 0 0 1 -6.686567 13.373135c-7.323383 8.278607-15.60199 15.920398-23.562189 23.880597l-16.238806 15.920398c-5.094527 5.094527-10.507463 10.189055-15.60199 15.60199l-15.283582 15.283582a105.074627 105.074627 0 0 0 -14.646766 16.875622 170.666667 170.666667 0 0 0 -8.915423 16.875622 43.940299 43.940299 0 0 0 9.552238 56.995025c21.014925 16.557214 40.437811 6.049751 59.223881-6.686568a184.039801 184.039801 0 0 0 19.104478-16.238806l21.014925-21.014925 10.507463-10.507463 20.378109-20.059701 16.875622-16.557214 16.557214-17.19403 20.378109-20.378109a219.383085 219.383085 0 0 0 16.557214-17.830846c7.960199-7.641791 11.144279-22.288557 26.746269-17.19403zm-526.646766 496.079602h-471.243781c-21.333333 0-25.472637-4.139303-25.472637-25.472637v-463.60199a7.641791 7.641791 0 0 1 9.233831-1.59204c15.60199 17.19403 31.840796 35.024876 48.716418 50.945274l60.81592 60.81592 60.815921 60.815921c14.965174 15.60199 31.840796 31.840796 46.169154 46.169154 20.059701 20.696517 40.437811 40.756219 60.81592 60.81592 15.283582 15.60199 31.840796 31.840796 46.487562 46.169155 20.378109 21.014925 40.756219 41.393035 61.771145 61.771144a716.099502 716.099502 0 0 0 95.522388 86.925373c4.776119 4.139303 9.233831 8.597015 6.368159 16.238806zm-496.716418-541.930348v-457.870647c0-19.104478 4.457711-23.562189 23.562189-23.562189h457.870647c5.412935 12.099502-4.776119 18.149254-10.507463 26.109453l-31.840796 31.840796c-10.507463 9.870647-20.696517 20.059701-31.840796 31.840796l-31.840796 31.840796c-10.507463 10.189055-20.696517 20.378109-31.840796 31.840796s-25.791045 25.472637-38.208955 38.845771l-31.840796 32.159204c-8.278607 7.641791-16.238806 15.60199-24.199005 23.880597l-23.562189 23.562189c-8.278607 7.960199-16.238806 15.920398-23.880597
 24.199005l-28.019901 28.0199c-8.278607 7.960199-16.557214 15.920398-24.517413 24.199005s-21.333333 21.014925-31.840796 31.840796l-50.626865 51.263682c-16.238806 14.965174-31.840796 31.840796-47.442786 46.169154-5.731343 3.502488-11.462687 8.278607-19.422886 3.820896z"
          fill="#fefefe"/>
    <path d="m496.716418 1023.363184a606.567164 606.567164 0 0 1 -106.666667-99.980099c2.228856-18.78607 17.19403-16.557214 28.656717-15.283583a1071.124378 1071.124378 0 0 1 145.830845 27.701493c12.099502 3.502488 25.154229 7.960199 23.562189 25.154229a180.218905 180.218905 0 0 1 -68.457711 61.771144z"
          fill="#0e6bfe"/>
    <path d="m0 481.432836 12.736318-8.915423a286.567164 286.567164 0 0 1 108.577115 14.328358c8.278607 1.910448 17.512438 5.412935 16.238806 17.512438 2.865672 20.696517 24.835821 27.701493 31.840796 44.577114a19.741294 19.741294 0 0 1 -21.014926 12.417911 553.393035 553.393035 0 0 1 -140.736318-26.427861h-7.641791z"
          fill="#1281fe"/>
    <path d="m770.547264 384.636816a34.069652 34.069652 0 0 1 1.910447-40.437811c23.243781-5.412935 38.845771 10.825871 54.129354 21.970149 55.721393 40.756219 118.447761 71.323383 172.577114 114.626866a49.671642 49.671642 0 0 1 15.920398 15.60199l8.278607 7.960199v15.283582c-14.00995 10.825871-26.109453 2.547264-37.890547-4.139303-63.681592-36.616915-125.771144-79.283582-187.860697-119.402986-8.597015-5.412935-15.920398-14.00995-27.064676-11.462686z"
          fill="#f6525f"/>
    <path d="m770.547264 384.636816c7.323383-28.656716 20.696517-3.820896 25.472636 0 63.681592 42.985075 129.273632 85.651741 196.139304 124.81592a52.218905 52.218905 0 0 0 31.840796 10.825871v7.641791c-13.691542 2.547264-12.099502 18.467662-21.651741 25.154229-67.820896-39.482587-129.59204-88.517413-199.641791-124.497513a70.368159 70.368159 0 0 1 -32.159204-43.940298z"
          fill="#f64d5d"/>
    <path d="m463.60199 22.288557 17.830846-22.288557h53.492537c11.144279 13.691542 31.840796 19.422886 36.616916 38.208955-30.248756 22.606965-70.368159 16.875622-107.940299-15.920398z"
          fill="#2ac8fe"/>
    <path d="m634.268657 509.452736a123.542289 123.542289 0 0 1 -119.402985 123.542289 122.268657 122.268657 0 1 1 119.402985-123.542289z"/>
    <path d="m588.099502 961.59204c-20.696517-25.472637-52.218905-21.333333-78.965174-25.791045-39.164179-6.368159-77.691542-27.383085-119.084577-11.781095a292.935323 292.935323 0 0 1 -61.134328-61.134328c7.004975-25.472637 27.701493-16.557214 42.985075-14.328358 39.482587 5.731343 78.646766 14.965174 118.447761 19.741293a25.791045 25.791045 0 0 0 36.935323 2.547264 217.472637 217.472637 0 0 1 97.751244 14.965174c10.825871 2.865672 20.696517 9.870647 17.512438 24.199005a199.960199 199.960199 0 0 1 -54.447762 51.58209z"
          fill="#0d6efe"/>
    <path d="m748.577114 748.577114c22.925373 50.626866-15.920398 73.233831-45.21393 100.298508-37.253731-16.875622-83.741294-7.004975-115.582089-39.482587a641.59204 641.59204 0 0 1 76.41791-76.417911 111.124378 111.124378 0 0 1 84.378109 15.60199z"
          fill="#1077fe"/>
    <path d="m587.781095 809.393035a524.736318 524.736318 0 0 0 82.467661 19.104477c12.736318 1.910448 27.701493 4.776119 31.840796 20.37811a356.616915 356.616915 0 0 1 -60.81592 61.134328c-14.00995-23.562189-39.800995-17.830846-60.815921-24.199005s-36.298507-10.189055-54.447761-14.965174a345.472637 345.472637 0 0 1 61.771145-61.452736z"
          fill="#0f72fe"/>
    <path d="m176.079602 710.368159-60.81592-61.134328c0-22.288557 16.238806-23.562189 31.840796-21.014926a619.940299 619.940299 0 0 1 131.502487 27.701493 411.064677 411.064677 0 0 1 61.134329 61.134328c-17.19403 17.19403-37.890547 10.189055-57.631841 7.641791a451.820896 451.820896 0 0 0 -106.029851-14.328358z"
          fill="#1079fe"/>
    <path d="m277.970149 655.920398a474.109453 474.109453 0 0 1 -127.363184-17.512438c-15.283582-2.547264-26.746269-5.094527-34.38806 10.825871a345.472637 345.472637 0 0 1 -61.452736-60.497513c4.776119-24.199005 24.199005-18.149254 38.845771-16.238806a494.487562 494.487562 0 0 1 132.139304 29.930349 312.995025 312.995025 0 0 1 52.218905 53.492537z"
          fill="#117cfe"/>
    <path d="m283.064677 817.034826a459.781095 459.781095 0 0 1 -60.179105-60.815921c8.915423-25.791045 29.930348-17.512438 46.80597-15.283582 38.527363 4.776119 76.099502 15.920398 114.626866 20.37811a303.761194 303.761194 0 0 1 53.492537 53.492537c-4.776119 27.701493-25.791045 18.149254-40.756219 16.238806a562.945274 562.945274 0 0 0 -113.990049-14.00995z"
          fill="#0f73fe"/>
    <path d="m283.064677 817.034826c1.910448-16.238806 13.054726-15.60199 25.154228-13.373134l91.383085 18.149253c13.691542 2.865672 27.064677 7.641791 37.253731-7.004975a303.761194 303.761194 0 0 1 53.492538 53.492537c-26.427861 20.696517-51.900498-2.865672-78.009951-1.910447s-54.766169-22.606965-83.422885-3.502488z"
          fill="#0f70fe"/>
    <path d="m382.089552 761.313433c-23.880597 21.970149-46.80597-1.910448-70.368159-1.910448-30.248756 0-59.860697-22.925373-91.064677-3.18408-14.965174-15.60199-35.343284-25.791045-45.850746-45.850746 4.776119-22.288557 19.104478-13.054726 31.840796-10.82587a462.00995 462.00995 0 0 0 130.228856 17.512437 215.880597 215.880597 0 0 1 45.21393 44.258707z"
          fill="#1076fe"/>
    <path d="m224.79602 602.427861c-43.303483 3.18408-83.422886-14.00995-125.452736-18.467662-15.920398-1.59204-31.840796-8.915423-45.532339 4.776119-16.557214-15.60199-40.756219-27.064676-46.169154-53.810945 47.442786-6.049751 91.701493 14.00995 137.870647 16.875622a49.034826 49.034826 0 0 0 25.472637-2.865672 318.40796 318.40796 0 0 1 53.810945 53.492538z"
          fill="#117ffe"/>
    <path d="m58.905473 426.985075a332.099502 332.099502 0 0 1 55.084577-54.76617 696.039801 696.039801 0 0 1 84.696517 15.920398c13.054726 2.547264 28.0199 4.457711 31.840796 22.288558-18.78607 16.875622-31.840796 41.393035-53.174129 54.447761a426.029851 426.029851 0 0 0 -78.646766-19.104478 48.716418 48.716418 0 0 1 -39.800995-18.786069z"
          fill="#1489fe"/>
    <path d="m463.60199 22.288557c35.343284 9.233831 68.776119 31.840796 107.940299 16.557214a570.587065 570.587065 0 0 1 78.328358 76.099503 16.557214 16.557214 0 0 1 -10.507463 4.457711 137.552239 137.552239 0 0 1 -37.890547-14.646766c-45.532338-5.094527-89.791045-15.920398-134.686567-24.517413-15.60199-2.547264-34.38806-5.094527-31.840796-28.656716z"
          fill="#26c2fe"/>
    <path d="m58.905473 426.985075 85.333333 16.238806c14.00995 2.547264 28.338308 3.820896 31.840796 21.651741l-37.890547 39.482587c-38.527363-22.288557-85.333333-12.41791-124.815921-31.840796a228.616915 228.616915 0 0 1 45.532339-45.532338z"
          fill="#1486fe"/>
    <path d="m1015.084577 496.39801c-55.402985-34.069652-111.761194-67.18408-165.890547-103.482587-25.154229-17.19403-50.945274-31.840796-76.736319-48.716418a23.562189 23.562189 0 0 1 11.781095-16.557214c16.238806-7.323383 28.338308 1.59204 41.711443 8.597015a1254.208955 1254.208955 0 0 1 123.860696 83.104478c25.791045 22.288557 57.631841 39.482587 65.273632 77.054726z"
          fill="#f75961"/>
    <path d="m802.069652 427.940299c19.741294-11.781095 33.751244 6.049751 45.532338 13.691542 41.711443 27.701493 82.467662 56.676617 127.363184 80.557214a63.681592 63.681592 0 0 1 27.701493 31.840796l-14.009951 14.00995c-15.60199 5.731343-27.064677-3.820896-37.890547-11.781095a246.129353 246.129353 0 0 0 -71.004975-35.024875c-2.228856-28.975124-29.293532-37.572139-44.895522-56.039801-11.144279-13.691542-21.970149-25.472637-32.79602-37.253731z"
          fill="#f6485a"/>
    <path d="m641.910448 114.945274h7.960199a99.024876 99.024876 0 0 1 30.248756 31.840796 106.666667 106.666667 0 0 1 -54.766169 99.980099 155.701493 155.701493 0 0 1 -38.208955-38.208955c17.830846-33.114428 38.527363-61.452736 54.766169-93.61194z"
          fill="#39a4f4"/>
    <path d="m228.935323 410.427861c-20.378109-17.830846-47.442786-13.054726-71.323383-20.059702-15.283582-4.776119-31.840796-4.457711-43.62189-18.149254l28.975124-29.293532a212.696517 212.696517 0 0 1 102.845771 12.099503c9.870647 2.547264 22.288557 9.552239 14.328358 24.835821-14.328358 6.049751-14.965174 26.109453-31.20398 30.567164z"
          fill="#158dfe"/>
    <path d="m303.442786 182.447761 39.482587-39.482587c28.656716 7.004975 57.631841 10.507463 85.651741 19.104478 11.144279 3.502488 26.427861 2.865672 29.293533 19.422885-15.60199 10.189055-19.422886 31.840796-37.890547 39.164179a536.199005 536.199005 0 0 1 -84.059702-15.920398c-13.054726-3.18408-27.064677-7.004975-32.477612-22.288557z"
          fill="#1fadfe"/>
    <path d="m457.870647 181.492537a330.189055 330.189055 0 0 0 -85.333334-20.378109 29.61194 29.61194 0 0 1 -29.61194-18.149254c9.870647-9.552239 19.741294-19.422886 29.293532-29.293532a399.283582 399.283582 0 0 1 95.522389 15.920398c11.144279 2.228856 21.970149 7.323383 20.059701 22.606965a74.189055 74.189055 0 0 1 -29.930348 29.293532z"
          fill="#22b3fe"/>
    <path d="m488.756219 152.199005c-14.646766-22.925373-40.437811-16.557214-60.497513-20.378109a199.323383 199.323383 0 0 1 -56.039801-18.149254l31.840796-30.248756a222.885572 222.885572 0 0 1 124.179105 28.0199c7.323383 15.60199-3.502488 20.696517-14.965174 25.472637z"
          fill="#23b9fe"/>
    <path d="m303.442786 182.447761a298.348259 298.348259 0 0 0 88.835821 23.562189c11.462687 2.228856 21.970149 3.18408 27.701493 14.646766a76.099502 76.099502 0 0 1 -31.840797 29.611941c-42.029851-7.323383-86.606965-3.502488-124.179104-29.293533z"
          fill="#1ea7fe"/>
    <path d="m641.910448 114.945274a135.004975 135.004975 0 0 1 -54.766169 92.338308 103.164179 103.164179 0 0 1 -29.930349-29.930348 147.104478 147.104478 0 0 1 43.940299-78.646766 8.278607 8.278607 0 0 1 10.189055 0z"
          fill="#3a9ef2"/>
    <path d="m864.159204 689.99005a52.537313 52.537313 0 0 1 -78.328358 5.731343 49.671642 49.671642 0 0 1 -8.597015-70.368159c36.298507 11.462687 71.960199 24.199005 86.925373 64.636816z"
          fill="#f52c3c"/>
    <path d="m165.890547 320 31.840796-31.840796a299.940299 299.940299 0 0 1 95.522388 20.378109c10.189055 2.865672 21.970149 10.189055 13.054727 25.472637a44.258706 44.258706 0 0 1 -23.243781 21.651742c-40.119403-8.597015-84.378109-5.412935-117.17413-35.661692z"
          fill="#1894fe"/>
    <path d="m305.671642 335.283582c-4.139303-19.422886-19.741294-19.422886-34.706468-21.970149a205.054726 205.054726 0 0 1 -74.189055-23.880597l22.925374-22.925373a224.477612 224.477612 0 0 1 91.701492 10.82587c12.736318 2.547264 26.109453 9.552239 24.517413 27.383085a92.656716 92.656716 0 0 1 -30.248756 30.567164z"
          fill="#1999fe"/>
    <path d="m949.810945 419.343284a67.820896 67.820896 0 0 1 -43.303482-20.059702 528.557214 528.557214 0 0 0 -122.268657-71.641791 51.58209 51.58209 0 0 1 77.691542 1.910448c29.61194 28.975124 58.587065 59.860697 87.880597 89.791045z"
          fill="#f76063"/>
    <path d="m265.233831 220.975124c40.437811 12.736318 85.970149 6.049751 124.179104 29.293533-14.00995 6.368159-14.646766 26.109453-31.840796 31.840796-29.293532-4.457711-57.631841-13.054726-86.925373-18.467662-12.099502-2.228856-24.517413-4.776119-29.61194-18.78607z"
          fill="#1ca1fe"/>
    <path d="m703.044776 168.437811c12.736318 3.18408 13.054726 18.149254 22.606965 24.517413 3.820896 40.437811-28.975124 88.199005-62.089552 90.427861l-22.925373-22.925374a311.402985 311.402985 0 0 1 62.40796-92.0199z"
          fill="#37acf6"/>
    <path d="m604.975124 99.9801-47.761194 77.373134-45.532338-40.437811 15.920398-21.970149c19.422886-33.432836 49.353234-16.557214 77.373134-14.965174z"
          fill="#3c98f0"/>
    <path d="m242.308458 243.58209a398.00995 398.00995 0 0 0 76.099502 17.830845c14.00995 3.18408 31.840796 4.139303 39.482587 19.422886-9.233831 6.049751-10.507463 20.378109-22.925373 23.880597-16.557214-30.885572-53.174129-18.149254-80.238806-28.338309a240.39801 240.39801 0 0 1 -35.024875-9.870646z"
          fill="#1b9efe"/>
    <path d="m747.303483 214.288557c23.880597 53.492537 0 86.925373-59.542289 82.78607 1.59204-34.706468 34.38806-80.238806 59.542289-82.78607z"
          fill="#36b4f8"/>
    <path d="m878.80597 519.641791c19.104478-13.691542 31.840796 1.910448 48.079602 9.552239 21.014925 10.825871 40.756219 24.835821 60.815921 37.253731l-24.199005 24.199005a163.9801 163.9801 0 0 1 -92.656717-63.681592z"
          fill="#f64355"/>
    <path d="m165.890547 320c37.253731 17.512438 81.830846 11.462687 116.537314 36.935323l-22.288558 22.925374c-4.457711-16.875622-18.78607-18.149254-31.840796-20.696518-28.338308-5.094527-56.358209-10.825871-84.696517-16.238806z"
          fill="#1690fe"/>
    <path d="m786.78607 611.343284c4.776119-5.731343 6.686567-14.00995 15.283582-15.283583 15.60199-11.462687 28.975124-2.865672 41.074627 6.049752 20.696517 15.60199 47.442786 23.562189 60.81592 48.39801l-24.199005 24.199005a314.905473 314.905473 0 0 1 -92.975124-63.363184z"
          fill="#f53343"/>
    <path d="m703.044776 168.437811c-19.104478 31.840796-29.930348 69.094527-63.681592 92.0199l-15.283582-14.965174c19.741294-31.840796 50.626866-58.905473 54.766169-99.980099a56.676617 56.676617 0 0 1 24.199005 22.925373z"
          fill="#38a9f5"/>
    <path d="m870.845771 527.283582 92.656717 63.681592-14.009951 14.00995c-42.029851-2.547264-69.412935-31.840796-101.572139-54.447761z"
          fill="#f53f50"/>
    <path d="m847.920398 550.208955c39.800995 7.323383 65.910448 39.800995 101.572139 54.447761l-14.965174 14.965175c-44.895522 2.547264-70.049751-31.840796-101.890547-54.129354 4.776119-5.412935 6.686567-14.00995 15.283582-15.283582z"
          fill="#f53c4d"/>
    <path d="m832.636816 565.492537c40.119403 7.004975 63.681592 45.21393 101.890547 54.129354l-24.199005 24.517412a975.60199 975.60199 0 0 1 -92.975124-63.681592c4.776119-5.094527 6.686567-13.691542 15.283582-14.965174z"
          fill="#f53949"/>
    <path d="m786.78607 611.343284a274.467662 274.467662 0 0 1 92.975124 63.681592l-15.60199 15.283582c-23.243781-29.293532-60.81592-39.164179-86.925373-63.681592 1.59204-7.004975.955224-14.328358 9.552239-15.283582z"
          fill="#f52e3e"/>
    <path d="m817.353234 580.776119a178.308458 178.308458 0 0 1 92.975124 63.681592l-6.368159 6.36816c-36.616915-13.373134-60.81592-49.353234-101.890547-54.447762 4.776119-5.731343 6.686567-14.328358 15.283582-15.60199z"
          fill="#f53646"/>
    <path d="m747.303483 214.288557c-34.069652 17.512438-42.985075 53.174129-59.542289 82.78607a27.064677 27.064677 0 0 1 -24.199005-13.691542 159.20398 159.20398 0 0 0 62.089552-90.427861 31.840796 31.840796 0 0 1 21.651742 21.333333z"
          fill="#38b0f7"/>
    <path d="m748.577114 748.577114a292.616915 292.616915 0 0 1 -84.378109-16.238806c39.164179-24.835821 63.363184-20.378109 84.378109 16.238806z"
          fill="#137cfe"/>
    <path d="m604.975124 99.9801a113.671642 113.671642 0 0 0 -76.099502 14.965174l-125.134328-31.840796 31.840796-31.840796c5.412935 14.00995 16.875622 15.920398 30.248756 18.149253 49.034826 8.915423 97.432836 19.741294 146.467661 29.930349z"
          fill="#24bdfe"/>
</svg>