<svg height="40" viewBox="0 0 1024 1024" width="40" xmlns="http://www.w3.org/2000/svg"><path d="m0 686.081014a332.799002 332.799002 0 1 0 665.598003 0 332.799002 332.799002 0 1 0 -665.598003 0z" fill="#dfdff2"/><g fill="#434260"><path d="m883.19735 1024h-639.99808a141.055577 141.055577 0 0 1 -140.799577-140.799578v-742.397772a141.055577 141.055577 0 0 1 140.799577-140.799578h516.350451a89.087733 89.087733 0 0 1 63.231811 25.599923l189.695431 189.695431a38.399885 38.399885 0 0 1 11.519965 27.903916v639.99808a141.055577 141.055577 0 0 1 -140.799578 140.799578zm-639.99808-947.197158a63.999808 63.999808 0 0 0 -63.999808 63.999808v742.397772a63.999808 63.999808 0 0 0 63.999808 63.999808h639.99808a63.999808 63.999808 0 0 0 63.999808-63.999808v-624.126127l-179.199462-179.199463a12.799962 12.799962 0 0 0 -8.447975-3.07199z"/><path d="m354.558936 399.105875h40.959877l41.215877 112.895661c5.119985 15.103955 9.727971 30.463909 15.103954 45.823863h1.535996c5.119985-15.359954 9.471972-30.719908 14.847955-45.823863l40.959877-114.175657h41.215877v226.047321h-33.5359v-111.871664c0-20.223939 2.815992-49.407852 4.607987-69.88779l-18.175946 51.199846-39.423882 107.775677h-22.015934l-39.679881-107.775677-17.919946-51.199846c1.535995 20.479939 4.351987 49.663851 4.351987 69.88779v111.871664h-34.047898zm254.975235 0h58.623825c69.375792 0 109.055673 38.399885 109.055672 112.127663s-39.679881 113.919658-107.263678 113.919659h-60.415819zm56.063832 196.60741c48.383855 0 74.495777-28.671914 74.495777-84.735746s-25.599923-83.19975-74.495777-83.19975h-20.479938v167.935496z"/></g></svg>