<svg height="40" viewBox="0 0 1683 1024" width="40" xmlns="http://www.w3.org/2000/svg"><path d="m398.1312 267.320889h316.928v25.247289h-287.869156v189.997511h270.700089v25.247289h-270.700089v208.600178h291.168712v25.247288h-320.227556zm345.315556 0h33.678222l149.219555 208.600178 152.519111-208.600178 207.451023-264.965689-340.821334 495.490844 175.627378 243.8144h-34.998044l-159.778134-221.889422-160.438044 221.889422h-34.338133l176.9472-243.8144-165.057423-230.525155zm390.223644 25.247289v-25.247289h361.153422v25.247289h-166.377244v449.080889h-29.058845v-449.080889h-165.705955zm-1132.020622-25.247289h36.317866l500.747378 750.967467-206.939022-276.627912-299.758933-438.465422-1.319823 438.465422h-29.047466zm1490.261333 441.469155c-5.950578 0-10.399289-4.608-10.399289-10.558577 0-5.961956 4.448711-10.569956 10.387911-10.569956 6.007467 0 10.387911 4.608 10.387911 10.569956 0 5.950578-4.380444 10.558578-10.387911 10.558577zm28.535467-27.795911h15.553422c.216178 8.442311 6.371556 14.108444 15.405511 14.108445 10.103467 0 15.826489-6.087111 15.826489-17.5104v-72.317156h15.826489v72.385422c0 20.571022-11.867022 32.415289-31.516445 32.415289-18.432 0-31.084089-11.491556-31.084088-29.0816zm83.308089-.910222h15.689955c1.342578 9.705244 10.808889 15.872 24.450845 15.872 12.708978 0 22.038756-6.599111 22.038755-15.6672 0-7.793778-5.927822-12.481422-19.433244-15.6672l-13.141334-3.185778c-18.432-4.323556-26.851556-13.266489-26.851555-28.296533 0-18.2272 14.836622-30.355911 37.091555-30.355911 20.707556 0 35.84 12.128711 36.750223 29.354667h-15.405511c-1.479111-9.4208-9.671111-15.314489-21.549512-15.314489-12.515556 0-20.844089 6.030222-20.844088 15.246222 0 7.304533 5.370311 11.491556 18.659555 14.609067l11.229867 2.7648c20.912356 4.892444 29.536711 13.403022 29.536711 28.785777 0 19.569778-15.132444 31.8464-39.287467 31.8464-22.607644 0-37.808356-11.707733-38.934755-30.0032z"/></svg>