<svg height="25" viewBox="0 0 1024 1024" width="25" xmlns="http://www.w3.org/2000/svg"><path d="m958.539 807.819-280.946-285.503c-13.257-13.257-34.63-13.257-47.888 0l-20.464 18.807-48.467-49.047s77.549-85.17 81.359-83.431c82.685 36.868 141.261 20.298 208.534-45.153 59.238-59.238 71.748-144.74 40.928-211.932l-115.99 113.92c-11.683 11.683-30.655 11.683-42.254 0l-49.461-49.378c-11.683-11.683-11.683-30.655 0-42.337l110.853-110.108c-63.712-20.214-139.106-2.817-192.876 50.954-87.822 84.176-74.316 144.326-43.91 211.351 1.243 2.817-77.795 87.242-77.795 87.242h-5.22l-253.936-255.759s11.103-33.472-7.954-52.61l-41.093-39.27-77.795 77.795 41.093 39.27s31.235 19.056 53.771 8.119l247.806 250.788 4.971 8.7-324.442 295.61-42.337 42.42c-37.117 37.034-37.117 97.102 0 134.134 37.034 36.951 97.018 36.951 134.134 0l42.337-42.502s190.474-246.148 273.738-345.405l44.739 45.071-24.524 28.086c-13.257 13.09-13.257 34.548 0 47.805l279.206 281.774c13.173 13.257 34.63 13.257 47.805 0l86.082-81.609c13.257-13.173 13.257-34.715 0-47.805zm-773.823 43.91c-11.599 11.683-30.489 11.683-42.172 0-11.683-11.599-11.683-30.489 0-42.254 11.683-11.683 30.571-11.683 42.172 0 11.683 11.764 11.683 30.737 0 42.254zm677.799 43.247c-5.633 5.551-14.747 5.551-20.298 0l-250.208-262.72c-5.551-5.551-5.551-14.747 0-20.298 5.633-5.551 14.747-5.551 20.298 0l250.292 262.72c5.551 5.551 5.551 14.747-.083 20.298zm51.947-51.864c-5.551 5.551-14.665 5.551-20.298 0l-250.208-262.802c-5.633-5.633-5.633-14.665 0-20.298 5.551-5.551 14.665-5.551 20.214 0l250.292 262.72c5.633 5.633 5.633 14.665 0 20.382z" fill="#425c7e"/></svg>