<svg height="40" viewBox="0 0 1024 1024" width="40" xmlns="http://www.w3.org/2000/svg"><path d="m967.253333 469.333333-413.866666-413.866666c-23.893333-23.893333-62.293333-23.893333-86.186667 0l-96 96.426666 72.533333 72.533334c43.946667-21.333333 97.28-2.986667 118.613334 40.96 11.946667 24.32 11.946667 52.906667 0 77.653333l118.613333 118.613333c44.373333-21.333333 97.28-2.56 118.186667 41.813334 21.333333 44.373333 2.56 97.28-41.813334 118.186666-44.373333 21.333333-97.28 2.56-118.186666-41.813333-11.52-24.32-11.52-52.48 0-76.373333l-119.04-119.04-8.533334 3.413333v247.04c46.08 16.213333 70.4 66.986667 54.186667 113.493333-16.213333 46.08-66.986667 70.4-113.493333 54.186667-46.08-16.213333-70.4-66.986667-54.186667-113.493333 8.96-25.173333 28.586667-45.226667 54.186667-54.186667v-246.613333c-46.08-16.213333-70.4-66.986667-53.76-113.493334.853333-2.986667 2.133333-5.973333 3.413333-8.533333l-72.533333-72.533333-273.92 273.92c-23.893333 23.893333-23.893333 62.293333 0 86.186666l413.866666 413.866667c23.893333 23.893333 62.293333 23.893333 86.186667 0l411.733333-411.733333c23.893333-23.893333 23.893333-62.293333 0-86.186667z" fill="#ed2e1b"/></svg>