<svg height="60" viewBox="0 0 1372 1024" width="60" xmlns="http://www.w3.org/2000/svg"><path d="m1371.014936 897.740296h-1371.014936v.686029h1371.014936zm-1028.756808 41.489655h-90.813162v.686029h90.813162zm-119.550739 0h-52.612414v.686029h52.612414zm354.626838 10.08867h-52.617459v.686029h52.617459zm274.371468 15.304512h-118.430897v.680985h118.430897zm-142.83539 0h-17.357556v.680985h17.357556zm534.230385-15.304512h-256.87267v.686029h256.87267zm-593.239015-173.873183h-529.458443a15.647527 15.647527 0 0 1 -15.632395-15.657615v-744.266404a15.657616 15.657616 0 0 1 15.637439-15.521419h529.453399a15.66266 15.66266 0 0 1 15.657616 15.657616v744.130207a15.652571 15.652571 0 0 1 -15.657616 15.657615zm-529.458443-774.895605a14.971586 14.971586 0 0 0 -14.946365 14.971586v744.266404a14.966542 14.966542 0 0 0 14.946365 14.971586h529.458443a14.981675 14.981675 0 0 0 14.971586-14.971586v-744.266404a14.991764 14.991764 0 0 0 -14.971586-14.971586zm1122.586482 774.895605h-529.483665a15.69797 15.69797 0 0 1 -11.067271-4.590344 15.69797 15.69797 0 0 1 -4.590345-11.067271v-744.266404a15.672749 15.672749 0 0 1 15.657616-15.521419h529.483665a15.642483 15.642483 0 0 1 15.602128 15.521419v744.266404a15.637438 15.637438 0 0 1 -15.602128 15.657615zm-529.483665-774.895605a14.991764 14.991764 0 0 0 -14.971586 14.971586v744.266404a14.991764 14.991764 0 0 0 14.971586 14.971586h529.483665a14.981675 14.981675 0 0 0 14.971586-14.971586v-744.266404a14.991764 14.991764 0 0 0 -14.971586-14.971586z" fill="#e6e6e6"/><path d="m733.21931 663.51669h-60.29998v239.187231h60.29998z" fill="#e0e0e0"/><path d="m721.758581 902.703921h11.460729v-32.571271h-23.47129z" fill="#fafafa"/><path d="m468.997044 663.51669h-60.294936v239.187231h60.294936z" fill="#e0e0e0"/><path d="m733.21931 663.51669h-274.205005v219.196532h274.205005z" fill="#fafafa"/><path d="m723.266837 674.291389v57.994719h-254.375724v-57.994719h254.295015m1.069399-1.069399h-256.353103v60.108296h256.433812v-60.108296z" fill="#e0e0e0"/><path d="m470.449813 902.703921h-11.435508v-32.576315h23.446069z" fill="#fafafa"/><path d="m590.061084 703.276138a6.068335 6.068335 0 0 0 3.737852 5.599212 6.038069 6.038069 0 0 0 8.262621-4.418838 6.02798 6.02798 0 0 0 -2.577656-6.219665 6.053202 6.053202 0 0 0 -9.422817 5.039291z" fill="#e6e6e6"/><path d="m723.266837 744.104985v57.994719h-254.375724v-57.994719h254.295015m1.069399-1.039133h-256.353103v60.103251h256.433812v-60.078029z" fill="#e0e0e0"/><path d="m590.061084 773.256197a6.053202 6.053202 0 0 0 10.340886 4.28264 6.048158 6.048158 0 0 0 -.918069-9.321931 6.043113 6.043113 0 0 0 -7.652256.751606 6.063291 6.063291 0 0 0 -1.770561 4.287685z" fill="#e6e6e6"/><path d="m723.266837 813.943803v58.024985h-254.375724v-58.024985h254.295015m1.069399-1.069399h-256.353103v60.133517h256.433812v-60.133517z" fill="#e0e0e0"/><path d="m590.061084 842.958818a6.053202 6.053202 0 0 0 10.350975 4.24733 6.078424 6.078424 0 0 0 1.301439-6.603035 6.073379 6.073379 0 0 0 -5.594168-3.732808 6.038069 6.038069 0 0 0 -5.604256 3.75803 5.95736 5.95736 0 0 0 -.45399 2.330483z" fill="#e6e6e6"/><path d="m432.173399 524.605793h-60.294936v378.128394h60.294936z" fill="#e0e0e0"/><path d="m420.71267 902.703921h11.460729v-32.576315h-23.446069z" fill="#fafafa"/><path d="m206.827823 524.605793h-60.289892v378.128394h60.294936v-378.128394z" fill="#e0e0e0"/><path d="m432.173399 524.605793h-235.348493v358.137695h235.348493z" fill="#fafafa"/><path d="m422.024197 534.694463v81.08264h-215.055133v-81.08264zm1.261084-1.230818h-217.632788v83.493833h217.5773v-83.468611zm-1.261084 92.215488v215.055133h-102.440355v-215.055133zm1.261084-1.261084h-104.937301v217.577301h104.937301zm-113.875862 1.261084v215.055133h-102.445399v-215.055133zm1.235862-1.261084h-104.992788v217.577301h104.9373v-217.577301h.050443z" fill="#e0e0e0"/><path d="m208.280591 902.703921h-11.45064v-32.571271h23.47129l-12.010561 32.571271z" fill="#fafafa"/><path d="m308.425773 575.281182a6.10869 6.10869 0 0 0 3.732808 5.639567 6.053202 6.053202 0 0 0 6.648434-1.301439 6.063291 6.063291 0 0 0 1.331704-6.638344 6.10869 6.10869 0 0 0 -5.629478-3.763074 6.093557 6.093557 0 0 0 -6.083468 6.06329zm21.715862 152.813084a6.093557 6.093557 0 1 0 12.187114 0 6.093557 6.093557 0 0 0 -12.187114 0zm-43.406502 0a6.068335 6.068335 0 0 0 10.350975 4.24733 6.093557 6.093557 0 0 0 1.301439-6.603034 6.068335 6.068335 0 0 0 -9.886897-1.947114 6.053202 6.053202 0 0 0 -1.765517 4.302818z" fill="#e6e6e6"/><path d="m279.879882 419.174148h-25.418404c2.345616 12.333399 3.818562 24.808039 4.413793 37.348256 0 13.710502-19.355113 68.083389 8.22731 68.083389 27.587468 0 8.222266-54.23669 8.222266-68.083389.645675-12.540217 2.169064-25.019901 4.555035-37.348256z" fill="#e0e0e0"/><path d="m183.169892 474.782897v16.45462a33.413675 33.413675 0 0 0 33.287566 33.287567h16.449576a33.413675 33.413675 0 0 0 33.292611-33.292611v-16.444532h-83.029753z" fill="#f5f5f5"/><path d="m536.530601 628.640158c0 19.193695 21.473734 34.876532 47.714365 34.876532h23.688197c26.240631 0 47.714365-15.682837 47.714364-34.876532zm694.045005 15.88461c-14.366266 11.738167-34.220768 33.206857-52.37533 63.422424-12.116493 20.126897-19.410601 41.131507-22.618798 69.046857 0-31.532138.191685-65.399803.30266-97.370798 3.647054-8.22731 11.980296-27.199054 17.957832-42.17064 19.935212-49.98936 27.421005-62.297537 45.328395-105.406424 23.935369-57.581084 48.450837-125.750227 41.429123-120.292256-14.310778 11.107626-69.152788 113.795153-75.074838 128.494345a411.294897 411.294897 0 0 0 -29.590069 122.980887c0-30.165123.221951-57.586128.332926-78.863133.383369-69.399961 1.563744-91.806897 2.138798-98.717636 2.219507-3.505813 4.822384-7.591724 6.360907-9.78601 12.888276-18.643862 17.851901-34.493163 29.968394-62.297537 17.22136-39.345813 32.026483-109.245163 27.693399-105.729261-18.038542 14.694148-32.243389 46.226286-50.942739 86.454857-18.704394 40.223527-13.357399 63.33667-17.059941 97.668414-.766739 6.744276-1.367015 32.192946-1.805872 67.427626-4.827429-37.565163-13.932453-62.297537-30.518226-84.785183-20.404335-27.668177-40.142818-46.337261-54.625104-56.103093-14.477241-9.760788 25.009813 58.186404 43.875626 87.746207 16.807724 26.432315 32.298877 49.711921 41.131507 72.663645a17863.755665 17863.755665 0 0 0 -.686029 164.520985c-4.333084-25.610089-11.410286-53.222778-20.843193-74.580492-11.349754-25.665576-28.78802-65.041655-42.690206-78.39401-3.319172-3.208197 14.532729 73.374897 25.993458 93.723744 11.460729 20.343803 19.879724 39.562719 27.093123 51.109202 1.669675 2.744118 7.263842 13.079961 10.446818 19.057497 0 68.744197.383369 129.397281.983645 150.043744h2.961025c-.191685-5.321773-.242128-40.309281-.161419-86.591054 7.157911-25.120788 23.496512-53.802877 36.990108-79.957754 14.694148-28.328985 52.370286-104.967567 38.00402-93.315153z" fill="#e0e0e0"/><path d="m1197.20733 946.725833h-85.935291l-6.497103-84.23535h98.929497z" fill="#f0f0f0"/><path d="m1210.090562 872.306759h-111.737064l-3.182976-28.434917h118.128237z" fill="#f5f5f5"/><path d="m340.72465 56.214069h-153.690798v168.763271h153.690798z" fill="#e0e0e0"/><path d="m357.370956 56.214069h-158.765399v168.763271h158.765399z" fill="#f5f5f5"/><path d="m344.069044 211.685517v-142.174581h-132.161576v142.174581z" fill="#fff"/><path d="m312.01734 177.192355v-73.243744h-68.088434v73.243744z" fill="#f5f5f5"/><path d="m1116.336552 35.310345h-142.779902v156.78802h142.779902z" fill="#e0e0e0"/><path d="m1131.802483 35.310345h-147.466089v156.78802h147.466089z" fill="#f5f5f5"/><path d="m1119.464039 179.729655v-132.045556h-122.76398v132.045556z" fill="#fff"/><path d="m1058.069438 152.011034a38.30668 38.30668 0 1 0 0-76.613359 38.30668 38.30668 0 0 0 0 76.613359z" fill="#f5f5f5"/><path d="m500.392985 156.843507h-114.012059v125.200394h114.012059z" fill="#e0e0e0"/><path d="m512.731429 156.843507h-117.770089v125.200394h117.770089z" fill="#f5f5f5"/><path d="m502.864709 272.177182v-105.461911h-98.031606v105.461911h98.036651z" fill="#fff"/><path d="m453.864039 192.764217-26.820729 46.453281h53.636414zm231.645951 828.809458c293.625695 0 531.652729-13.897143 531.652729-31.042838 0-17.14065-238.027034-31.037793-531.652729-31.037793s-531.652729 13.897143-531.652729 31.037793c0 17.145695 238.027034 31.042837 531.652729 31.042838z" fill="#f5f5f5"/><path d="m762.809379 377.886266-13.049694-52.420729 18.694305-2.522168zm12.444375 13.150581 41.41399-34.705024-13.670148-13.049695zm.363192-22.07401 4.479369-63.064275 23.829439 4.615566zm243.136946-116.302187h-26.482759a4.36335 4.36335 0 0 1 0-8.706522h26.482759a4.373438 4.373438 0 0 1 4.080867 4.353261 4.368394 4.368394 0 0 1 -4.080867 4.353261z" fill="#006dcc"/><path d="m1018.758936 252.66065h-26.482759a4.36335 4.36335 0 0 1 0-8.706522h26.482759a4.373438 4.373438 0 0 1 4.075823 4.353261 4.36335 4.36335 0 0 1 -4.075823 4.353261z" fill="#fff" opacity=".7"/><path d="m1115.887606 341.915113-101.522286 186.827035a4.958581 4.958581 0 0 1 -6.724098 1.982423l-172.743252-93.925517a4.963626 4.963626 0 0 1 -1.982423-6.724098l132.035468-242.950306a4.973714 4.973714 0 0 1 6.724098-1.982423l116.312276 63.245872 27.900217 93.52197z" fill="#006dcc"/><path d="m1115.887606 341.915113-101.522286 186.827035a4.958581 4.958581 0 0 1 -6.724098 1.982423l-172.743252-93.925517a4.963626 4.963626 0 0 1 -1.982423-6.724098l132.035468-242.950306a4.973714 4.973714 0 0 1 6.724098-1.982423l116.312276 63.245872 27.900217 93.52197z" fill="#fff" opacity=".2"/><path d="m1058.891665 383.863803-129.008867-69.611823-4.317951 8.000316 129.013912 69.611822zm-17.619862 32.672158-129.008867-69.611823-4.317951 8.000315 129.008867 69.611823zm-17.645084 32.692335-129.008867-69.611823-4.317951 8.000315 129.008867 69.611823zm64.607843-200.930996-30.609025 56.340178a4.963626 4.963626 0 0 0 1.982424 6.724098l56.173714 30.53336z" fill="#006dcc"/><path d="m1088.234562 248.2973-30.609025 56.340178a4.963626 4.963626 0 0 0 1.982424 6.724098l56.173714 30.53336z" fill="#fff" opacity=".7"/><path d="m1142.350187 335.624828-101.502108 186.827034a4.958581 4.958581 0 0 1 -6.724099 1.982424l-172.743251-93.849853a4.958581 4.958581 0 0 1 -1.997557-6.729142l132.030424-243.000749a4.978759 4.978759 0 0 1 6.724099-2.002601l116.408118 63.245872 27.804374 93.52197z" fill="#006dcc"/><path d="m1142.355232 335.624828-101.502109 186.827034a4.96867 4.96867 0 0 1 -6.724098 1.982424l-172.743252-93.849853a4.958581 4.958581 0 0 1 -1.997556-6.724098l132.030423-243.005793a4.973714 4.973714 0 0 1 6.724099-1.997557l116.408118 63.245872z" fill="#fff" opacity=".5"/><path d="m1081.959409 375.702069-122.128394-65.884059a3.863961 3.863961 0 0 0 -4.317951.403547 3.874049 3.874049 0 0 0 -.968512 1.17533l-.600276 1.109753a3.833695 3.833695 0 0 0 -.312749 2.981202 3.924493 3.924493 0 0 0 1.891626 2.325439l122.128394 65.879015a3.90936 3.90936 0 0 0 5.291507-1.578877l.600276-1.124887a3.894227 3.894227 0 0 0 -1.583921-5.291507zm-17.660217 32.697379-122.133438-65.899192a3.904315 3.904315 0 0 0 -5.291508 1.583921l-.60532 1.119843a3.904315 3.904315 0 0 0 1.583921 5.296551l122.133439 65.894148a3.904315 3.904315 0 0 0 5.291507-1.578877l.60532-1.119842a3.904315 3.904315 0 0 0 -1.583921-5.296552zm-17.619862 32.707468-122.133438-65.899192a3.904315 3.904315 0 0 0 -5.291508 1.583921l-.60532 1.119843a3.904315 3.904315 0 0 0 1.583921 5.296551l122.133439 65.894148a3.904315 3.904315 0 0 0 5.291507-1.583921l.60532-1.114798a3.90936 3.90936 0 0 0 -1.583921-5.296552zm68.032946-199.079724-30.619113 56.345222a4.958581 4.958581 0 0 0 -.398503 3.768118 4.898049 4.898049 0 0 0 2.396059 2.935803l56.173714 30.528315-27.552157-93.572414z" fill="#006dcc"/><path d="m1114.712276 242.027192-30.619113 56.345222a4.958581 4.958581 0 0 0 -.398503 3.768118 4.898049 4.898049 0 0 0 2.396059 2.935803l56.173714 30.528315-27.552157-93.572414z" fill="#fff" opacity=".7"/><path d="m1107.695606 156.374384 8.540059 37.933399c-32.34932 8.862897-61.369379 40.889379-82.252926 71.125123a174.781163 174.781163 0 0 0 -20.44469 40.511055s65.243429-59.008631 101.209537-62.464l-1.725162 62.68595s37.307901-72.698956 109.734463-99.232157c.070621-.020177-60.668217-43.709163-115.061281-50.55937z" fill="#006dcc"/><path d="m902.492059 949.137025 34.029084-28.207922-85.814227-81.42061-36.606739 31.259743z" fill="#cb7a63"/><path d="m964.113655 910.048473a18.240315 18.240315 0 0 0 -11.788611.575054c-2.290128.665852-4.771941 1.47799-6.779586 2.244729-2.002601.761695-3.198108 1.240906-4.484414 1.765517l-3.773162 1.669675a1.018956 1.018956 0 0 0 -.559921.363192 1.039133 1.039133 0 0 0 -.201774.640631.645675.645675 0 0 0 -.050443.237084c0 .080709.020177.161419.050443.237083a1.145064 1.145064 0 0 0 .665852.479212c4.832473 1.271172 9.770877 2.113576 14.749636 2.527212 2.446502.317793 4.93336.121064 7.304197-.57001h.332926c1.36197-.45399 2.673498-1.044177 3.914404-1.765517a6.088512 6.088512 0 0 0 2.239685-5.301596 3.712631 3.712631 0 0 0 -1.619232-3.102266zm-.479212 3.152709a3.621833 3.621833 0 0 1 -1.47799 3.576434c-1.145064.822227-2.471724 1.346837-3.869005 1.528433-1.916847.348059-3.874049.459034-5.821162.332926a64.607842 64.607842 0 0 1 -9.069715-1.145064l-2.239684-.428768a61.540887 61.540887 0 0 1 12.74199-4.439015c2.38597-.60532 4.807251-1.049222 7.253754-1.336749a3.652099 3.652099 0 0 1 2.002601.479212 1.336749 1.336749 0 0 1 .479211 1.432591z" fill="#006dcc"/><path d="m948.49135 892.196571a8.282798 8.282798 0 0 0 -5.397439 3.531035 11.349754 11.349754 0 0 0 -.998778 1.815961 34.074483 34.074483 0 0 0 -1.049222 17.181004.625498.625498 0 0 1 0 .237084 1.079488 1.079488 0 0 0 .711252.812138.786916.786916 0 0 0 .670896 0 .494345.494345 0 0 0 .242128-.065576.504433.504433 0 0 0 .186641-.171508c.948335-.802049 1.826049-1.679764 2.623054-2.623054 1.5133-1.795783 2.870227-3.707586 4.060689-5.730364 2.95598-4.771941 5.059468-10.260177 3.768119-13.074917-.474167-1.240906-1.715074-2.481813-4.81734-1.911803zm2.860138 2.865183c.812138 1.815961-.812138 6.10869-3.198109 10.31062-1.452768 2.562522-3.177931 4.963626-5.15531 7.157912a32.384631 32.384631 0 0 1 .670897-12.984119 9.281576 9.281576 0 0 1 1.240906-2.577655c.791961-1.160197 1.952158-2.017734 3.293951-2.431369h.665852c2.007645-.575054 2.38597.191685 2.723941.428768z" fill="#006dcc"/><path d="m932.077084 918.931547-42.952513 21.569576a3.783251 3.783251 0 0 0 -2.007645 4.489458l12.600749 39.991488a7.531192 7.531192 0 0 0 9.543882 4.776985l.716295-.33797c73.263921-25.721064 95.741478-43.956335 103.378601-48.107823 21.811704-11.884453 9.543882-27.34534 1.432591-25.438581-36.56134 8.736788-48.824118 6.492059-64.622975 2.436414a37.85269 37.85269 0 0 0 -18.088985.620453z" fill="#263238"/><path d="m850.752315 839.56398 43.431724 38.513498-36.652138 31.214345-43.431724-38.518542z" opacity=".2"/><path d="m837.188099 909.004296 54.64528-50.402996-12.025694-21.095408-63.190385 54.266955z" fill="#006dcc"/><path d="m837.188099 909.004296 54.64528-50.402996-12.025694-21.095408-63.190385 54.266955z" fill="#fff" opacity=".5"/><path d="m871.227271 844.905931-7.349596 6.300374-10.931074 9.543882-6.345773 5.397439-19.092808 16.510108-3.672276 3.102266s-77.844177-43.860493-121.180059-81.133084c-29.640512-25.630266-32.31401-35.224591-35.461675-32.83862-41.857892 31.880197-165.756847 141.942542-235.963902 199.165477-2.290128.287527-4.771941.479212-6.875428.670897-37.509675 2.718897-66.817261-1.387192-89.915271-10.118936 0-30.45265 25.816906-101.56264 27.965793-108.438069 0 0 103.615685-102.949833 271.521419-189.999921 1.644453-.83736 3.334305-1.588966 5.059468-2.244729 2.148887-1.003823 4.348217-1.891626 6.587901-2.673498a84.628808 84.628808 0 0 1 25.726109-5.821162c7.425261-.30266 14.835389.867626 21.811704 3.435192 4.005202 1.422502 7.899429 3.142621 11.642325 5.15531 3.283862 1.694897 6.471882 3.576433 9.543882 5.629478 5.205754 3.293951 10.214778 6.971271 14.94132 10.598148 10.739389 8.302975 91.827074 112.776197 135.400039 160.984906 2.340571 2.239685 4.534857 4.625655 6.587902 6.774542z" fill="#006dcc"/><path d="m871.222227 844.905931-7.349596 6.300374-10.931074 9.543882-6.345774 5.397439-19.092808 16.510108-3.672275 3.102266s-77.844177-43.860493-121.18006-81.133084c-29.640512-25.630266-32.31401-35.224591-35.461674-32.83862-41.857892 31.880197-165.756847 141.942542-235.963902 199.165477-2.290128.287527-4.771941.479212-6.875429.670897-37.509675 2.718897-66.817261-1.387192-89.91527-10.118936 0-30.45265 25.816906-101.56264 27.965793-108.438069 0 0 103.615685-102.949833 271.521418-189.999921 1.644453-.83736 3.334305-1.588966 5.059468-2.244729 2.148887-1.003823 4.348217-1.891626 6.587902-2.673498a84.628808 84.628808 0 0 1 25.726108-5.821162c7.425261-.30266 14.835389.867626 21.811705 3.435192 4.005202 1.422502 7.899429 3.142621 11.642325 5.15531 3.283862 1.694897 6.471882 3.576433 9.548926 5.629478 5.200709 3.293951 10.209734 6.971271 14.936276 10.598148 10.739389 8.302975 91.827074 112.776197 135.400039 160.984906 2.340571 2.239685 4.534857 4.625655 6.587902 6.774542z" opacity=".1"/><path d="m318.307626 405.382936c6.587901 29.690956 13.458285 73.072236-6.966227 93.501793a665.246897 665.246897 0 0 0 90.68201 123.616473c44.71803-77.748335 2.335527-125.805714 2.335527-125.805714-33.408631-7.162956-32.979862-20.671685-27.728709-43.96138l-58.322601-47.346128z" fill="#cb7a63"/><path d="m290.639448 502.511606a37.706404 37.706404 0 0 1 14.320867-19.854503c6.729143-5.109911 76.361143-5.871606 94.258444 0a45.530167 45.530167 0 0 1 25.246896 19.899902l-133.826207-.050443z" fill="#006dcc"/><path d="m611.201892 620.871882 17.942699-8.207133.90798 29.302542a55.265734 55.265734 0 0 1 -17.609773 10.356019 11.98534 11.98534 0 0 1 -15.037163-14.315822 25.665576 25.665576 0 0 1 13.796257-17.135606z" fill="#cb7a63"/><path d="m652.151803 620.917281-.953379 10.789832a7.616946 7.616946 0 0 1 -5.917005 6.824986l-15.370089 3.435192-.90798-29.302542 15.607172.237084a7.374818 7.374818 0 0 1 6.966227 4.534857c.378325.902936.575054 1.876493.575054 2.860138zm-269.120315 83.28197a154.457537 154.457537 0 0 0 92.634167 15.51133c38.185616-6.441616 105.002877-44.859271 133.972493-66.817261l-9.543882-14.315822c-14.320867 3.102266-132.635744 63.139941-208.951488 8.827586-14.315823-10.118936-70.116256-51.785143-89.824473-50.922562-32.021438 1.432591-29.257143 34.982463-15.51133 48.96536 15.8947 15.990542 75.125281 47.870739 97.224513 58.751369z" fill="#cb7a63"/><path d="m651.193379 631.707113a7.495882 7.495882 0 0 1 -5.871606 6.774542l-15.274246 3.485636a55.356532 55.356532 0 0 1 -17.609773 10.356019c-.90798.297616-1.856315.459034-2.814739.479212-29.020059 22.048788-95.453951 60.421044-133.927094 66.817261a154.689576 154.689576 0 0 1 -92.588768-15.51133c-22.094187-10.880631-81.420611-42.957557-97.506995-59.08934-13.745813-13.982897-16.510108-47.724453 15.51133-48.965359 19.713261-.862581 75.554049 40.803626 89.824473 50.922561 72.830108 51.785143 183.654148-.428768 206.323389-8.065891a9.09998 9.09998 0 0 1 0-1.049222c.832315-3.682365 2.461635-7.137734 4.776985-10.118936a25.236808 25.236808 0 0 1 8.827586-6.966227l17.801458-8.161734 15.51133.237084c.978601-.010089 1.952158.171507 2.860138.5347a7.465616 7.465616 0 0 1 4.06069 4.010246c.378325.902936.575054 1.876493.575054 2.855094v.665852z" opacity=".2"/><path d="m629.139547 612.664749-.136197.040354v-.040354z" opacity=".2"/><path d="m483.106049 550.473143c40.521143 89.299862-53.454818 114.829241-10.401418 261.261241l-204.27539 4.771941c1.336749-78.464631 29.257143-61.616552-7.54128-209.143172-3.102266-12.504906-8.257576-48.344906 5.059468-81.138128a59.422266 59.422266 0 0 1 26.487803-30.013793c15.082562-8.121379 81.516453-1.770562 111.827862.282482 32.838621-4.439015 72.830108 42.811271 78.842955 53.979429z" fill="#006dcc"/><path d="m483.106049 550.473143c40.521143 89.299862-53.454818 114.829241-10.401418 261.261241l-204.27539 4.771941c1.336749-78.464631 29.257143-61.616552-7.54128-209.143172-3.102266-12.504906-8.257576-48.344906 5.059468-81.138128a59.422266 59.422266 0 0 1 26.487803-30.013793c15.082562-8.121379 81.516453-1.770562 111.827862.282482 32.838621-4.439015 72.830108 42.811271 78.842955 53.979429z" fill="#fff" opacity=".5"/><path d="m444.052808 373.311054c-.57001 3.914404 1.003823 7.112512 3.435192 7.445439 2.436414.33797 4.776985-2.38597 5.488236-6.154089.716296-3.773163-1.049222-7.062069-3.480591-7.445438-2.436414-.383369-4.918227 2.431369-5.442837 6.154088z" fill="#263238"/><path d="m448.411113 367.202365 9.543882-1.286306s-5.821163 6.391172-9.543882 1.286306z" fill="#263238"/><path d="m444.673261 378.466365a98.979941 98.979941 0 0 0 9.927251 25.816906 16.273025 16.273025 0 0 1 -13.740768.575054z" fill="#a02724"/><path d="m457.571626 347.060335a2.148887 2.148887 0 0 0 1.387192-1.715074 2.290128 2.290128 0 0 0 -1.866404-2.577655 22.058877 22.058877 0 0 0 -19.370247 6.103645 2.244729 2.244729 0 1 0 3.006424 3.298995l.282483-.332926a17.806502 17.806502 0 0 1 15.415488-4.776985c.378325.100887.771783.100887 1.145064 0z" fill="#263238"/><path d="m320.466601 342.384236c-3.869005 46.53399-6.497103 66.151409 13.312 93.209222 29.877596 40.667429 87.963113 35.320433 105.527488-9.115113 15.985498-40.041931 19.612374-109.391448-22.815527-134.254976a63.669596 63.669596 0 0 0 -87.292217 22.477557 62.993655 62.993655 0 0 0 -8.736788 27.68331z" fill="#cb7a63"/><g fill="#263238"><path d="m440.400709 423.663606a26.296118 26.296118 0 0 1 -7.732965-11.410286 1.099665 1.099665 0 0 1 .670896-1.190463.953379.953379 0 0 1 1.145064.665852c1.402325 3.798384 3.67732 7.213399 6.633301 9.977695zm-153.125832-141.750857c-17.705616 23.864749-25.776552 30.260966-3.818562 94.263487 8.827586 25.726108 34.457852 59.800591 46.912316 62.902858 22.34136 5.634522 44.057222-10.023094 60.809458-25.816907a170.43799 170.43799 0 0 0 37.706404-46.87196c8.968828-18.088985 12.262778-39.799803 4.77194-58.564729-8.020493-20.379113-36.319212-38.558897-57.510463-42.952513-24.818128-5.346995-74.121458-2.95598-88.871093 17.039764z"/><path d="m426.594365 370.355074s5.584079 9.543882-1.483035 16.747192v-12.74199l1.483035-4.010246z"/><path d="m426.599409 370.355074s2.053044 14.699192-10.260177 20.187428l6.587901-15.8493zm-82.182306 63.331626s-13.554128 6.154089-11.60197 19.471133l9.886897-14.078739 1.715073-5.397439z"/><path d="m344.93667 434.019626s-10.305576 10.69399-3.531035 22.386758l3.959803-16.757281zm100.089695-82.903646a88.497813 88.497813 0 0 0 13.266601-15.990542 29.973438 29.973438 0 0 0 4.77194-19.849458 30.634246 30.634246 0 0 0 -15.844256-20.66664 88.765163 88.765163 0 0 0 -25.393182-8.545104 17.614818 17.614818 0 0 0 -12.883232.38337 11.980296 11.980296 0 0 0 -4.77194 11.072315c.45399 4.237241 1.614187 8.363507 3.430147 12.217379a251.793025 251.793025 0 0 1 12.797478 47.729498c1.47799 8.207133.378325 13.695369 8.49466 10.497261 5.009025-1.86136 12.025695-12.504906 16.131784-16.848079z"/></g><path d="m380.771626 374.123192a40.707783 40.707783 0 0 0 10.547704 29.257143c9.543882 10.502305 22.048788 3.631921 25.584867-9.543882 3.193064-11.743212 2.002601-31.355586-10.744433-36.990108-12.74199-5.629478-24.717241 4.151488-25.388138 17.276847zm541.327763 596.447212 36.848867-35.890443-71.352118-89.678188-44.531389 26.296119z" fill="#cb7a63"/><path d="m996.558818 923.607645c-4.055645-1.432591-12.459507 3.152709-18.85068 7.208355-1.624276.998778-3.056867 2.002601-4.297773 2.860138l-.620454.479212c-1.432591 1.003823-2.481813 1.765517-2.865182 2.098443a1.044177 1.044177 0 0 0 -.57001 1.195507 1.17533 1.17533 0 0 0 1.094621.857537 87.065222 87.065222 0 0 0 13.175803-.428768l2.910581-.332926a18.285714 18.285714 0 0 0 8.827586-3.056867c.963468-.585143 1.86136-1.276217 2.673498-2.053044a6.401261 6.401261 0 0 0 1.195507-6.058247 4.176709 4.176709 0 0 0 -2.673497-2.76934zm.287527 3.435192a4.237241 4.237241 0 0 1 -.812138 4.106089 13.549084 13.549084 0 0 1 -7.253754 3.626877c-3.228374.741517-6.522325 1.170286-9.831409 1.29135h-4.776985l1.624276-1.195508c.358148-.30266.741517-.575054 1.145064-.812138a62.070542 62.070542 0 0 1 16.752236-8.353418 4.045557 4.045557 0 0 1 2.24473 0 1.528433 1.528433 0 0 1 .90798 1.336748z" fill="#006dcc"/><path d="m883.878463 839.508493 33.554916 42.957556-45.388926 25.342739-34.079527-41.857891z" opacity=".2"/><path d="m266.567882 800.994995-4.771941 18.568197c-.716296 1.432591 1.049222 2.814739 3.389793 2.76934l210.333635-4.776985c1.866404 0 3.33935-.998778 3.435193-2.194286l-5.246109-19.425734c0-1.240906-1.528433-2.290128-3.531034-2.239685l-200.461872 5.917005a3.818562 3.818562 0 0 0 -3.147665 1.382148z" fill="#263238"/><g fill="#006dcc"><path d="m453.758108 819.563192-5.538679.620453c-1.094621 0-2.002601-.332926-2.002601-1.049221v-23.864749c0-.716296.90798-1.382148 1.957202-1.47799l5.533635-.670897c1.099665 0 2.007645.383369 2.007645 1.099665v23.864749c0 .716296-.857537 1.382148-1.957202 1.47799zm-75.306876 1.049222-5.53868.57001c-1.049222 0-1.957202-.332926-1.957202-1.049222v-23.864749c0-.665852.90798-1.336749 2.002601-1.47799l5.488236-.620453c1.099665 0 2.007645.332926 2.007646 1.049222v23.864748c0 .761695-.90798 1.528433-2.002601 1.528434z"/><path d="m378.451232 820.612414-5.53868.57001c-1.049222 0-1.957202-.332926-1.957202-1.049222v-23.864749c0-.665852.90798-1.336749 2.002601-1.47799l5.488236-.620453c1.099665 0 2.007645.332926 2.007646 1.049222v23.864748c0 .761695-.90798 1.528433-2.002601 1.528434z"/><path d="m912.076296 858.787941-9.306798 5.251153-16.035941 9.069714-14.320867 8.065892-14.744591 8.302975-5.679922 3.198108-3.531034-2.623054a48.037202 48.037202 0 0 1 -3.011468-2.194286c-3.531034-2.628099-8.398818-6.254975-14.315823-10.789832-29.640512-23.481379-82.474877-69.586601-98.22329-111.540335-10.164335 12.126581-22.336315 27.350384-36.273813 44.14802-60.037675 72.406384-153.201498 174.589478-265.266444 187.906522l-6.875428.716295c-37.464276 3.198108-66.817261-.524611-89.965714-8.973872-58.176315-21.332493-74.403941-72.451783-70.444138-115.928906.383369-20.379113 4.343172-56.652926 4.343172-56.652926h212.290837c29.877596-36.319212 89.920315-93.214266 151.24934-128.862581 1.432591-.90798 2.910581-1.770562 4.388572-2.532257 1.483034-.761695 3.67732-2.098443 5.488236-3.102266a247.323744 247.323744 0 0 1 58.852256-23.864748 152.217852 152.217852 0 0 1 12.454463-2.481813 115.101635 115.101635 0 0 1 12.696592-1.190463c29.065458-1.29135 54.312355 9.543882 71.589202 38.513497l111.444492 160.793222zm-114.556848-220.593813-234.536354 9.690168 6.875428-149.241695 234.531311-9.685123z"/></g><path d="m794.800552 649.93734-231.146562 9.548926a10.683901 10.683901 0 0 1 -8.252532-3.127488 10.628414 10.628414 0 0 1 -3.056867-8.282798l6.774542-148.288315a13.281734 13.281734 0 0 1 12.459507-12.409064l231.141518-9.543882a10.699034 10.699034 0 0 1 11.314443 11.405242l-6.824985 148.288315a13.170759 13.170759 0 0 1 -12.409064 12.409064z" fill="#263238"/><path d="m797.519448 638.194128-234.536354 9.690168 6.875428-149.241695 234.531311-9.685123z" fill="#f7f7f7"/><path d="m653.105182 484.08465-38.755625 173.247685 15.415487-.620453 38.231015-173.247685zm23.773951-.998778-38.755626 173.247685 30.593892-1.235862 38.231015-173.252729z" fill="#fff" opacity=".1"/><path d="m721.405478 651.803744 78.081261-2.19933c1.336749 9.069714-2.527212 12.459507-7.490838 12.600749l-24.964413.620453-16.701793.383369-25.917794.716296-160.793221 4.771941-1.286306-11.309399z" fill="#006dcc"/><path d="m721.410522 651.803744 78.081261-2.19933c1.336749 9.069714-2.527212 12.459507-7.490837 12.600749l-24.964414.620453-16.701793.383369-25.917793.716296-199.024237 6.108689a5.700099 5.700099 0 0 1 -5.392394-3.248551 5.780808 5.780808 0 0 1 5.014069-8.252532z" fill="#006dcc"/><path d="m721.410522 651.803744 78.081261-2.19933c1.336749 9.069714-2.527212 12.459507-7.490837 12.600749l-24.964414.620453-16.701793.383369-25.917793.716296-199.024237 6.108689a5.700099 5.700099 0 0 1 -5.392394-3.248551 5.780808 5.780808 0 0 1 5.014069-8.252532z" opacity=".2"/><path d="m799.506916 649.604414.474168 3.152709a8.222266 8.222266 0 0 1 -7.97005 9.543882l-24.959369.620453-46.392749 1.669675.766739-12.696591zm-404.459822-94.737655s-11.021872 22.477557 20.812926 81.849379l13.317044 24.197675c4.388571 7.970049 33.403586-8.302975 42.281616-23.244296 0 0-55.840788-33.504473-76.411586-82.802758z" opacity=".2"/><path d="m665.231764 624.06999 22.190029-6.537458-3.531034 34.266168s-30.977261 20.717084-41.711606.90798l4.343172-11.026916a29.665734 29.665734 0 0 1 18.709439-17.609774z" fill="#cb7a63"/><path d="m712.946128 630.990818-2.764295 12.35862a8.883074 8.883074 0 0 1 -7.97005 6.971271l-18.472354 1.477991 3.581477-34.316611 18.134385 2.865182a8.888118 8.888118 0 0 1 7.637123 9.927251zm-232.695172 51.210088c15.51133 21.004611 37.272591 38.563941 62.852413 43.57801 30.165123 5.871606 88.200197-36.798424 115.40934-64.385891-1.336749-11.642325-.575054-17.9427-12.17198-19.566976 0 0-29.973438 21.952946-86.43468 35.128749-18.28067 4.24733-30.45265-14.320867-46.342305-41.570365-7.92465-13.508729-33.408631-69.06199-43.290483-81.425655-15.556729-19.854502-59.755192-5.629478-42.190818 42.145419 7.349596 19.950345 39.51732 68.819862 52.163468 86.096709z" fill="#cb7a63"/><path d="m463.725714 521.316887c31.355586 28.631645 46.629833 79.796335 46.629833 79.796335l-73.258877 44.67263s-53.454818-75.216079-43.910936-101.421399c7.541281-20.32867 21.524177-33.691113 39.90069-34.836177a42.064709 42.064709 0 0 1 30.63929 11.788611zm-168.097418 302.105221h-5.528592c-1.099665 0-2.007645-.524611-1.911803-1.240906l2.053045-23.859704c0-.716296 1.003823-1.29135 2.098443-1.336749h5.53868c1.099665 0 2.002601.57001 1.906759 1.240906l-2.048 23.859705a1.831094 1.831094 0 0 1 -.786917 1.089576c-.388414.247172-.857537.33797-1.311527.247172zm547.290167 79.423055 71.402562-35.698759-6.10869-25.393182-81.425655 37.131349z" fill="#006dcc"/><path d="m842.918463 902.845163 71.402562-35.698759-6.10869-25.393182-81.425655 37.131349z" fill="#fff" opacity=".5"/><path d="m956.083074 930.770601-49.252887 14.890877a4.035468 4.035468 0 0 0 -2.961024 4.388571l5.967448 44.672631a8.010404 8.010404 0 0 0 9.306798 6.6333h.857537c82.283192-13.695369 109.441892-28.63669 118.269478-31.784354 25.29734-8.545103 15.178404-27.1587 6.204532-26.634089-40.279015 2.481813-52.834365-2.194286-68.824907-9.543882a40.304236 40.304236 0 0 0 -19.566975-2.623054zm-662.326227-588.91602c-14.795034 2.340571-29.448828-9.014227-34.079527-23.239251a53.893675 53.893675 0 0 1 6.824985-42.952512c5.584079-9.548926 42.190818-32.172768 55.744946-6.683744 27.012414 50.493793-28.490404 72.880552-28.490404 72.880552z" fill="#263238"/><path d="m795.415961 540.117123-144.378956 6.10869.670896-14.315823 144.373912-6.10869z" fill="#006dcc"/><path d="m795.415961 540.117123-144.378956 6.10869.670896-14.315823 144.373912-6.10869z" fill="#fff" opacity=".7"/><path d="m794.558424 559.966581-144.373912 6.159133.620454-14.320867 144.373911-6.154088z" fill="#006dcc"/><path d="m794.568512 559.971626-144.373911 6.154088.615409-14.315822 144.378956-6.159133z" fill="#fff" opacity=".7"/><path d="m793.645399 579.871527-144.373911 6.154089.665852-14.366266 144.328512-6.10869z" fill="#006dcc"/><path d="m793.655488 579.871527-144.373912 6.154089.665853-14.366266 144.328512-6.10869z" fill="#fff" opacity=".7"/><path d="m792.737419 599.72603-144.373912 6.154088.670897-14.315822 144.373911-6.159133z" fill="#006dcc"/><path d="m792.732374 599.72603-144.373911 6.159133.670897-14.320867 144.373911-6.154089z" fill="#fff" opacity=".7"/><path d="m791.88997 619.630975-144.378955 6.154089.620453-14.315823 144.378956-6.159133z" fill="#006dcc"/><path d="m791.884926 619.630975-144.378956 6.154089.620454-14.315823 144.378955-6.159133z" fill="#fff" opacity=".7"/><path d="m592.653872 554.316926-11.586838.494345.206818 4.771941 11.586838-.499389z" fill="#006dcc"/><path d="m592.674049 554.316926-11.586837.494345.206818 4.771941 11.586837-.499389z" fill="#fff" opacity=".5"/><path d="m592.119172 568.118227-11.586837.499389.206818 4.766896 11.586837-.494345z" fill="#006dcc"/><path d="m592.098995 568.118227-11.586837.499389.206817 4.766896 11.586838-.494345z" fill="#fff" opacity=".5"/><path d="m588.628493 585.632158-11.596926.459034.18664 4.776985 11.60197-.464078z" fill="#006dcc"/><path d="m588.618404 585.627113-11.596926.464079.18664 4.771941 11.601971-.464079z" fill="#fff" opacity=".5"/><path d="m591.049773 595.63003-11.586837.499389.206818 4.766896 11.586837-.499389z" fill="#006dcc"/><path d="m591.054818 595.635074-11.586838.494345.206818 4.771941 11.586837-.49939z" fill="#fff" opacity=".5"/><path d="m587.417852 613.164138-11.596926.464079.191685 4.776985 11.596926-.464079z" fill="#006dcc"/><path d="m579.180453 614.611862.433813-4.771941 11.546483-.524611-.428769 4.822385z" fill="#fff" opacity=".5"/><path d="m589.955153 623.167054-11.586838.484256.201774 4.771941 11.586837-.4893z" fill="#006dcc"/><path d="m589.970286 623.167054-11.586838.489301.201774 4.766896 11.586837-.4893z" fill="#fff" opacity=".5"/><path d="m604.800631 541.120946-23.960592 8.923428.242128-6.300374 13.266601-2.148887-13.125359-.90798.237084-6.300374zm146.275625-22.765084-100.039251 4.24733.479212-9.927251 100.039251-4.24733z" fill="#006dcc"/><path d="m751.076256 518.355862-100.039251 4.24733.479212-9.927251 100.039251-4.24733z" fill="#fff" opacity=".7"/><path d="m616.120118 523.460729-14.653793.665852 5.922049-3.768118 1.619232 1.47799 1.765517-1.528433zm-9.326975-3.581478-5.917005 3.818562.428768-8.782187zm10.27531-5.200709-.479212 8.257576-5.392394-3.152709z" fill="#006dcc"/><path d="m609.133714 518.350818-.317793.332926.035311.030266.312748-.332926z" fill="#fff"/><path d="m608.916808 518.391172-.03531.030266.312748.332927.035311-.030266z" fill="#fff"/><path d="m617.073498 513.815961-6.300375 5.730364-1.765517 1.573833-1.619232-1.528434-5.49328-4.963625-.428769-.378326zm-24.364138 1.659586-11.586838.4893.060532 1.432591 11.586838-.494344zm0 3.621832-11.586838.489301.060532 1.432591 11.586838-.489301zm.005044 3.717675-11.586837.494345.060532 1.427547 11.586837-.489301zm95.655724 330.156769a2.648276 2.648276 0 0 1 -1.624276-.620454 2.401103 2.401103 0 0 1 0-3.389793l14.315823-15.370088a2.441458 2.441458 0 0 1 1.694896-.706207 2.370837 2.370837 0 0 1 1.694897.706207 2.446502 2.446502 0 0 1 0 3.389793l-14.315823 15.370088a2.496946 2.496946 0 0 1 -1.765517.620454zm-129.382148 122.325123a2.285084 2.285084 0 0 1 -2.103487-1.336749 2.305261 2.305261 0 0 1 .307704-2.633143 2.285084 2.285084 0 0 1 .746562-.564965c44.193419-22.381714 114.304631-106.097498 115.020926-106.955035a2.335527 2.335527 0 0 1 3.339349-.287527 2.436414 2.436414 0 0 1 .287528 3.389793c-2.865182 3.435192-71.589202 85.289616-116.503961 108.100099a2.189241 2.189241 0 0 1 -1.094621.287527z" fill="#006dcc"/></svg>