<svg height="60" viewBox="0 0 1045 1024" width="60" xmlns="http://www.w3.org/2000/svg"><path d="m0 391.545404a391.545404 391.545404 0 1 0 783.090808 0 391.545404 391.545404 0 1 0 -783.090808 0z" fill="#e06b26" opacity=".23"/><path d="m354.749691 690.671931c0 147.373783 52.846364 266.842595 118.04098 266.842594s152.611932-119.468811 152.611932-266.842594c0-147.382085-87.421468-266.855047-152.611932-266.855047-65.194615 0-118.04098 119.477113-118.04098 266.855047z" fill="#94bcd3"/><path d="m472.790671 959.589862c-66.232284 0-120.116316-120.63515-120.116316-268.917931 0-148.291082 53.884032-268.930383 120.116316-268.930383 69.627534 0 154.687269 124.096811 154.687268 268.930383 0 144.829421-85.059735 268.917931-154.687268 268.917931zm0-533.697642c-63.945263 0-115.965643 118.7798-115.965644 264.779711 0 145.99576 52.024531 264.767258 115.965644 264.767258 31.482852 0 69.41585-29.573543 98.993543-77.177607 33.238587-53.49802 51.543053-120.116316 51.543053-187.589651 0-67.477485-18.304466-134.104083-51.547204-187.602103-29.577693-47.604065-67.510691-77.177607-98.989392-77.177608z" fill="#6e6e96"/><path d="m469.079969 680.722768c-18.009769 146.307061-93.207505 257.673759-167.990174 248.737361-74.766067-8.932248-160.415197-139.524861-142.417881-285.81947 18.009769-146.307061 132.858882-252.937841 207.624948-244.005594 74.774368 8.928097 120.784574 134.780643 102.783107 281.087703z" fill="#94bcd3"/><path d="m309.536414 932.037697c-2.89717 0-5.819243-.174328-8.691509-.518835-28.257779-3.374497-58.105267-23.459602-84.038669-56.552915-37.057206-47.284463-72.325471-132.946045-60.193055-231.58263 17.075867-138.736234 121.926009-246.346573 200.722379-246.346573 3.125457 0 6.221858.178479 9.202041.535437 21.915552 2.614924 42.432327 15.398996 59.338017 36.974192 40.29473 51.410232 57.636241 145.838035 45.258934 246.429586-17.320757 140.778365-88.305561 251.061737-161.598138 251.061738zm47.803297-530.85028c-36.916083 0-81.502608 25.73417-119.277881 68.838906-41.95915 47.88216-69.42 109.627566-77.327031 173.863376-11.978841 97.37063 22.799645 181.882476 59.342167 228.511133 25.248542 32.221672 54.112319 51.750587 81.26602 54.996413 2.710389.319602 5.466436.485629 8.201729.485628 71.229694 0 140.404804-108.681213 157.484822-247.417446 12.244484-99.53313-4.769123-192.786293-44.408047-243.358089-16.440814-20.9775-35.471649-32.894081-56.561216-35.409389a74.184972 74.184972 0 0 0 -8.720563-.510532z" fill="#6e6e96"/><path d="m328.749877 682.656982c-107.315642-24.974597-153.632998-93.05393-127.533568-144.01589 22.870206-44.648786 61.878228-86.682648 169.210473-61.720502 68.170648 15.85972 124.3334 48.400994 153.321697 84.578257-28.726805-68.332524-100.039512-131.136352-190.839628-152.263276-130.895613-30.457636-291.754932 25.190432-311.840037 166.006153-13.747028 96.494838 80.987925 239.224019 211.887689 269.673353 130.899764 30.465937 282.664959-97.354027 301.969737-192.748937.568642-2.726992.996161-5.462285 1.365572-8.226633-26.979372 43.287365-112.973008 60.724341-207.541935 38.717475z" fill="#94bcd3"/><path d="m273.732711 855.723429c-14.456793 0-28.652093-1.598009-42.183286-4.74837-61.616736-14.332273-121.31171-55.307713-163.773091-112.416818-40.074745-53.896484-59.836097-115.280782-52.867118-164.20061 7.969292-55.868054 38.099024-102.488409 87.139222-134.82215 43.636022-28.772463 100.27195-44.61558 159.472994-44.61558 24.787817 0 49.280936 2.772649 72.802799 8.247387 87.280345 20.309241 163.885159 81.506759 195.168779 155.915867l-10.596667 6.304872c-29.316201-36.584029-85.346131-67.394472-149.876639-82.407455-20.823925-4.843835-39.966827-7.301033-56.88912-7.301033-63.152485 0-88.704025 33.25934-105.368976 65.792312-8.670755 16.930594-8.612646 35.890866.174328 54.826235 16.810224 36.231222 62.87854 66.244736 123.22517 80.290612 26.709579 6.213557 53.103706 9.368068 78.456015 9.368069 58.952004 0 104.709019-16.938895 122.390884-45.312894l11.460008 4.113317a121.552449 121.552449 0 0 1 -1.444434 8.674906c-8.874138 43.839405-44.146554 94.083297-94.34479 134.357274-53.80517 43.175297-116.841435 67.934059-172.946078 67.934059zm-12.211279-448.347359c-145.215434 0-222.305877 84.752585-234.284718 168.745597-13.319509 93.477299 79.643107 233.072722 207.135168 262.729278a173.921486 173.921486 0 0 0 39.360829 4.420466c90.592581 0 220.886347-81.859566 251.20286-177.391448-25.107419 20.674501-66.506228 32.532972-116.31845 32.532972-26.302813 0-53.647444-3.262429-81.278472-9.69182-65.011986-15.129202-113.014515-46.902601-131.700844-87.176578-10.310271-22.218551-10.293668-45.566084.037356-65.742505 17.304154-33.786475 46.180384-72.570361 116.451272-72.57036 17.872796 0 37.962052 2.565116 59.711577 7.624785 49.679401 11.559623 94.676843 32.312987 127.284528 57.993199-36.193866-54.573044-98.362641-97.437041-167.620765-113.549952-22.596262-5.254752-46.138877-7.923634-69.980341-7.923634z" fill="#6e6e96"/><path d="m389.129713 978.043752c0 35.608621-40.410949 35.41769-90.285432 35.41769-49.862031 0-90.285432.190931-90.285432-35.41769 0-35.60447 40.423401-64.472398 90.285432-64.472398s90.285432 28.867928 90.285432 64.472398z" fill="#9090ab"/><path d="m300.425687 1019.687451h-3.162812c-24.385202 0-47.421435 0-64.443344-4.723465-20.230379-5.620011-30.486691-18.038823-30.486691-36.924384 0-38.987268 43.295667-70.698407 96.511441-70.698408s96.511441 31.71529 96.511441 70.698408c0 41.647849-46.113973 41.647849-94.930035 41.647849zm-2.378335-12.452018h2.374184c52.676187 0 82.478016-1.353119 82.478017-29.191681 0-32.117905-37.708861-58.246389-84.059423-58.246389s-84.059423 26.128484-84.059423 58.246389c0 13.311207 6.392036 20.765815 21.367663 24.92479 15.386544 4.266891 37.596793 4.266891 61.110354 4.266891z" fill="#6e6e96"/><path d="m570.40619 976.914769c0 35.60447-40.410949 35.41769-90.285431 35.41769-49.862031 0-90.285432.18678-90.285432-35.41769s40.427552-64.468248 90.285432-64.468247c49.862031 0 90.285432 28.863778 90.285431 64.468247z" fill="#9090ab"/><path d="m478.356723 1018.558468c-24.318791 0-47.280312-.012452-64.248262-4.723465-20.23868-5.61586-30.499143-18.038823-30.499143-36.924384 0-38.983118 43.295667-70.694257 96.511441-70.694257s96.511441 31.71529 96.51144 70.694257c0 41.643699-46.126425 41.643699-94.963239 41.643698h-3.096402zm1.764036-99.885937c-46.350562 0-84.059423 26.128484-84.059423 58.242238 0 13.315358 6.392036 20.765815 21.375964 24.92479 15.340886 4.254439 37.472273 4.266891 60.915272 4.266891h3.316388c52.69694 0 82.511222-1.353119 82.511221-29.191681 0-32.113754-37.708861-58.242239-84.059422-58.242238z" fill="#6e6e96"/><path d="m222.675287 443.885386s-315.409615 431.018301-37.190027 498.097322c245.429274 59.184441 660.778786 34.782637 519.784586-249.974261-99.645199-201.274419-174.336553-484.665745-482.594559-248.123061z" fill="#94bcd3"/><path d="m245.910752 954.256247s-169.426307-25.617952-104.389417-214.660338c62.953252-183.032212 61.558626-165.337895 61.558626-165.337894l-49.969948-19.591175c-.008301.016603-241.058616 386.303104 92.800739 399.589407z" fill="#b3e3ff" opacity=".21"/><path d="m410.9581 974.395311h-.053959c-75.83279 0-156.405647-9.363918-226.879918-26.360922-56.544614-13.630809-93.489751-43.13379-109.818497-87.68296-22.8287-62.305747-5.507943-152.10555 51.489094-266.904855 42.104423-84.802393 91.460072-152.566275 91.954002-153.238684l.527136-.718066.705614-.543738c79.821586-61.251476 147.59792-91.028402 207.20573-91.028402 127.346788 0 189.93063 136.449213 250.455739 268.403247 11.148707 24.31049 22.679275 49.446963 34.305309 72.927319 35.455046 71.603254 38.601256 131.80461 9.351466 178.923046-24.625941 39.67628-97.565712 106.224015-309.241716 106.224015zm-183.771032-526.122664c-11.073995 15.390694-191.78183 270.013709-141.280596 407.803589 14.801299 40.390196 48.799458 67.2575 101.039825 79.854791 69.548671 16.768718 149.088011 26.012266 223.961995 26.012266h.045657c150.233597.004151 259.080837-36.567426 298.665802-100.33421 26.825797-43.216804 23.484506-99.350501-9.932559-166.832137-11.704897-23.646382-23.272822-48.865869-34.467186-73.259373-58.885593-128.388607-119.775961-261.143721-239.132704-261.143721-56.58197-.004151-121.652065 28.75171-198.900234 87.898795z" fill="#6e6e96"/><path d="m574.565164 406.45047s23.397342 143.571767 261.405214 93.821804l-.361109 366.890409s-288.920023-114.583469-288.920022-317.385336z" fill="#94bcd3"/><path d="m835.609269 873.388692c-.776176 0-1.552352-.145274-2.295322-.435821-.730518-.290547-73.836316-29.573543-145.891993-83.445123-96.142031-71.868897-146.958716-154.770282-146.958716-239.730401 0-.398465.037356-.796929.112068-1.187092l27.875918-143.326878a6.279968 6.279968 0 0 1 6.205255-5.038916 6.226009 6.226009 0 0 1 6.051681 5.221546c.67656 4.030303 18.345973 99.076556 163.245956 99.076556 27.369536 0 57.897733-3.482414 90.742005-10.347627a6.226009 6.226009 0 0 1 7.500266 6.101489l-.361109 366.894559a6.226009 6.226009 0 0 1 -6.226009 6.217708zm-282.694013-323.013648c.527135 176.507355 229.096377 286.483578 276.476306 307.373913l.344505-349.860198c-30.843649 6.035078-59.665919 9.085822-85.781951 9.085822-110.69844 0-152.611932-54.689263-167.670573-86.778113z" fill="#6e6e96"/><path d="m813.050363 618.275898s27.365385 16.565335 31.196456 2.34513c-.016603 0-.593546 24.393503-31.196456-2.34513z" fill="#cfc8bb"/><path d="m835.567763 632.877965c-6.030927 0-13.846644-4.262741-23.887122-13.037263l2.440596-3.341292c.128671.078863 13.02066 7.811566 21.683114 7.811566 4.694411 0 5.906407-2.262117 6.437693-4.229535l4.055207.846737c-.257342 5.416628-3.237525 11.949787-10.729488 11.949787zm-3.561278-4.760822c2.747745.842587 4.416316.747121 5.777737.228287-1.689324.211684-3.723153.116219-5.777737-.228287z" fill="#6e6e96"/><path d="m776.121829 684.06821a184.733988 68.469496 90 1 0 136.938992 0 184.733988 68.469496 90 1 0 -136.938992 0z" fill="#7696a8"/><path d="m844.591325 875.028208c-41.884438 0-74.695505-83.880944-74.695505-190.964148 0-107.079053 32.811067-190.959997 74.695505-190.959997s74.695505 83.880944 74.695505 190.959997c0 107.083204-32.811067 190.964148-74.695505 190.964148zm0-369.467977c-30.059171 0-62.243487 71.727774-62.243487 178.507979 0 106.784356 32.184316 178.51213 62.243487 178.51213s62.243487-71.727774 62.243487-178.51213c0-106.780205-32.184316-178.507979-62.243487-178.507979z" fill="#6e6e96"/><path d="m832.770209 866.000495s-102.55482-225.327567 51.020069-345.697074c0 0-107.286587-94.120653-107.286587 183.302006.004151 0 11.281528 126.425339 56.266518 162.395068z" fill="#6e6e96" opacity=".12"/><path d="m709.686162 462.741892c-42.191588 63.870551-139.628628 115.63774-311.840037 115.637741-172.223861 0-269.374505-57.341543-311.840037-115.637741-41.108262-56.424244 139.616176-115.63774 311.840037-115.63774 172.228011 0 349.864349 58.080363 311.840037 115.63774z" fill="#94bcd3"/><path d="m397.846125 584.605642c-69.386795 0-239.161759-11.513966-316.870652-118.198706-8.201729-11.256624-9.322411-23.526013-3.241675-35.475799 24.401805-47.973475 173.987897-90.052994 320.116478-90.052994 146.792689 0 292.788449 40.867523 318.809016 89.239462 6.475049 12.036951 5.86075 24.505571-1.772337 36.056893-68.075182 103.044599-227.855326 118.431143-317.04083 118.431144zm0-231.275481c-139.566368 0-286.852988 39.680431-309.017579 83.245891-3.976344 7.819867-3.279031 14.967326 2.208157 22.496646 52.348284 71.860596 164.175706 113.076775 306.805271 113.076775 201.946828 0 278.804833-70.698407 306.643395-112.844338 5.092875-7.703648 5.483039-15.324283 1.195394-23.297725-23.687889-44.038637-167.537751-82.677249-307.834638-82.677249z" fill="#6e6e96"/><path d="m658.184616 1021.231501h-539.587446a6.226009 6.226009 0 1 1 0-12.452018h539.587446a6.226009 6.226009 0 0 1 0 12.452018zm285.014239 2.768499h-107.917489a6.226009 6.226009 0 0 1 0-12.452018h107.917489a6.226009 6.226009 0 0 1 0 12.452018z" fill="#6e6e96" opacity=".27"/><path d="m848.63408 425.854864 26.082827 588.831027h29.639954l15.415598-588.831027z" fill="#d5b28f"/><path d="m904.356861 1020.9119h-29.639954a6.226009 6.226009 0 0 1 -6.221858-5.952065l-26.082827-588.831026a6.23431 6.23431 0 0 1 6.221858-6.504104h71.14253a6.238461 6.238461 0 0 1 6.221858 6.387885l-15.419749 588.831026a6.226009 6.226009 0 0 1 -6.221858 6.068284zm-23.683739-12.452018h17.619606l15.091846-576.379009h-58.238088z" fill="#6e6e96"/><path d="m892.091623 1018.38414v-590.163392l28.706052-4.906095-16.440814 591.371238z" fill="#6e6e96" opacity=".12"/><path d="m839.718435 614.884799a43.582063 43.582063 0 1 0 87.164126 0 43.582063 43.582063 0 1 0 -87.164126 0z" fill="#fff" opacity=".59"/><path d="m883.300498 660.542198c-25.17383 0-45.657399-20.48357-45.657399-45.657399s20.48357-45.657399 45.657399-45.6574 45.657399 20.48357 45.657399 45.6574-20.479419 45.657399-45.657399 45.657399zm0-87.164126c-22.886809 0-41.506727 18.619918-41.506726 41.506727s18.619918 41.506727 41.506726 41.506726 41.506727-18.619918 41.506727-41.506726-18.619918-41.506727-41.506727-41.506727z" fill="#6e6e96" opacity=".59"/><path d="m724.188612 270.744227a157.476521 157.476521 0 1 0 314.953042 0 157.476521 157.476521 0 1 0 -314.953042 0z" fill="#ea94ff"/><path d="m881.665133 434.446757c-90.264678 0-163.698379-73.437851-163.698379-163.70253s73.433701-163.70253 163.698379-163.70253 163.70253 73.437851 163.70253 163.70253-73.437851 163.70253-163.70253 163.70253zm0-314.953042c-83.399466 0-151.246361 67.851046-151.246361 151.250512s67.851046 151.250512 151.246361 151.250512c83.403616 0 151.250512-67.851046 151.250512-151.250512s-67.846895-151.250512-151.250512-151.250512z" fill="#6e6e96"/><path d="m811.888175 158.306655c57.125708-35.749744 132.402307-18.420685 168.160352 38.705023 35.749744 57.121557 2.685485 107.261683-54.436072 143.011426-57.129858 35.749744-116.667107 43.569611-152.429303-13.551946-35.745593-57.125708-18.420685-132.414759 38.705023-168.164503z" fill="#fff" opacity=".39"/><path d="m852.178755 615.743988h66.037202c12.800674 0 23.177356-11.22757 23.177356-25.074214 0-13.854945-10.376682-25.082515-23.177356-25.082515h-66.037202c-12.796524 0-23.169055 11.22757-23.169055 25.082515 0 13.846644 10.372531 25.074214 23.169055 25.074214z" fill="#ffbcac"/><path d="m918.215957 621.969997h-66.037202c-16.208377 0-29.395064-14.041726-29.395064-31.300223 0-17.262648 13.186687-31.308524 29.395064-31.308524h66.037202c16.212527 0 29.403365 14.045876 29.403365 31.308524 0 17.258497-13.186687 31.300223-29.403365 31.300223zm-66.037202-50.156729c-9.343164 0-16.943046 8.459071-16.943046 18.856506 0 10.393284 7.599882 18.848205 16.943046 18.848205h66.037202c9.347315 0 16.951347-8.45492 16.951347-18.848205 0-10.397435-7.604032-18.856506-16.951347-18.856506z" fill="#6e6e96"/><path d="m847.002866 670.204964h73.383892c14.220205 0 25.746623-12.476922 25.746623-27.875918 0-15.386544-11.526418-27.859315-25.746623-27.859315h-73.383892c-14.216054 0-25.742472 12.472771-25.742472 27.859315 0 15.398996 11.530569 27.875918 25.742472 27.875918z" fill="#ffbcac"/><path d="m920.386758 676.430973h-73.383892c-17.627907 0-31.968481-15.299379-31.968481-34.101927 0-18.794246 14.340574-34.085324 31.968481-34.085324h73.383892c17.627907 0 31.972632 15.291078 31.972632 34.085324 0 18.802547-14.344725 34.101927-31.972632 34.101927zm-73.383892-55.735233c-10.762694 0-19.516463 9.704273-19.516463 21.633306 0 11.937335 8.753769 21.649909 19.516463 21.649909h73.383892c10.766845 0 19.520614-9.712574 19.520614-21.649909 0-11.929033-8.753769-21.633306-19.520614-21.633306z" fill="#6e6e96"/><path d="m859.06057 710.827597h55.469589c10.762694 0 19.466655-9.426178 19.466655-21.060513 0-11.642637-8.720563-21.068814-19.466655-21.068814h-55.469589c-10.762694 0-19.458353 9.426178-19.458354 21.068814-.016603 11.621883 8.695659 21.060513 19.458354 21.060513z" fill="#ffbcac"/><path d="m914.530159 717.053606h-55.469589c-6.582967 0-12.842181-2.635677-17.623756-7.421403-5.130231-5.138533-8.068908-12.377306-8.060607-19.87342 0-15.042038 11.522267-27.286522 25.684363-27.286522h55.469589c14.166246 0 25.692664 12.244484 25.692664 27.294823 0 15.046188-11.526418 27.286522-25.692664 27.286522zm-55.469589-42.133478c-7.296883 0-13.232344 6.657679-13.232345 14.842805-.004151 4.217083 1.60631 8.247387 4.420467 11.065694 2.428144 2.432294 5.557751 3.768811 8.811878 3.76881h55.469589c7.301033 0 13.240646-6.657679 13.240646-14.834504 0-8.185126-5.943763-14.842805-13.240646-14.842805z" fill="#6e6e96"/><path d="m643.516139 308.822498c0 178.802677-113.977471 323.752468-254.573207 323.752467-140.599886 0-254.573206-144.937339-254.573206-323.752467 0-178.802677 113.977471-282.245741 254.573206-282.245741s254.573206 103.443064 254.573207 282.245741z" fill="#fff"/><path d="m388.942932 638.796824c-143.804205 0-260.799215-148.02959-260.799215-329.978477 0-86.773963 26.377525-160.245019 76.285213-212.472933 46.83204-49.006992 112.358709-75.998816 184.514002-75.998817s137.681963 26.987674 184.509852 75.998817c49.907688 52.227914 76.289363 125.703122 76.289364 212.472933 0 181.953037-116.99501 329.978476-260.799216 329.978477zm0-605.994058c-68.722687 0-131.049188 25.622102-175.507042 72.146992-47.649722 49.866181-72.840155 120.365356-72.840155 203.87274 0 175.083674 111.408205 317.526459 248.347197 317.526458s248.347197-142.438634 248.347198-317.526458c0-83.507383-25.186282-154.006558-72.840155-203.87274-44.457855-46.52489-106.788506-72.146992-175.507043-72.146992z" fill="#6e6e96"/><path d="m634.02355 276.480457c-10.845708 95.133417-56.664983 176.125493-120.63515 222.110795 13.838343-10.472147 92.464535-73.74085 94.65609-160.855168l-237.098874 39.277815-36.442906-8.425865-130.111136 62.044255c-29.033955-42.893051-48.849267-95.855634-55.502795-154.151832a362.498997 362.498997 0 0 0 -2.507006 42.776832c0 169.222924 109.727182 306.398505 245.080618 306.398505 135.340983 0 245.080618-137.175581 245.080618-306.398505a364.229827 364.229827 0 0 0 -2.519459-42.776832zm-385.286189 210.617582c-.593546-1.950816 5.24645-64.459946 93.390134-74.712108 89.218709-10.376682 131.401995 125.454081 169.119158 87.736919-35.413539 24.879132-76.264459 39.111788-119.780112 39.111789-40.78866 0-88.770436 1.822145-142.72918-52.1366z" fill="#6e6e96" opacity=".15"/><path d="m544.784088 198.285934c-13.884-71.304406-68.67703-142.654469-174.07091-130.20245-114.097841 13.477234-137.839688 100.5791-134.63952 173.14531 3.872578 87.795028 93.456546 148.780862 172.311025 134.373876 78.850329-14.406985 150.291706-106.016481 136.399405-177.316736z" fill="#ffbcac"/><path d="m384.825465 383.937221c-71.806637 0-151.213156-57.237776-154.973665-142.434483-6.221858-141.131172 85.126146-173.107954 140.13086-179.603757 53.174267-6.288269 99.520678 8.234935 132.900388 41.490124 23.812409 23.729396 40.867523 57.005338 48.01083 93.705586 6.255064 32.08885-3.772961 70.449367-27.514809 105.236155-28.602285 41.913493-71.167433 71.594953-113.877855 79.398217a137.748374 137.748374 0 0 1 -24.675749 2.208158zm9.422027-311.051409c-7.371595 0-15.046188.464875-22.803796 1.382174-118.148897 13.954561-131.630282 110.424495-129.15233 166.691014 3.445058 78.074153 76.480294 130.526203 142.529948 130.526203h.004151c7.599882 0 15.149955-.67656 22.442687-2.008925 38.912556-7.110102 79.464628-35.529758 105.829701-74.16837 21.874045-32.059796 31.196456-66.987706 25.576445-95.834881-11.916581-61.197518-56.117094-126.587215-144.426806-126.587215z" fill="#6e6e96"/><path d="m309.553016 369.389113a2.075336 2.075336 0 0 1 -1.324064-.477327c-5.869051-4.868739-8.521331-9.691821-8.629249-9.895204a2.075336 2.075336 0 0 1 3.644291-1.984021c.024904.041507 2.419842 4.358206 7.633087 8.683207a2.075336 2.075336 0 0 1 -1.324065 3.673345z" fill="#6e6e96" opacity=".34"/><path d="m140.641392 228.585845c-9.060918 58.138472-27.64348 189.893274 77.451552 200.527297 105.103333 10.638174 134.88856-101.338673 134.88856-101.338673-.269794.236588-.55619.448273-.838436.689012 9.81219-27.709891 8.073058-52.456201 8.073059-52.456201l-38.675968-30.411979s-29.324502 96.598605-102.260122 81.917676c-72.919017-14.68508-78.638644-98.927132-78.638645-98.927132" fill="#fff"/><path d="m231.931287 436.057218c-4.719315 0-9.588054-.253191-14.465094-.747121-28.07515-2.843211-49.986551-14.220205-65.128205-33.823832-37.39341-48.413446-23.69619-136.320542-17.847892-173.855075a6.226009 6.226009 0 0 1 12.360703.531286c.012452.203383 1.5399 20.504323 11.580376 42.129328 13.128578 28.274382 34.014762 45.47477 62.077461 51.127985 4.598945.9256 9.164685 1.394626 13.572699 1.394626 56.851763 0 81.257719-78.231878 81.498458-79.020506a6.226009 6.226009 0 0 1 9.803889-3.0881l38.675968 30.411978c1.382174 1.087476 2.241363 2.706239 2.361732 4.457823.074712 1.021065 1.589708 24.414257-7.271978 51.613614.087164.713916.041507 1.452735-.153575 2.191556-.282246 1.062572-29.498831 106.676438-127.064542 106.676438zm-89.749995-173.20342c-4.578192 41.037701-5.86075 97.532506 20.006242 131.020133 12.970852 16.789471 31.989234 26.564305 56.528011 29.050558 4.466124.452423 8.911494.68071 13.215742.680711 79.062013 0 108.652158-77.675688 114.077087-94.319886a5.839996 5.839996 0 0 1 .261493-2.897169c7.421403-20.948445 7.915333-40.35284 7.819867-47.272011l-29.598447-23.276973c-3.237525 8.280592-9.168836 21.566895-18.225603 34.965267-23.38489 34.604158-54.286648 49.646196-88.214246 42.818339-45.404208-9.148083-66.33605-43.818651-75.870146-70.768969z" fill="#6e6e96"/><path d="m603.184052 228.585845c9.8703 58.138472 30.129733 189.893274-84.370723 200.527297-114.488004 10.634023-146.933812-101.334522-146.933812-101.334522.298848.236588.605998.448273.913148.689012-10.687982-27.709891-8.795275-52.456201-8.795275-52.456201l42.129327-30.411979s31.947727 96.598605 111.395753 81.917676c79.431423-14.689231 85.661582-98.931283 85.661582-98.931283" fill="#fff"/><path d="m503.746387 436.053067c-105.759139.004151-137.536689-105.481044-137.847989-106.543617a6.1679 6.1679 0 0 1 -.215835-2.324376c-9.62126-27.215961-7.973442-50.625755-7.89458-51.64682.141123-1.826296 1.079175-3.503168 2.565116-4.574041l42.129328-30.411979a6.217708 6.217708 0 0 1 5.55775-.871641c1.888556.605998 3.370346 2.079487 3.997098 3.963892.261492.792778 27.045783 79.16993 89.359832 79.16993 4.868739 0 9.915957-.477327 14.99638-1.415379 73.641234-13.618357 80.332119-90.02809 80.581159-93.278067a6.238461 6.238461 0 0 1 5.927161-5.748681c2.955279-.145274 5.893955 2.071186 6.42109 5.175889 6.196954 36.501015 20.707706 121.975817-16.930594 170.978658-16.469869 21.446526-41.03355 33.823832-73.00203 36.791563a171.435233 171.435233 0 0 1 -15.643886.734669zm-124.798274-106.655685c6.035078 17.428675 37.584341 94.199516 124.789973 94.203667h.008301c4.723465 0 9.596355-.232438 14.489999-.684861 28.378149-2.635677 50.003154-13.394221 64.277316-31.976782 26.298662-34.238899 24.306339-90.21487 19.275724-130.214903-9.953313 27.236714-32.545424 63.55925-83.133822 72.914867a95.423964 95.423964 0 0 1 -17.258497 1.622913c-29.727118 0-56.710641-15.30353-78.024345-44.254472-10.123491-13.751179-16.673252-27.39859-20.143214-35.637676l-33.118218 23.907875c-.095465 6.998034.49393 26.211498 8.492277 46.948258.398465 1.037668.506382 2.129295.344506 3.171114z" fill="#6e6e96"/><path d="m183.650663 149.743818 8.0274 70.53238s90.725403-44.275225 152.985493-44.275225l13.136879-43.764693c.008301 0-72.296416-35.035828-174.149772 17.507538z" fill="#fff"/><path d="m191.678063 226.502207a6.238461 6.238461 0 0 1 -6.188652-5.524545l-8.031552-70.532381a6.213557 6.213557 0 0 1 3.33299-6.23431c38.128079-19.670038 76.534253-29.644104 114.1518-29.644104 20.935993 0 37.51378 3.225073 47.732735 5.92716 12.393909 3.279031 21.346909 5.649065 21.34691 11.742253 0 .605998-.087164 1.211996-.261493 1.78894l-13.136879 43.764693a6.226009 6.226009 0 0 1 -5.964516 4.437069c-60.085137 0-149.361956 43.208502-150.258501 43.644323a6.134694 6.134694 0 0 1 -2.722842.630902zm-1.353119-73.163907 6.558063 57.619638c23.027932-10.513654 90.816718-39.435541 143.127645-41.108262l10.198203-33.969105c-8.583591-3.117155-28.07515-8.861686-55.262056-8.861686-34.363419 0-69.54037 8.853385-104.621855 26.319415z" fill="#6e6e96"/><path d="m559.805372 151.130142-8.02325 70.532381s-90.737855-44.275225-152.997945-44.275226l-13.136879-43.764692c.004151 0 72.304718-35.039979 174.158074 17.507537z" fill="#fff"/><path d="m551.782122 227.888532c-.933901 0-1.867803-.207534-2.726992-.630903-.896545-.435821-90.189966-43.644323-150.270953-43.644323a6.23431 6.23431 0 0 1 -5.964516-4.437069l-13.136879-43.764692a6.226009 6.226009 0 0 1 3.279031-7.408951c1.029367-.49393 25.642856-12.049403 65.547423-12.049403 37.613396 0 76.01957 9.974066 114.147648 29.644105a6.226009 6.226009 0 0 1 3.332991 6.23431l-8.023251 70.53238a6.23431 6.23431 0 0 1 -6.184502 5.524546zm-148.345041-56.652531c52.310928 1.672721 120.108015 30.594608 143.140098 41.108262l6.549761-57.619638c-35.081485-17.466031-70.258436-26.319415-104.617704-26.319416-27.153701 0-46.666013 5.74038-55.266207 8.861687z" fill="#6e6e96"/><path d="m424.680224 247.093694c0 25.510034-38.497489 46.188685-70.640298 46.188686-32.117905 0-45.72381-20.678651-45.72381-46.188686s13.593453-46.192836 45.72381-46.192836c32.142809 0 70.640298 20.682802 70.640298 46.192836z" fill="#ffbcac"/><g fill="#6e6e96"><path d="m354.044077 299.508388c-32.043193 0-51.949819-20.085105-51.949819-52.414694 0-32.33374 19.906626-52.418845 51.949819-52.418845 35.546361 0 76.866307 22.899261 76.866307 52.418845-.004151 29.519584-41.319946 52.414694-76.866307 52.414694zm0-92.381521c-34.363419 0-39.497801 25.041008-39.497801 39.966827s5.130231 39.962676 39.497801 39.962677c28.992449 0 64.414289-18.441439 64.414289-39.962677-.004151-21.525388-35.42184-39.966827-64.414289-39.966827z"/><path d="m135.573421 340.508733s114.15595 119.290332 192.624417-53.385952l25.85454 6.159599s-18.856506 130.07378-124.428865 136.503171-94.050092-89.276818-94.050092-89.276818z" opacity=".15"/><path d="m382.936909 288.268367s74.267986 195.637805 227.498368 36.953439c0 0-14.656025 127.840718-139.852764 100.691168-125.19674-27.14955-106.111947-133.356962-106.111947-133.356962z" opacity=".15"/><path d="m187.905102 187.182885s19.163656-38.024312 164.819061-38.024312l-8.056456 26.84655s-97.910217 7.172363-152.985493 44.275226z" opacity=".15"/><path d="m392.811359 157.47237s76.957622-28.257779 163.5199 24.239928l-4.544986 39.946074s-98.881475-42.888901-152.997945-44.275225z" opacity=".15"/><path d="m309.295675 236.048754s16.220829 38.62616 47.350873 24.833475 46.682615-59.981371-2.59417-59.981371c0 0 81.544115 6.516556 64.136194 64.136194-17.39962 57.619638-125.122027 39.568362-108.892897-28.988298z" opacity=".15"/><path d="m191.669762 220.280349 5.175889 28.154012s98.474709-63.916208 147.809604-72.429238c.012452 0-76.550856 10.571763-152.985493 44.275226z" opacity=".15"/><path d="m398.788328 177.383147s114.575168 42.926257 143.127645 71.487035l9.8703-27.21181s-78.480919-44.275225-152.997945-44.275225z" opacity=".15"/><path d="m776.507841 703.605427c-27.846863-2.150048-51.754737-7.043692-72.313019-13.813439-67.361267-22.139688-169.052747-89.733392-62.911745-134.232754 36.986644-22.998877 64.812754-47.201449 64.812753-47.201449l-31.574167-6.425242c104.103021-74.404958-38.057518-117.198393-38.057517-117.198393l-3.777112 23.501109c86.383799 19.74475 40.693195 71.034612-10.55101 109.378526-15.154106-28.681148-31.250414-55.643918-49.098307-79.04126-33.861188 52.277722-45.769467 99.919143-45.931344 142.770688-28.888682 20.342447-81.963333 51.227602-138.150989 51.227602-83.785478 0-167.031369-79.431423-167.031369-79.431423s-49.949195-36.990795-99.757267-76.426336c-49.808072-39.43139 20.753363-85.08879 20.753364-85.088789-99.616144 26.979372-56.889119 71.109324-56.88912 71.109324l-13.016509 8.371907c0 26.360922 21.425772 48.31798 46.890149 65.09915-.008301.008301-41.149769 75.96146-49.625443 129.368165 0 0-58.653155-43.482447-37.621697-133.801084 0 0-40.078895 124.283591 45.026498 209.388984 0 0 53.933841-149.270641 75.450927-186.485572 26.784291 12.746716 49.97825 19.582874 49.97825 19.582874s47.732736 120.369507 205.458296 93.390134c55.021317-9.417876 97.412137-27.473302 121.328313-48.849266 14.398683 95.627347 78.269234 163.183696 53.597636 201.112542-94.091599 144.596983-89.069285-71.341762-120.975505-52.659584-26.377525 15.465406-5.703024 159.834103-38.555599 166.41707-123.316485 24.692352-270.225393-2.764348-275.422035-4.241988 10.966077 4.99741 23.210562 9.247699 36.965891 12.543333 205.611872 49.579785 530.406158 40.460757 547.506929-131.219365 54.386264 35.367882 99.769719 55.245453 99.769719 55.245453-53.31124-44.258623-56.278971-162.390917-56.278971-162.390917z" opacity=".15"/></g><path d="m810.655425 189.876672c17.395469-18.441439 46.458479-19.279875 64.91237-1.871954 18.441439 17.407921 18.63652 24.165216 1.23275 42.606655-17.412072 18.445589-45.827577 41.593891-64.269016 24.18597-18.44974-17.412072-19.288176-46.475082-1.876104-64.920671z" fill="#fff" opacity=".39"/><path d="m897.109786 565.587259v145.240338h17.420373l19.466655-21.060513v-23.812409l12.136567-23.625629-13.32781-32.188466 8.587742-19.470806-16.004994-23.845614z" fill="#6e6e96" opacity=".15"/></svg>