<svg height="60" viewBox="0 0 1025 1024" width="60" xmlns="http://www.w3.org/2000/svg"><path d="m0 508.358823a508.358823 508.358823 0 1 0 1016.717645 0 508.358823 508.358823 0 1 0 -1016.717645 0z" fill="#fff"/><path d="m415.382622 658.007605s88.361639 39.656386 152.17237-.324462c0 0 119.726236 69.687086 149.432475 168.251232 0 0-94.95902-14.420504-95.175328 74.085341l32.446134 81.367694s-124.737361 91.894663-304.34474-.612871c0 0 42.937051-88.361639 41.711309-115.364033s-70.480214-54.329249-128.090129-25.560344c.108154 0 72.751443-146.368117 151.847909-181.842557z" fill="#29abe2"/><path d="m804.375722 334.303338c-1.117589-7.210252-2.559639-14.059992-4.254049-20.945783 9.048866 43.261512 24.623011 148.7475-36.592029 231.845656a213.783974 213.783974 0 0 1 -23.217012 26.60583 141.104633 141.104633 0 0 0 96.040558-36.880439 121.673004 121.673004 0 0 0 39.656386-89.262921c0-48.164484-28.841008-90.019997-71.633854-111.362343z" fill="#ed1c24"/><path d="m742.223349 573.719758h-6.272919l3.100408-2.992255a216.019152 216.019152 0 0 0 23.036755-26.425574c57.285453-77.762569 47.335305-177.732714 36.267568-230.403605l3.605126-.793128c1.658358 6.885791 3.064357 13.663428 4.145895 20.188706 44.34305 22.459935 71.850162 65.50514 71.850162 112.479933a122.898747 122.898747 0 0 1 -40.413463 90.416561 144.4574 144.4574 0 0 1 -95.319532 37.529362zm63.990987-236.388115c8.327841 56.167864 8.976764 140.852274-41.242642 209.097311a214.396846 214.396846 0 0 1 -20.296859 23.721729 140.599916 140.599916 0 0 0 90.416561-36.483876 119.329672 119.329672 0 0 0 39.18772-87.929024c0-45.028024-25.992959-86.198564-68.06478-108.40614z"/><path d="m812.234896 552.701873a115.075623 115.075623 0 0 1 55.554993-150.477961 113.994085 113.994085 0 0 1 6.092663 21.16209 93.444867 93.444867 0 0 0 -43.47782 116.69793 136.994789 136.994789 0 0 1 -18.169836 12.617941z" fill="#fff"/><path d="m193.91973 337.656105c1.15364-7.210252 2.595691-14.059992 4.254048-20.981834-9.048866 43.261512-24.623011 148.783552 36.59203 231.881707" fill="#ed1c24"/><path d="m255.927897 577.000422a144.205042 144.205042 0 0 1 -95.319532-37.49331 122.970849 122.970849 0 0 1 -40.197155-90.560766c0-46.866639 27.507112-90.128151 71.886213-112.515984 1.081538-6.561329 2.415434-13.15871 4.109844-20.152655l3.605126.793128c-11.031686 52.670891-21.017885 152.604985 36.267568 230.403605a212.990846 212.990846 0 0 0 23.072806 26.389523l3.064357 2.992254h-4.2901zm-63.846782-236.388114c-42.071821 22.099423-68.06478 63.342064-68.064779 108.334038a119.329672 119.329672 0 0 0 39.18772 87.929024 140.599916 140.599916 0 0 0 90.416561 36.483875 218.146177 218.146177 0 0 1 -20.29686-23.75778c-50.219406-68.136882-49.498381-152.857344-41.242642-208.989157z"/><path d="m186.060555 555.982538a114.246444 114.246444 0 0 0 9.878045-46.578229 115.364033 115.364033 0 0 0 -65.433037-103.899732 119.798338 119.798338 0 0 0 -6.092663 21.16209 93.372764 93.372764 0 0 1 43.47782 116.733981 136.201662 136.201662 0 0 0 18.169835 12.58189z" fill="#fff"/><path d="m618.026757 121.240389-5.443741-2.595691a94.526405 94.526405 0 0 1 -34.068441-28.047881c-15.033376-19.215322-16.908041-32.698493-57.177299-32.698493h-30.283058v.180256h-12.798198c-40.305309 0-48.993663 13.44712-64.027038 32.662442a94.995071 94.995071 0 0 1 -34.068441 28.083932c-1.838614.829179-3.605126 1.694409-5.443741 2.595691-105.630193 51.697507-198.101676 168.792001-183.140402 286.463315 5.912407 45.893254 17.665118 92.615688 38.827207 128.630897 82.66554 9.841994 177.04774 12.401634 269.338966 12.401634a2315.752711 2315.752711 0 0 0 267.356147-14.708915c21.234192-36.05126 34.60921-77.942825 40.521617-123.944233 15.105478-117.671314-84.035488-237.39755-189.593578-289.022954z" fill="#29abe2"/><path d="m230.187298 918.333756-3.316716-1.333897c51.517251-126.864385 111.758907-213.603718 178.525841-257.982819-52.490635-11.71666-119.221518-52.851148-148.314885-84.071539-2.307281 0-4.614561.180256-6.957893.180256-74.481904 0-130.685819-55.338685-130.685819-128.703 0-46.866639 27.507112-90.128151 71.850162-112.515983 16.331221-97.626813 108.514294-180.256302 192.838191-219.011407 11.392198-5.227433 19.539783-15.790452 27.398958-25.956908l4.00169-5.191381 2.84805 2.235178-3.821434 5.083228c-8.111534 10.526968-16.511477 21.4505-28.841008 27.038445-83.783129 38.430644-175.317279 120.483312-191.07168 217.244895v.901282l-.829179.396563c-43.622025 21.630756-70.696522 63.77468-70.696522 109.703986 0 71.309393 54.653711 125.097874 127.080693 125.097873 2.559639 0 5.119279 0 7.642867-.216307h.829179l.57682.612871c29.16547 31.725109 98.455992 74.229545 151.235038 84.504155l4.434305.86523-3.821434 2.415434c-67.884523 43.153359-128.703 130.181101-180.905224 258.703845zm517.515842 14.88917c-26.425574-156.895085-122.14167-238.767498-176.651175-273.629066l-4.217998-2.703845 4.975074-.612871c57.682017-7.210252 136.994789-50.471765 166.664977-82.701591l.57682-.612872h.829179c2.523588 0 5.047176.216308 7.606816.216308 72.426982 0 129.171666-55.735249 129.171666-126.864385 0-45.929306-27.110548-87.929024-70.696522-109.703986l-.829179-.396564v-.901281c-15.646247-94.454302-109.812139-176.831432-196.335164-216.52387-13.014505-5.948458-23.000704-18.710604-31.833263-29.958597l-2.415434-3.064358 2.811998-2.235178 2.415435 3.064357c8.5802 10.815378 18.31404 23.325165 30.499366 28.841009 87.135896 39.980848 181.950711 122.934798 197.921419 218.326433 44.379102 22.495986 71.886213 65.50514 71.886214 112.515983 0 73.148007-58.330939 130.469511-132.776792 130.469512-2.343332 0-4.650613 0-6.957894-.180257-29.778341 31.833263-105.954654 73.652725-163.456414 82.557387 55.7713 36.555978 148.350936 118.969159 174.379946 273.412758z"/><path d="m257.946768 576.712012-1.045486-1.081537c-.468666-.504718-.973384-1.009435-1.442051-1.550205l-.684974-.432615c-44.595409-43.261512-58.258837-113.741727-64.675961-162.915645-16.29517-125.350232 78.483594-240.858471 180.544712-290.140544l5.587945-2.631742a94.490353 94.490353 0 0 0 34.248698-27.867624l1.622306-2.054922c14.420504-18.386143 24.947472-31.653007 65.577243-31.653007l44.126743-.28841c35.798902 0 43.441769 10.599071 54.07689 25.235882 1.946768 2.667793 4.00169 5.515843 6.345022 8.508098a94.778764 94.778764 0 0 0 34.212646 27.867624c1.874666.829179 3.605126 1.73046 5.623997 2.631742 105.26968 50.868328 203.473314 166.845233 187.466554 290.140544-6.381073 49.173919-20.044501 119.509928-64.63991 162.915645l-.612871.576821-1.478102 1.550204-.901282.973384-2.631742-2.487537.937333-.973384 2.018871-2.127025.57682-.648922h.324461c43.261512-42.648641 56.708633-111.758907 63.017603-160.247853 15.826504-121.600901-81.331643-236.135755-185.447683-286.427263l-5.515843-2.631742a97.338403 97.338403 0 0 1 -35.546543-28.841009c-2.415434-3.028306-4.470356-5.876355-6.453175-8.616251-10.635122-14.817068-17.088297-23.757781-51.012534-23.757781l-44.162794.288411c-38.863259 0-48.380791 12.041121-62.729193 30.247007l-1.658358 2.090973a97.843121 97.843121 0 0 1 -35.546542 28.841008c-1.838614.829179-3.605126 1.694409-5.515843 2.595691-100.943529 48.741304-194.676806 162.771441-178.525842 286.463315 6.272919 48.380791 19.683988 117.56316 63.017604 160.211801l.829179.612872 1.874665 2.01887 1.081538 1.081538z"/><path d="m723.440642 488.638783c0 49.822842-100.150401 60.133502-223.698071 60.133503s-223.517814-10.31066-223.517814-60.133503 62.765244-236.856781 223.517814-236.85678c163.023799 0 223.698071 187.06999 223.698071 236.85678z" fill="#13182e"/><path d="m406.333756 370.282495q34.753415 0 34.753415 34.753415v67.019293q0 34.753415-34.753415 34.753416-34.753415 0-34.753415-34.753416v-67.019293q0-34.753415 34.753415-34.753415z" fill="#0cefef"/><path d="m593.187438 370.282495q34.753415 0 34.753415 34.753415v67.019293q0 34.753415-34.753415 34.753416-34.753415 0-34.753415-34.753416v-67.019293q0-34.753415 34.753415-34.753415z" fill="#0cefef"/><path d="m499.742571 596.648359a21.630756 21.630756 0 0 1 -21.630756-21.630756h3.605126a18.02563 18.02563 0 1 0 36.051261 0h3.605126a21.630756 21.630756 0 0 1 -21.630757 21.630756zm-148.062526 386.577666-3.316716-1.442051c49.029714-114.4267 70.480214-197.633009 65.577243-254.377693l3.605126-.324462c4.975074 57.465709-16.58358 141.248838-65.865653 256.144206zm301.028024 0c-49.282073-115.003521-70.804675-198.78665-65.865652-255.963949l3.605126.324461c-4.902971 56.744684 16.547529 139.950993 65.577242 254.377693z"/><path d="m499.778623 932.898465v81.944515" fill="#fff"/><path d="m497.97606 932.898465h3.605126v81.908464h-3.605126z"/><path d="m414.012674 795.218702a29.057316 29.057316 0 0 1 -1.333896 4.362202c-.757076 2.054922-1.874666 4.830869-3.605126 8.111534a89.695536 89.695536 0 0 1 -53.572173-23.108858c-28.624701-26.569779-28.264188-62.584988-28.119983-68.497395a5.479792 5.479792 0 0 1 -1.550205-3.605126 5.335587 5.335587 0 0 1 1.550205-3.605126 5.371638 5.371638 0 0 1 7.534713 0 139.482326 139.482326 0 0 0 78.95226 78.95226 20.801577 20.801577 0 0 1 .144205 7.390509z" fill="#ed1c24"/><path d="m410.263343 809.603154h-1.189691a91.065484 91.065484 0 0 1 -54.653711-23.613575c-27.038445-25.055626-28.841008-58.258837-28.841008-68.966061a7.210252 7.210252 0 0 1 10.815378-9.44543l.396564.612871a139.518378 139.518378 0 0 0 33.743979 49.930996 137.715815 137.715815 0 0 0 44.018589 27.903675l.937333.360513v.973384a22.495986 22.495986 0 0 1 0 8.219687 28.336291 28.336291 0 0 1 -1.405999 4.614562 78.699901 78.699901 0 0 1 -3.605126 8.291789zm-78.988311-100.619067a3.388818 3.388818 0 0 0 -2.487537 1.045486 3.605126 3.605126 0 0 0 -1.009436 2.487537 3.821434 3.821434 0 0 0 1.009436 2.487537l.540769.540769v.901282c-.252359 9.481481 1.009435 42.32418 27.543163 66.94719a87.568511 87.568511 0 0 0 51.228841 22.568089c1.081538-2.271229 2.054922-4.57851 2.8841-6.849739a21.847064 21.847064 0 0 0 1.225743-4.073793 18.02563 18.02563 0 0 0 .180257-5.912406 141.104633 141.104633 0 0 1 -44.415153-28.372342 142.943247 142.943247 0 0 1 -34.465005-50.832277 3.605126 3.605126 0 0 0 -2.235178-.937333z"/><path d="m304.128433 714.572032h23.577524q4.686664 0 4.686664 4.686664v53.21166q0 4.686664-4.686664 4.686664h-23.577524q-4.686664 0-4.686664-4.686664v-53.21166q0-4.686664 4.686664-4.686664z" fill="#338fc9"/><g fill="#fff"><path d="m308.526686 742.872272h-.036051q6.885791 0 6.885791 6.88579v-.036051q0 6.885791-6.885791 6.885791h.036051q-6.885791 0-6.88579-6.885791v.036051q0-6.885791 6.88579-6.88579z"/><path d="m323.812421 742.872272h-.036051q6.885791 0 6.88579 6.88579v-.036051q0 6.885791-6.88579 6.885791h.036051q-6.885791 0-6.885791-6.885791v.036051q0-6.885791 6.885791-6.88579z"/><path d="m308.526686 759.167441h-.036051q6.885791 0 6.885791 6.885791v-.036051q0 6.885791-6.885791 6.88579h.036051q-6.885791 0-6.88579-6.88579v.036051q0-6.885791 6.88579-6.885791z"/><path d="m323.812421 759.167441h-.036051q6.885791 0 6.88579 6.885791v-.036051q0 6.885791-6.88579 6.88579h.036051q-6.885791 0-6.885791-6.88579v.036051q0-6.885791 6.885791-6.885791z"/></g><path d="m496.894522 735.301507a41.819462 41.819462 0 1 0 83.638924 0 41.819462 41.819462 0 1 0 -83.638924 0z" fill="#ed1c24"/><g fill="#fff"><path d="m529.520913 686.091536h.036051q9.193071 0 9.193071 9.193072v78.050979q0 9.193071-9.193071 9.193071h-.036051q-9.193071 0-9.193072-9.193071v-78.050979q0-9.193071 9.193072-9.193072z"/><path d="m562.652021 686.091536h.036051q9.193071 0 9.193072 9.193072v22.89255q0 9.193071-9.193072 9.193072h-.036051q-9.193071 0-9.193072-9.193072v-22.89255q0-9.193071 9.193072-9.193072z"/><path d="m562.652021 745.864526h.036051q9.193071 0 9.193072 9.193072v22.89255q0 9.193071-9.193072 9.193071h-.036051q-9.193071 0-9.193072-9.193071v-22.89255q0-9.193071 9.193072-9.193072z"/></g><path d="m1014.374313 99.285171a95.211379 95.211379 0 0 0 -39.115617-66.875088c-27.146599-19.720039-58.655401-26.930292-95.860301-22.02732-61.575553 8.075482-101.952964 55.951556-98.167582 116.373469l.612871 10.130404h20.29686c7.606816 0 14.781017-.216308 21.883115.216307a20.29686 20.29686 0 0 0 15.357837-4.362202 20.58527 20.58527 0 0 0 6.02056-15.285735c.86523-18.710604 7.42656-33.491621 19.035066-42.684692s27.038445-12.113223 45.064075-8.796507c19.467681 3.605126 31.977468 14.132094 37.132798 31.292494 4.758766 15.826503 1.045487 30.102802-11.392198 43.694127-17.484861 19.107168-36.05126 39.656386-52.598789 61.287143-15.826503 20.765526-16.331221 45.640896-16.763836 67.596113l-.360513 15.574144h60.962682l2.127024-8.003379.180256-.540769a15.898606 15.898606 0 0 0 .757077-4.254049v-1.44205a47.623715 47.623715 0 0 0 0-6.705535c-1.838614-17.484861 3.821434-32.878749 17.268554-47.082946 5.73215-6.056612 11.752711-12.113223 17.593015-18.02563 8.760456-8.86861 17.845374-18.02563 26.353471-27.507112a92.759893 92.759893 0 0 0 23.613575-72.571187z" fill="#ff0"/><path d="m927.851289 287.220391h-64.171244l.396564-17.412758c.468666-22.243628.973384-47.443459 17.124349-68.497395 16.691734-22.02732 35.18603-42.504436 52.706942-61.683707 11.969018-13.086608 15.574144-26.786086 10.995635-41.963667-4.939023-16.439375-16.980144-26.533728-35.726799-29.994648-17.484861-3.280665-32.446134-.360513-43.622025 8.399943s-17.520913 23.18096-18.350092 41.350796a22.351781 22.351781 0 0 1 -6.597381 16.58358 22.02732 22.02732 0 0 1 -16.691733 4.794817c-6.957893-.432615-13.987889-.324461-21.630756-.252358h-22.315731l-.721025-11.824814c-3.857485-61.287143 37.168849-110.064498 99.753838-118.284185 37.709618-4.939023 69.470779 2.379383 97.122095 22.351781a97.338403 97.338403 0 0 1 39.872694 68.136882 94.742712 94.742712 0 0 1 -24.154344 74.085341c-8.5802 9.553584-17.665118 18.674553-26.461625 27.543163-5.479792 5.515843-11.680608 11.788762-17.520913 18.02563-13.086608 13.807633-18.60245 28.841008-16.799887 45.676947a50.90438 50.90438 0 0 1 0 6.921842v1.44205a15.934657 15.934657 0 0 1 -.865231 4.722715v.540769zm-60.457964-3.605126h57.682017l1.982819-7.210252a13.663428 13.663428 0 0 0 .684974-3.605126v-1.44205a44.451204 44.451204 0 0 0 0-6.489227c-1.910717-18.02563 3.929587-33.888185 17.773271-48.488945 5.876355-6.200817 12.113223-12.473736 17.593015-18.02563 8.760456-8.796508 17.809323-18.02563 26.31742-27.398958a90.849176 90.849176 0 0 0 23.253063-71.273342 93.408816 93.408816 0 0 0 -38.394592-65.613294c-26.858189-19.431629-57.682017-26.497676-94.526405-21.630756-60.746374 7.678918-100.474863 54.761865-96.761583 114.210393l.540769 8.435995h18.602451c7.823124 0 14.925222-.216308 21.991268.216307a18.530348 18.530348 0 0 0 14.059992-3.893536 19.071117 19.071117 0 0 0 5.407689-14.02394c.86523-19.251373 7.71497-34.501056 19.720039-44.018589s27.939727-12.58189 46.506126-9.15702c20.188706 3.605126 33.16716 14.708914 38.538798 32.446134 4.975074 16.475426 1.117589 31.364597-11.788762 45.460639-17.484861 19.071117-36.05126 39.656386-52.490636 61.287143-15.465991 20.260808-15.970708 44.811717-16.403323 66.514576z"/><path d="m866.131531 307.300944h63.197859v63.52232h-63.197859z" fill="#ff0"/><path d="m931.095902 372.589776h-66.802986v-67.127447h66.802986zm-63.197859-3.605126h59.592733v-59.917195h-59.592733z"/></svg>