<svg height="25" viewBox="0 0 1024 1024" width="25" xmlns="http://www.w3.org/2000/svg">
    <path d="m128.6 469.3h665l-204.5-204.5c-16.7-16.7-16.7-43.7 0-60.3 16.6-16.7 43.7-16.7 60.3 0l277.3 277.3c2 2 3.8 4.2 5.3 6.5.7 1 1.2 2.2 1.8 3.3.7 1.4 1.6 2.7 2.2 4.1s.9 2.9 1.3 4.3c.4 1.2.8 2.4 1.1 3.7 1.1 5.5 1.1 11.2 0 16.7-.3 1.3-.7 2.4-1.1 3.7-.4 1.4-.8 2.9-1.3 4.3-.6 1.4-1.4 2.7-2.2 4.1-.6 1.1-1.1 2.2-1.8 3.3-1.6
 2.4-3.4 4.5-5.3 6.5l-277.3 277.2c-8.3 8.3-19.2 12.5-30.2 12.5-10.9 0-21.8-4.2-30.2-12.5-16.7-16.7-16.7-43.7 0-60.3l204.5-204.5h-665c-23.6 0-42.7-19.1-42.7-42.7.1-23.6 19.2-42.7 42.8-42.7z"
          fill="#bdbdbd"/>
</svg>