<svg height="30" viewBox="0 0 1024 1024" width="30" xmlns="http://www.w3.org/2000/svg">
    <path d="m194.123 260.391a32 32 0 1 0 64 0 32 32 0 1 0 -64 0z" fill="#fff"/>
    <path d="m401.524 287.683c-4.503-3.199-10.746-2.14-13.943 2.359-.32.45-32.26 44.731-73.382 44.731-.228 0-.458-.001-.687-.004-22.442-.27-44.11-13.986-64.525-40.789 11.507-7.5 19.135-20.473 19.135-35.203 0-23.159-18.841-42-42-42s-42 18.841-42 42 18.841 42 42 42c.993 0 1.975-.047 2.952-.115 25.393 35.534 53.696 53.739 84.199 54.106.299.004.599.006.898.006 21.433 0 43.715-9.183 64.5-26.594 15.497-12.981 24.823-26.006 25.212-26.554 3.2-4.501 2.143-10.745-2.359-13.943zm-197.402-28.905c0-12.131 9.869-22 22-22s22 9.869 22 22c0 10.133-6.888 18.682-16.226 21.226a9.76 9.76 0 0 0 -1.131.277 22 22 0 0 1 -4.643.497c-12.13 0-22-9.869-22-22z"
          fill="#723703"/>
    <path d="m910.299 293.899-469.084-125.69-21.249-5.694-31.899 119.049 21.274 5.598.036-.133 29.693 7.957 20.634 5.43-20.634-5.43 439.391 117.734-97.337 363.267c-10.737-23.702-31.613-42.584-58.708-49.844-48.012-12.865-97.362 15.627-110.227 63.64-12.865 48.012 15.627 97.362 63.64 110.227 46.86 12.557 94.99-14.288 109.232-60.223l.462.124 144.861-540.63z"
          fill="#aee2ff"/>
    <path d="m275.452 701.852c-10.85-23.296-31.543-41.809-58.308-48.98-48.012-12.865-97.362 15.628-110.227 63.64s15.628 97.362 63.639 110.227c47.375 12.694 96.049-14.88 109.692-61.74l.987.264 128.106-478.101-21.274-5.598z"
          fill="#64d0ff"/>
    <path d="m541.607 188.996a60 60 0 1 0 120 0 60 60 0 1 0 -120 0z" fill="#fff"/>
    <path d="m583.489 256.61c-37.282-9.99-59.487-48.45-49.497-85.732s48.45-59.487 85.732-49.497 59.487 48.45 49.497 85.732-48.449 59.487-85.732 49.497zm31.059-115.911c-26.631-7.136-54.102 8.724-61.237 35.355-7.136 26.631 8.724 54.102 35.355 61.237 26.631 7.136 54.102-8.724 61.237-35.355 7.136-26.631-8.724-54.101-35.355-61.237z"
          fill="#723703"/>
    <path d="m585.607 188.996a16 16 0 1 0 32 0 16 16 0 1 0 -32 0z" fill="#723703"/>
    <path d="m700.946 231.691a60 60 0 1 0 120 0 60 60 0 1 0 -120 0z" fill="#fff"/>
    <path d="m742.829 299.305c-37.282-9.99-59.487-48.45-49.497-85.732s48.45-59.487 85.732-49.497c37.283 9.99 59.487 48.45 49.497 85.732s-48.449 59.487-85.732 49.497zm31.059-115.911c-26.631-7.136-54.102 8.724-61.237 35.355-7.136 26.631 8.724 54.102 35.355 61.237 26.631 7.136 54.102-8.724 61.237-35.355 7.136-26.631-8.724-54.101-35.355-61.237z"
          fill="#723703"/>
    <path d="m744.946 231.691a16 16 0 1 0 32 0 16 16 0 1 0 -32 0z" fill="#723703"/>
    <path d="m686.397 391.574a32 32 0 1 0 64 0 32 32 0 1 0 -64 0z" fill="#fff"/>
    <path d="m889.573 426.718c-4.495-3.202-10.734-2.153-13.943 2.334-.322.45-32.459 44.743-73.397 44.743-.251 0-.509-.001-.761-.005-22.695-.305-44.599-14.357-65.213-41.797 13.377-7.032 22.525-21.061 22.525-37.195 0-23.159-18.841-42-42-42s-42 18.841-42 42c0 22.579 17.911 41.045 40.27 41.956 25.918 37.465 54.928 56.659 86.258 57.035.3.003.6.005.899.005 21.433 0 43.715-9.183 64.501-26.594 15.496-12.98 24.823-26.006 25.212-26.554 3.197-4.495 2.142-10.726-2.351-13.928zm-194.789-31.919c0-12.131 9.869-22 22-22s22 9.869 22 22-9.869 22-22 22-22-9.869-22-22z"
          fill="#723703"/>
    <path d="m650.008 799.452c11.085-41.371 49.261-68.245 90.327-66.659a90.303 90.303 0 0 0 -18.737-7.334c-48.012-12.865-97.362 15.628-110.227 63.64s15.628 97.362 63.64 110.227a90.18 90.18 0 0 0 19.848 2.993c-36.329-19.17-55.931-61.514-44.851-102.867z"
          fill="#64d0ff"/>
    <path d="m102.209 738.911a90.5 90.5 0 1 0 181 0 90.5 90.5 0 1 0 -181 0z" fill="#aee2ff"/>
    <path d="m145.41 727.074c11.086-41.373 49.264-68.247 90.332-66.658a90.235 90.235 0 0 0 -18.742-7.334c-48.012-12.865-97.362 15.628-110.227 63.64s15.628 97.362 63.64 110.227a90.308 90.308 0 0 0 19.902 3.022c-36.363-19.158-55.991-61.523-44.905-102.897zm263.823-439.835 17.389 4.659 31.838-118.82-17.389-4.66-21.248-5.694-31.993 118.748 21.249 5.694z"
          fill="#64d0ff"/>
    <path d="m873.642 352.359a6.795 6.795 0 0 1 -6.564-8.564l12.764-47.349a6.795 6.795 0 0 1 13.121 3.537l-12.764 47.349a6.799 6.799 0 0 1 -6.557 5.027zm-12.329 45.695a6.378 6.378 0 0 1 -6.151-8.088l3.403-12.257a6.38 6.38 0 0 1 12.294 3.414l-3.403 12.257a6.38 6.38 0 0
1 -6.143 4.674z" fill="#fff"/>
</svg>