<svg height="60" viewBox="0 0 1058 1024" width="60" xmlns="http://www.w3.org/2000/svg"><path d="m1037.20463 832.735668-147.43463-224.544261h109.82827l-137.073318-208.754424h84.357223l-141.805352-215.952853-161.360332 215.952853h103.268973l-155.989165 208.754424h130.178068l-167.780331 224.544261h212.654768v172.8729h58.529737v-172.8729zm-552.636091-34.906438-147.664062-269.873465h109.996247l-137.286362-250.900259h84.488327l-142.02659-259.561317-161.606152 259.561317h103.424659l-156.230888 250.900259h130.374723l-168.038441 269.873465h212.986625v207.779338h58.619871v-207.779338z" fill="#006b33" opacity=".23"/><path d="m243.93536 699.099732s53.51501 131.632502 14.605804 293.291916h217.095915c43.956709-60.356999 51.618099-136.016292 59.394205-208.459441z" fill="#f7d5b6"/><path d="m475.641176 998.537147h-217.095915a6.133209 6.133209 0 0 1 -5.973425-7.579449c38.007866-157.914755-13.798695-288.240315-14.327208-289.539064a6.153694 6.153694 0 0 1 7.415569-8.218581l291.10002 84.832475a6.1455 6.1455 0 0 1 4.387887 6.559296l-.278596 2.634371c-7.79659 72.676677-15.863583 147.832039-60.258671 208.7872a6.161888 6.161888 0 0 1 -4.969661 2.523752zm-209.36078-12.290999h206.206091c40.388223-57.202309 48.451118-128.580238 55.891269-197.852308l-274.642373-80.034888c11.602703 35.238294 41.940986 146.811886 12.545013 277.887196z" fill="#6e6e96"/><path d="m398.515158 744.748503s36.995907 128.092695-30.416126 247.643145h107.542144c43.956709-60.356999 51.618099-136.016292 59.394205-208.459441l-136.60626-39.814642c.036873.213044.049164.417894.086037.630938z" fill="#6e6e96" opacity=".1"/><path d="m191.981307 551.628229c-2.634371-59.156578-22.386006-124.58976-37.889052-175.687539-23.127563-86.118933-32.780094-114.154702-32.780095-164.781327l95.247048-14.781975c35.422659 72.389887 81.464741 136.311276 144.357784 180.325343z" fill="#5da39e"/><path d="m191.97721 557.773729a6.153694 6.153694 0 0 1 -6.137305-5.875098c-2.613886-58.775557-22.853064-125.470615-37.630942-174.175747a9591.485923 9591.485923 0 0 0 -8.296424-30.633266c-17.502383-64.351574-24.749975-90.986169-24.749975-135.934352 0-3.03178 2.208283-5.608793 5.203189-6.071754l95.247049-14.781974a6.157791 6.157791 0 0 1 6.460968 3.37183c39.236966 80.186478 85.803464 138.40894 142.362544 177.990054a6.133209 6.133209 0 0 1 .897243 9.304286l-168.935684 174.925498a6.125015 6.125015 0 0 1 -4.420663 1.880523zm-64.486774-341.353819c.565386 40.261216 7.788396 66.817968 24.282917 127.445369 2.536043 9.316577 5.281033 19.419778 8.251357 30.477581 13.770016 45.370174 32.300745 106.448245 37.172078 163.02781l154.346269-159.81986c-54.711334-39.966232-100.10609-97.135765-138.507268-174.413372z" fill="#6e6e96"/><path d="m761.161083 749.279784-.024582.016388c13.966672-31.223234 21.398629-70.41923 21.39863-119.558644 0-158.455559-114.62176-286.896499-256.001025-286.896499-141.391556 0-326.772597 80.026695-326.772596 238.478157 0 93.452562 85.336406 193.636495 206.599402 249.183617h-.004097l.008194.004097a305.488683 305.488683 0 0 0 28.195552 12.065664c39.605696 17.985829 109.303854 53.71986 130.878654 91.072205l30.723401 53.174959 234.442612-22.390103c-46.472267-52.318686-69.755516-131.952068-69.755517-197.315601 0-10.578453-3.449674-16.56417.311372-17.83424z" fill="#f7d5b6"/><path d="m596.162616 992.969325a6.149597 6.149597 0 0 1 -5.322003-3.07275l-30.7234-53.174959c-20.665266-35.775001-88.913087-70.742893-127.900136-88.462417a314.002249 314.002249 0 0 1 -28.551991-12.229544c-125.585331-57.530069-210.049076-159.914091-210.049076-254.710469 0-93.75574 61.594293-151.744674 113.265653-183.877442 61.164108-38.036545 143.280272-60.746214 219.652443-60.746214 144.546245 0 262.146524 131.456331 262.146524 293.041998 0 48.930467-7.112391 88.728722-21.742777 121.635823a6.190566 6.190566 0 0 1 -1.302846 2.118149c.086037.725169.225335 1.622412.344148 2.409036.426088 2.794154 1.011959 6.616654 1.011959 11.217585 0 70.738796 26.773893 146.582454 68.202753 193.230892a6.1455 6.1455 0 0 1 -4.010962 10.197432l-234.442612 22.390104a4.5067 4.5067 0 0 1 -.577677.032776zm-69.62851-643.982796c-74.176179 0-153.862823 22.017276-213.162795 58.89437-49.024698 30.489872-107.464301 85.328212-107.464302 173.438287 0 90.076635 81.583554 187.974442 203.010431 243.599406a301.485915 301.485915 0 0 0 27.773561 11.889493c.139298.053261.274499.106522.4097.167977 40.293992 18.301298 111.241735 54.789177 133.660517 93.600055l28.748646 49.753964 218.882208-20.902893c-38.954273-49.135317-63.68786-123.143519-63.68786-192.309067 0-3.666815-.458864-6.6904-.868564-9.357547-.569483-3.711882-1.458532-9.529621 2.478685-12.749863 13.507808-31.047063 20.075298-68.78043 20.075298-115.269086 0-154.809229-112.085717-280.755096-249.855525-280.755096z" fill="#6e6e96"/><path d="m432.557128 751.733887c-94.366193-69.657188-168.947975-111.000012-227.744018-130.452566 19.89503 80.969004 97.451234 161.544697 201.543705 209.221482h-.004097l.008194.004097a306.451478 306.451478 0 0 0 28.195552 12.065664c39.605696 17.985829 109.303854 53.723957 130.878654 91.072205l30.723401 53.174959 172.303418-16.457648c-133.717875-176.30209-335.904809-218.628193-335.904809-218.628193z" fill="#6e6e96" opacity=".1"/><path d="m738.709525 468.786896c.684199-31.759941 4.605028-65.068549 12.63105-100.208515l-445.913347-26.884512s-6.604363 9.337062-16.154469 25.831583c-30.825826 139.072654 106.608028 180.919408 225.716002 202.99814 103.010863 19.087921 179.419906-39.785964 223.720764-101.736696z" opacity=".09"/><path d="m553.996295 576.226615h-.020485c-12.905549 0-26.151149-1.245488-39.363973-3.691396-77.699599-14.400954-172.012531-38.67158-211.962375-99.032676-19.370614-29.264869-24.545125-65.068549-15.380136-106.423664a1.982948 1.982948 0 0 1 .229432-.581774c9.484554-16.383902 16.191343-25.893038 16.256894-25.987269.4097-.577677 1.06522-.864467 1.794486-.86037l445.913347 26.884512a2.044403 2.044403 0 0 1 1.872329 2.49917c-7.640904 33.460196-11.873105 67.035109-12.577789 99.794718a2.028015 2.028015 0 0 1 -.385118 1.14716c-28.371723 39.683539-90.326552 106.251589-186.376612 106.251589zm-262.79385-207.951412c-8.82084 40.093239-3.822501 74.733371 14.863915 102.965796 39.097668 59.074638 132.38635 83.013407 209.291131 97.266869 12.962907 2.400842 25.954493 3.621748 38.614222 3.621748h.020485c93.809001 0 154.596185-64.925154 182.681118-104.022822.733363-32.071313 4.813975-64.896475 12.135313-97.631502l-442.353054-26.667371c-1.868232 2.724505-7.628613 11.324107-15.25313 24.467282z" fill="#6e6e96" opacity=".09"/><path d="m224.159143 187.003453c-10.267081-17.399958-35.226003-27.335182-62.442372-23.119369-33.411032 5.190899-57.566942 29.740121-53.949292 54.850631.225335 1.606024.565386 3.076847.979183 4.42476.053261 1.839553.192559 3.703688.467058 5.596501 2.597498 18.088254 14.43373 31.239622 26.429745 29.379585 9.001108-1.39298 20.87831-11.668255 22.480237-23.930575 1.745322-.258111-1.814971.28679 0 0 4.986049 11.23807 13.888829 18.289007 22.88584 16.89193 7.501606-1.163548 13.290667-7.935888 15.937329-17.256563 5.158123 8.112059 12.594177 12.827706 20.09988 11.664158 11.996015-1.864135 19.612337-18.022702 17.002549-36.119149-1.315137-9.177279-5.006534-17.064004-9.890157-22.381909z" fill="#f7d5b6"/><path d="m133.36963 264.461329c-14.388663 0-27.388443-14.974534-30.239954-34.824498a52.974206 52.974206 0 0 1 -.499834-5.481785 34.414797 34.414797 0 0 1 -.950504-4.564058c-4.084709-28.355335 22.422879-56.079731 59.091026-61.774561a87.675793 87.675793 0 0 1 13.360316-1.036541c23.987933 0 44.985056 10.156462 54.985832 26.556752 5.69483 6.428192 9.59927 15.343264 11.012736 25.18016 3.134205 21.730486-6.592072 40.650431-22.144284 43.067661a20.820952 20.820952 0 0 1 -3.216144.249917c-5.715315 0-11.299525-2.314805-16.138082-6.551103-4.080612 6.583878-9.92703 10.848855-16.682983 11.897687-8.128447 1.249585-16.215925-2.351678-22.484334-9.447681-5.576017 8.841325-14.880303 15.244936-22.88584 16.48223-1.06522.16388-2.134537.24582-3.207951.24582zm40.765147-95.394541c-3.789725 0-7.653195.299081-11.479793.893146-30.043299 4.666483-51.937665 26.155246-48.807557 47.898023.167977 1.212712.426088 2.380357.770236 3.490644.16388.53261.254014 1.081608.270402 1.6388.049164 1.753516.180268 3.351346.405603 4.883624 2.155022 15.011407 11.057802 24.295208 18.075962 24.295208.442476 0 .889049-.032776 1.331525-.102425 5.588308-.864467 14.544349-7.685971 16.89193-16.445357a5.604696 5.604696 0 0 1 -.12291-.839885c-.016388-.225335-.364633-5.432622 5.289226-6.56749l.114716-.020485.290887-.049164c1.052929-.159783 1.43395-.139298 1.458532-.147492a6.1455 6.1455 0 0 1 6.129112 5.674344l.008194.147492c3.965896 7.558964 9.832799 12.05747 15.310487 11.213488 4.79349-.745654 8.890489-5.551435 10.967669-12.860482a6.1455 6.1455 0 0 1 11.098772-1.618315c3.576681 5.629278 8.300521 8.988817 12.639244 8.988818.442476 0 .884952-.032776 1.331524-.102425 8.517662-1.323331 13.950284-14.67955 11.864912-29.170638-1.085705-7.55077-4.125679-14.511573-8.337395-19.104309a6.075851 6.075851 0 0 1 -.766139-1.032444c-7.665486-12.991586-24.807333-21.062675-44.735139-21.062676z" fill="#6e6e96"/><path d="m836.463937 975.282577c1.806777-14.052709-19.317353-41.547674-50.175955-46.119925-25.921717-3.842986-48.766587.925922-56.669699 10.791497-7.124682-11.77068-23.516778-18.116933-45.357883-18.116933-20.628393 0-38.229104 13.118593-45.370175 27.294212-.585871.131104-1.089802.274499-1.642897.417894-7.423763-5.662054-19.907321-7.735135-31.66571-4.871333-18.063672 4.38379-30.194888 19.071533-27.109847 32.80058 1.339719 5.961135 5.002437 9.193667 10.164656 10.590744 2.962131 3.56439 21.837008 13.6553 141.059699 13.6553 92.842109 0 104.44891-14.892594 104.448909-14.892594s3.330861-4.95737 2.318902-11.549442z" fill="#f7d5b6"/><path d="m729.696126 1007.866015c-83.558308 0-132.001232-4.818072-144.161127-14.323111-6.915735-2.343484-11.418338-7.407375-13.061235-14.720519-3.81021-16.961579 10.389991-34.955601 31.661613-40.121918 10.959474-2.654856 23.193115-1.479017 32.009858 2.966228 8.792161-13.253794 26.364193-25.974978 48.115165-25.974978 20.67346 0 36.729602 5.371167 46.164992 15.269518 8.521759-5.952941 21.972209-9.27151 38.30285-9.271511 6.010299 0 12.22135.467058 18.465177 1.397077 34.234529 5.072086 56.825385 34.677005 55.461085 52.097448.962795 8.28823-2.945743 14.39276-3.408704 15.076959a5.40804 5.40804 0 0 1 -.254014.348245c-2.245156 2.880191-18.075963 17.256563-109.29566 17.256562zm-113.409048-58.328984c-3.130108 0-6.23973.372827-9.255122 1.10619-14.544349 3.531614-24.876982 15.199869-22.566274 25.483338.753848 3.35954 2.429521 5.100765 5.772672 6.006201 1.225003.331857 2.310708 1.032444 3.126011 2.00753 1.175839 1.06522 15.929135 11.434726 136.327664 11.434726 80.743669 0 98.012523-11.303622 99.49154-12.434394.438379-.831691 1.712546-3.60536 1.204518-6.923929a6.178275 6.178275 0 0 1 -.020485-1.716643c1.372495-10.668587-17.113168-35.123578-44.98096-39.257451a114.314485 114.314485 0 0 0 -16.662497-1.261876c-16.068433 0-29.535271 3.85118-34.308276 9.816412a6.247924 6.247924 0 0 1 -5.199092 2.294319 6.1455 6.1455 0 0 1 -4.859042-2.953936c-5.830031-9.632046-20.444028-15.150705-40.101432-15.150705-19.124794 0-34.078843 12.393424-39.880195 23.914187-.827594 1.6388-2.343484 2.822833-4.133873 3.228436l-1.499502.385118a6.133209 6.133209 0 0 1 -5.227771-1.077511c-4.072418-3.11372-10.353118-4.900012-17.227884-4.900012z" fill="#6e6e96"/><path d="m489.63243 983.222562c1.724837-14.056806-18.420111-41.535383-47.840665-46.103537-24.717199-3.842986-46.500946.917728-54.031231 10.791497-6.796922-11.774777-22.431073-18.12103-43.26022-18.121029-19.661501 0-36.446909 13.114496-43.264316 27.294211-.548998.131104-1.032444.274499-1.573248.413797-7.067324-5.65386-18.981399-7.731038-30.1785-4.871332-17.223787 4.38379-28.793714 19.067436-25.847971 32.800579 1.278264 5.965232 4.760714 9.197764 9.693501 10.594841 2.818736 3.56439 20.820952 13.651203 134.484015 13.651203 88.523872 0 99.593965-14.892594 99.593964-14.892594s3.199757-4.953273 2.224671-11.557636z" fill="#f7d5b6"/><path d="m387.821989 1015.814195c-79.674353 0-125.937673-4.83446-137.683771-14.372275-6.637139-2.380357-10.943086-7.440151-12.504043-14.736908-3.629942-16.89193 9.984388-34.857273 30.338282-40.039978 10.410476-2.654856 22.029567-1.532278 30.502163 2.806445 8.472595-13.216921 25.249809-25.827486 46.025694-25.827486 19.702471 0 35.033444 5.317906 44.108299 15.13022 8.243163-5.805449 21.197876-9.132212 36.41823-9.132212 5.764479 0 11.721516.471155 17.707232 1.401174 32.7719 5.088474 54.404059 34.693393 53.080728 52.076962.930019 8.239066-2.794154 14.302626-3.23663 14.986825-2.384454 3.23663-17.555644 17.707233-104.756184 17.707233zm-108.140307-58.320791c-2.933452 0-5.850516.364633-8.673348 1.085705-13.798695 3.511129-23.574136 15.216257-21.353562 25.552987.721072 3.371831 2.273835 5.100765 5.358875 5.973426 1.245488.352342 2.347581 1.089802 3.146496 2.105858 1.122578 1.040638 15.265421 11.315913 129.661846 11.315913 74.176179 0 92.137426-10.717751 94.669371-12.561401.516222-1.102093 1.519987-3.724173 1.057026-6.837893a6.161888 6.161888 0 0 1 -.020485-1.646994c1.31104-10.684975-16.220022-35.172742-42.682543-39.282032-21.230652-3.306279-42.186806.553095-48.201201 8.443916a6.211051 6.211051 0 0 1 -5.281032 2.409036 6.133209 6.133209 0 0 1 -4.928691-3.060459c-5.522756-9.562397-19.350129-15.04828-37.938217-15.04828-18.055478 0-32.210611 12.34426-37.725173 23.811762a6.1455 6.1455 0 0 1 -4.101097 3.314473l-1.511792.401506c-1.872329.458864-3.842986.04097-5.338391-1.163548-3.802016-3.060459-9.689404-4.813975-16.138082-4.813975z" fill="#6e6e96"/><path d="m916.412789 270.012763-119.902793-15.814419c-14.810654 46.132216-20.292439 52.494857-45.165324 91.563846.04097-17.010743-4.527185 18.456984 0 0l-445.917444-25.008086s-139.920733 107.181608-109.197332 268.845118c0 0 47.193339 218.435634 541.926534 171.639704 0 0 103.920397-.098328 84.1155-135.455003-15.871777-125.269862 62.610349-196.172538 94.140859-355.77116z" fill="#5da39e"/><path d="m606.810718 773.951916h-.057358c-107.034116-.004097-254.395-15.699703-348.572732-90.445364-57.198212-45.390659-67.547234-90.707573-67.96103-92.608581-31.100324-163.646458 110.037217-273.929495 111.471167-275.023394 1.167645-.889049 2.630274-1.331525 4.080611-1.257779l439.128716 24.627066c.962795-2.450006 2.740893-4.564058 6.120917-4.387887l1.233197-1.929687c19.808993-30.940541 25.130996-39.261548 38.409372-80.604371a6.165985 6.165985 0 0 1 6.653527-4.215813l119.902793 15.814419a6.161888 6.161888 0 0 1 5.223674 7.284465c-13.290667 67.272735-34.996571 119.288242-54.150044 165.178736-26.269962 62.946303-48.959146 117.313488-39.921165 188.625864 7.042742 48.123358-.389215 85.336406-22.10741 110.487887-26.216701 30.366962-63.675569 31.817299-67.788957 31.878755-46.201865 4.363305-90.50682 6.575684-131.665278 6.575684zm-299.371863-446.9335c-15.773449 12.975198-132.972221 115.15437-105.174078 261.429549.061455.262208 10.185141 43.47736 64.494968 86.172194 91.4901 71.93512 235.389019 87.036661 339.997712 87.040758h.049164c40.859378 0 84.85296-2.200089 130.772132-6.547005.192559-.020485.385118-.028679.577677-.028679.335954 0 35.488211-.499834 58.914855-27.744882 19.19854-22.328648 25.634927-56.202641 19.124795-100.671476-9.464069-74.684207 13.810986-130.448469 40.756953-195.021281 18.309492-43.874769 38.987049-93.411592 52.130223-156.402962l-108.300089-14.286238c-12.676117 38.757617-18.989593 48.619095-38.175843 78.592744l-5.535046 8.665155c-1.253682 5.022922-2.572916 9.177279-7.534383 9.177279-1.778098 0-3.531614-.803012-4.695161-2.146828-.90134-1.032444-1.409368-2.142731-1.581442-3.78153z" fill="#6e6e96"/><path d="m929.093003 256.177195c-5.358876-22.414685-29.006758-41.994247-59.767031-47.103205-37.741561-6.272506-71.877762 11.635479-76.245164 39.999008a35.959366 35.959366 0 0 0 -.4097 5.121249c-.540804 1.999336-1.003765 4.060127-1.339719 6.206955-3.142399 20.435834 5.289227 38.827266 18.846198 41.072422 10.164656 1.687964 26.360096-5.170414 32.128672-17.838337 1.970657.340051-2.0485-.335954 0 0 1.687964 13.897023 8.964235 24.668035 19.132988 26.347805 8.472595 1.409368 16.953385-3.834792 22.873549-12.95881 2.892482 10.590744 9.373935 18.317686 17.846531 19.722956 13.548778 2.25335 27.085265-12.487655 30.235857-32.927586 1.593733-10.344924.200753-20.169529-3.302181-27.642457z" fill="#f7d5b6"/><path d="m904.912511 323.12217c-.004097 0-.004097 0 0 0-1.261876 0-2.523752-.106522-3.765143-.311372-7.669583-1.274167-14.245268-6.350349-18.678222-14.126455-6.538811 5.916068-14.425536 8.624184-22.045955 7.358211-9.140406-1.511793-16.650207-8.443916-20.894698-18.661833-9.02569 8.095671-21.49286 11.623188-30.366962 10.152365-17.113168-2.839221-27.613778-23.955157-23.91009-48.070097.311372-1.991142.733363-3.998672 1.278264-6.116821.045067-1.642897.196656-3.380025.458864-5.17451 4.21991-27.396637 31.899239-46.500946 67.317802-46.500946 5.297421 0 10.684975.45067 16.019268 1.335622 32.358103 5.375264 58.222462 25.880747 64.5892 51.130555 3.97409 8.82084 5.231869 19.661501 3.543905 30.612782-3.35954 21.877978-17.789173 38.372499-33.546233 38.372499zm-20.603812-32.243388a6.1455 6.1455 0 0 1 5.928359 4.527185c2.351678 8.61599 7.186137 14.327208 12.926034 15.281809 10.185141 1.675673 20.59152-11.184809 23.152145-27.80224 1.339719-8.677445.319566-17.461413-2.794154-24.098552a6.297088 6.297088 0 0 1 -.413797-1.179936c-4.887721-20.460416-27.421219-37.921829-54.79737-42.469498a85.815755 85.815755 0 0 0 -14.003545-1.167645c-28.748647 0-51.945859 15.158899-55.162004 36.041306a29.928583 29.928583 0 0 0 -.335954 4.199424c0 .536707-.073746 1.069317-.213044 1.585539-.53261 1.96656-.925922 3.785628-1.204518 5.555532-2.577013 16.785408 3.72827 32.390879 13.77821 34.058358 7.403278 1.233197 19.137085-3.6873 24.389439-12.188574l.008194-.192559a6.1455 6.1455 0 0 1 6.125015-5.633374c.04097.004097.335954-.004097 1.110287.102425l.077843.012291a7.522091 7.522091 0 0 1 .700587.118812l.196656.04097c5.588308 1.245488 5.219578 6.36264 5.203189 6.587976a6.448677 6.448677 0 0 1 -.20485 1.134869c1.851844 10.135977 7.169749 17.453219 13.651203 18.526632 5.805449.962795 12.024694-3.003101 16.715759-10.242499 1.155354-1.76171 3.105526-2.798251 5.166316-2.798251z" fill="#6e6e96"/><path d="m710.858121 963.434054s11.955045-27.273727 34.435283-32.558856" fill="#f7d5b6"/><path d="m710.854024 969.575456a6.153694 6.153694 0 0 1 -5.629277-8.611893c.540804-1.2291 13.479129-30.153918 38.659289-36.074082a6.133209 6.133209 0 0 1 7.390987 4.572252 6.149597 6.149597 0 0 1 -4.572252 7.390987c-19.161667 4.5067-30.112948 28.810102-30.219469 29.055922a6.153694 6.153694 0 0 1 -5.629278 3.666814z" fill="#6e6e96"/><path d="m387.764631 947.906425-22.980072 23.873217" fill="#f7d5b6"/><path d="m364.780462 977.925142a6.1455 6.1455 0 0 1 -4.428856-10.406379l22.980071-23.873217 8.853616 8.521759-22.980071 23.873217c-1.200421 1.253682-2.814639 1.88462-4.42476 1.88462zm330.656553-263.945107c-6.719079 0-11.270846-.467058-11.844426-.53261a6.1455 6.1455 0 0 1 1.32333-12.217253c.401506.036873 40.199761 4.084709 59.644122-13.393092 7.026354-6.309379 10.439155-14.568931 10.439155-25.241615a6.1455 6.1455 0 0 1 12.290999 0c0 14.175619-4.891818 25.75374-14.540252 34.406604-16.285574 14.613998-42.240067 16.977967-57.312928 16.977966z" fill="#6e6e96"/><path d="m162.138762 243.56663c-14.84343 59.291779 41.355115 123.516346 69.452338 175.699831 0 0 4.010963-4.010963 3.470159-2.204186l-44.608132 112.925602-63.315033-275.002909z" fill="#6e6e96" opacity=".15"/><path d="m332.823865 167.751651c.934116 42.047508-6.866571 76.048508-25.950396 76.474596-9.492748.213044-.512125-26.028239-18.842101-47.471935-15.748867-18.432402-23.13166-72.758617-23.602815-93.886844-.934116-42.047508 22.906325-62.368626 29.305838-20.669364 4.58864 29.817964 38.163552 43.506039 39.089474 85.553547z" fill="#f7d5b6"/><path d="m306.758753 250.375844c-9.488651 0-10.701363-9.820508-11.676449-17.71133-1.10619-8.972429-2.62208-21.263428-11.721516-31.915627-17.932568-20.993026-24.655744-78.990154-25.073638-97.742121-.434282-19.542688 4.248589-36.737796 12.213156-44.886729 4.002769-4.092903 7.935888-4.949176 10.533386-4.949175 6.596169 0 15.208063 4.871333 18.77655 28.093126 1.749419 11.369174 8.386558 20.226887 16.072529 30.477581 10.553871 14.077291 22.513013 30.035105 23.082497 55.870784 1.155354 52.109739-10.492416 82.27185-31.956598 82.7512a2.552431 2.552431 0 0 1 -.249917.012291zm-25.774225-184.91808c-2.560625.278596-10.959474 12.438491-10.410476 37.274503.528513 23.631494 8.374267 73.930359 22.131992 90.031567 11.504375 13.458644 13.352122 28.465954 14.577125 38.392984.274499 2.220574.622744 5.051601 1.032444 6.743662 11.926366-2.478685 19.251801-30.051493 18.362753-70.013628-.483446-21.890269-10.725945-35.553763-20.632491-48.770684-7.948179-10.603035-16.166761-21.570703-18.383237-35.983948-2.109955-13.745434-5.805449-17.440928-6.67811-17.674456z" fill="#6e6e96"/><path d="m763.598798 283.680354c22.939101 146.500514-132.599394 249.826846-251.096916 237.806249-185.831711-18.854392-285.265893-83.668927-258.381381-259.086065 22.160671-144.542148 126.896371-243.984524 258.381381-243.984524s228.469186 120.800035 251.096916 265.26434z" fill="#f7d5b6"/><path d="m531.614386 528.578509c-6.674012 0-13.315249-.32776-19.73115-.979183-118.251701-11.996015-192.055053-41.777106-232.2753-93.727061-32.56705-42.067993-42.89149-98.463193-31.563285-172.405843 11.094675-72.361208 42.231873-134.508596 90.047956-179.731279 48.049612-45.44392 108.361544-69.464629 174.409275-69.464629 126.470283 0 232.226135 111.217153 257.16867 270.459336 11.152033 71.214048-18.977302 124.110411-46.21006 155.944098-46.734475 54.617103-122.037329 89.904561-191.846106 89.904561zm-19.112504-504.016996c-62.847975 0-120.238746 22.861258-165.965359 66.109187-45.808553 43.321674-75.667487 103.031348-86.340171 172.659857-10.795594 70.431521-1.265973 123.758069 29.129668 163.019616 38.01606 49.102541 109.127683 77.392324 223.798606 89.023706 6.006202.606356 12.229544.917728 18.493857.917728 66.371395 0 138.007434-33.599494 182.50085-85.606808 25.561181-29.871225 53.84277-79.461309 43.411809-146.053941-23.99203-153.125363-124.749543-260.069345-245.02926-260.069345z" fill="#6e6e96"/><path d="m698.735099 169.316705c21.259331-27.417122 9.304286-71.029683 40.445581-71.029683 15.2941 0 24.614774 43.616658 24.614774 71.029683s-22.082828 49.639248-37.376928 49.639248" fill="#f7d5b6"/><path d="m726.418526 225.101453a6.1455 6.1455 0 1 1 0-12.290999c12.045179 0 31.231428-19.903224 31.231429-43.493749 0-33.460196-11.520763-64.884184-18.469275-64.884183-12.266417 0-15.167093 7.784299-19.77212 28.38811-2.925258 13.085817-6.23973 27.912859-15.814419 40.261216a6.1455 6.1455 0 0 1 -9.713986-7.526188c7.894918-10.176947 10.762818-23.00875 13.536487-35.414466 3.982284-17.809658 8.49308-37.995575 31.768135-37.995574 23.012847 0 30.760274 52.998788 30.760274 77.175182-.004097 30.039202-23.934672 55.78065-43.526525 55.780651z" fill="#6e6e96"/><path d="m388.731522 140.604932a20.312924 20.312924 0 1 0 40.625849 0 20.312924 20.312924 0 1 0 -40.625849 0z" fill="#5da39e"/><path d="m409.044447 167.063355c-14.589416 0-26.458424-11.869008-26.458424-26.458423s11.869008-26.458424 26.458424-26.458424 26.458424 11.869008 26.458424 26.458424-11.869008 26.458424-26.458424 26.458423zm0-40.625848c-7.812978 0-14.167425 6.354446-14.167425 14.167425s6.354446 14.167425 14.167425 14.167424 14.167425-6.354446 14.167425-14.167424-6.354446-14.167425-14.167425-14.167425z" fill="#6e6e96"/><path d="m506.819344 156.529969a20.312924 20.312924 0 1 0 40.625849 0 20.312924 20.312924 0 1 0 -40.625849 0z" fill="#5da39e"/><path d="m527.132268 182.988393c-14.589416 0-26.458424-11.869008-26.458424-26.458424s11.869008-26.458424 26.458424-26.458424 26.458424 11.869008 26.458424 26.458424-11.869008 26.458424-26.458424 26.458424zm0-40.625849c-7.812978 0-14.167425 6.354446-14.167425 14.167425s6.354446 14.167425 14.167425 14.167425c7.812978 0 14.167425-6.354446 14.167425-14.167425s-6.350349-14.167425-14.167425-14.167425z" fill="#6e6e96"/><path d="m763.598798 283.684451c-11.537151-73.668151-42.44082-141.129348-87.368518-189.609145 27.290115 37.340055 43.415905 83.218257 43.415906 132.857506 0 125.253474-102.437283 226.793514-228.805141 226.793513-196.500298 0-228.80514-101.54004-228.80514-226.793513 0-.811206.053261-1.614218.065552-2.425424a349.060275 349.060275 0 0 0 -7.980956 37.901344c-26.884512 175.408944 72.54967 240.231673 258.381381 259.081968 118.493424 12.0165 274.03192-91.309832 251.096916-237.806249z" opacity=".05"/><path d="m560.236026 403.898615c-6.866571 43.653531-48.574028 39.060795-112.659297 28.986273-64.093463-10.074522-125.560749-31.042966-117.456884-82.55864 11.905881-75.74533 71.545905-111.897255 135.627077-101.822733 64.101657 10.078619 106.399081 79.653868 94.489104 155.3951z" fill="#e88686"/><path d="m509.416842 445.794534c-17.805561 0-39.85971-3.23663-62.790617-6.837893-38.933788-6.120918-67.694726-14.786072-87.92571-26.491199-27.109847-15.687412-38.765811-36.913967-34.648326-63.093795 10.3777-66.010859 57.792277-108.668819 120.800035-108.66882 7.198428 0 14.552543.581774 21.853396 1.728934 67.338287 10.586647 112.016068 83.447689 99.602159 162.421455-5.768576 36.700923-35.234197 40.941318-56.890937 40.941318zm-64.564618-192.800708c-56.620535 0-99.274399 38.581446-108.656528 98.287023-3.298085 20.947959 6.079948 37.479353 28.662609 50.548781 18.895362 10.930795 46.267417 19.108406 83.677122 24.987601 22.431073 3.527517 43.964903 6.6904 60.881415 6.690401 28.74455 0 41.29366-8.566826 44.751527-30.559521 11.36098-72.275171-28.732259-138.835028-89.371951-148.368746a128.420455 128.420455 0 0 0 -19.944194-1.585539z" fill="#6e6e96"/><path d="m338.727642 377.989189 35.631606-27.24095c8.771676-6.702691 15.830807-3.158787 15.695605 7.87853l-.508028 40.777438c-.143395 11.037317-8.890489 17.436831-19.448457 14.220685 0-.008194-42.067993-12.831803-31.370726-35.635703z" fill="#fff"/><path d="m375.444953 416.500986c-1.937881 0-3.937217-.311372-5.944747-.921825-2.740893-.856273-26.675565-8.69793-33.021817-23.111175-2.187798-4.969661-2.056694-10.135977.393312-15.355555a2.036209 2.036209 0 0 1 .610453-.757945l35.631606-27.24095c5.932456-4.531282 11.959142-4.953273 15.560404-1.302846 2.302514 2.331193 3.486547 6.075851 3.425092 10.836564l-.508028 40.777438c-.127007 10.054037-6.768243 17.076295-16.146275 17.076294zm-4.744326-4.838556c1.618315.49164 3.212048.741557 4.744326.741557 7.108294 0 11.950948-5.235966 12.053373-13.028459l.508028-40.777438c.045067-3.584875-.753848-6.391319-2.245156-7.903112-2.179604-2.200089-5.998008-1.503599-10.156462 1.679769l-35.226004 26.929579c-1.753516 3.990478-1.798583 7.763814-.147492 11.516666 5.711218 12.975198 29.449234 20.521871 30.461193 20.837341z" fill="#6e6e96"/><path d="m375.444953 420.597986c-2.343484 0-4.744326-.36873-7.136974-1.097996l-.065552-.020485c-4.75252-1.483114-28.588864-9.632046-35.508696-25.356331-2.646662-6.014396-2.49917-12.495849.430185-18.743773.417894-.893146 1.044735-1.671576 1.831359-2.269738l35.631606-27.240951c7.694165-5.887389 15.888165-6.067657 20.964347-.930019 2.150925 2.179604 4.699259 6.338058 4.609125 13.761822l-.508028 40.777438c-.159783 12.237738-8.673348 21.120033-20.247372 21.120033zm-3.531614-12.848191c6.501938 1.970657 11.40195-1.59783 11.492084-8.427528l.508028-40.773341c.045067-3.588972-.925922-4.912303-1.118481-5.022922-1.093899-.012291-2.646662.536707-4.699259 2.105858l-34.32876 26.24538c-.909534 2.556528-.835788 4.904109.217141 7.296756 3.6873 8.374267 18.719191 15.695606 27.929247 18.575797z" fill="#6e6e96"/><path d="m490.800075 437.629214 15.449786-56.71067c2.900676-10.656296 10.811982-12.225447 17.576129-3.502935l24.295208 31.329757c6.760049 8.726609 4.654192 20.67346-4.691065 26.548558 0 0-23.660173 14.892594-52.630058 2.33529z" fill="#fff"/><path d="m514.693777 444.712926c-8.431625 0-16.744438-1.749419-24.709005-5.20319a2.052597 2.052597 0 0 1 -1.163548-2.417229l15.449786-56.71067c1.84365-6.768243 5.703024-10.652199 10.58255-10.652199 3.662718 0 7.325435 2.220574 10.586647 6.428193l24.295208 31.333853c3.629942 4.682871 5.08028 10.353118 4.088806 15.957814-.987377 5.604696-4.297753 10.426864-9.304286 13.581554-1.315137.807109-13.044847 7.681874-29.826158 7.681874zm-21.443696-8.280036a57.489099 57.489099 0 0 0 21.443696 4.183036c15.929135 0 27.18769-6.768243 27.654748-7.055033l.008194-.004097c4.010963-2.527849 6.657624-6.370834 7.440151-10.816079.786624-4.453439-.385118-8.976526-3.298084-12.737572l-24.291111-31.329757c-2.425424-3.121914-5.035213-4.842654-7.350018-4.842653-2.892482 0-5.309712 2.781863-6.633042 7.63271z" fill="#6e6e96"/><path d="m514.693777 448.809926c-8.992914 0-17.854725-1.864135-26.339611-5.539144a6.149597 6.149597 0 0 1 -3.486546-7.255786l15.449785-56.71067c2.331193-8.558632 7.767911-13.671688 14.536155-13.671688 3.470159 0 8.685639 1.388883 13.823277 8.017829l24.295208 31.333853c4.351014 5.61289 6.079948 12.422103 4.887721 19.182153-1.196324 6.755952-5.16222 12.557304-11.164324 16.334737a2.958034 2.958034 0 0 1 -.094231.057358c-1.458532.893146-14.073194 8.251357-31.907434 8.251358zm-16.498617-14.941758c5.391652 1.757613 10.922601 2.646662 16.498617 2.646662 14.634483 0 24.868788-6.059463 25.503823-6.444581 3.007198-1.905105 4.986049-4.764811 5.567823-8.046507.585871-3.302182-.303178-6.678109-2.49917-9.513233l-24.295208-31.329757c-1.999336-2.577013-3.56439-3.257115-4.109291-3.257115-.364633 0-1.733031 1.134869-2.679438 4.609125z" fill="#6e6e96"/><path d="m465.755116 248.507612c-64.089366-10.074522-123.725293 26.073306-135.627077 101.822733-2.032112 12.897355.303178 23.881411 5.944747 33.259443 14.273947-47.951284 53.457652-82.390663 99.581674-82.390663 58.19788 0 105.370734 54.813759 105.370734 122.430641 0 3.461965-.147492 6.878862-.397409 10.271178 10.476028-5.281033 17.199205-14.642677 19.616435-29.985941 11.901784-75.757621-30.395641-145.332869-94.489104-155.407391z" opacity=".05"/><g fill="#6e6e96"><path d="m540.623688 435.945347a2.060791 2.060791 0 0 1 -2.044403-2.200089c.262208-3.593069.393312-6.907541.393312-10.119589 0-66.379589-46.349357-120.382141-103.322234-120.382142-43.977194 0-83.205966 32.521983-97.619211 80.928035a2.0485 2.0485 0 0 1 -3.715979.475252c-6.137306-10.201529-8.226775-21.853396-6.215149-34.636035 10.045843-63.913195 55.870784-105.206854 116.756297-105.206855 6.985384 0 14.122358.565386 21.218361 1.67977 65.101325 10.234305 108.250925 80.997683 96.193455 157.742681-2.425424 15.388331-9.201861 25.692285-20.718527 31.497734a2.052597 2.052597 0 0 1 -.925922.221238zm-104.973325-136.798819c59.230324 0 107.419234 55.842105 107.419234 124.479141 0 2.146828-.057358 4.338723-.167977 6.616654 8.423431-5.424428 13.323443-13.991254 15.314585-26.650983 11.709225-74.51623-29.912195-143.177847-92.780655-153.05981a133.017288 133.017288 0 0 0 -20.579229-1.630606c-58.755072 0-102.994475 39.937553-112.704364 101.74489-1.589636 10.070425-.430185 19.36242 3.44148 27.683426 16.015172-47.566166 55.690516-79.182713 100.056926-79.182712z" opacity=".05"/><path d="m933.108062 303.677809-.729266-36.446909c-19.079727 56.247708-27.748979-17.457316-47.828374 2.617983-20.063007 20.071201-16.568267-35.299749-42.252357-9.611561-25.692285 25.688188-51.560741 11.242167-51.560741 11.242167l-25.204742 52.027799s8.497177 154.133225-164.642029 181.841233c-301.05573 48.172522-342.759089-127.265101-342.759089-127.265101l-23.074302 23.074302s-24.872885 144.333201 274.847223 176.445485c299.716011 32.112283 263.838585-243.521563 302.399545-243.521563 66.899908 0 25.421883 69.579345 25.421883 69.579345s-81.620427 123.094355-73.590308 206.054502c8.026022 82.960146-259.581802 136.479253-436.203458 64.228663-176.621656-72.258783-108.304186-217.825181-108.304186-217.825181s-134.156254 246.10677 186.438067 289.502191 420.548822 30.79305 418.377412-76.945751 20.271954-190.20321 39.527853-237.904577c19.251801-47.709561 49.319682-107.279936 49.319682-107.279936" opacity=".15"/><path d="m109.21372 202.461433s10.988153 37.622748 38.081612 10.521095c27.089362-27.093459 27.089362 18.018605 49.651539-4.535379 22.566274-22.55808 51.646778-20.034328 37.106526 21.353562-14.544349 41.391988-25.766031 47.254794-53.039758 47.254795-27.277824 0-89.72839-6.841989-71.799919-74.594073z" opacity=".15"/><path d="m246.459112 705.91714s40.470163 132.22247 160.413925 160.413925l-.512125-35.824165c.004097 0-139.011199-51.126459-159.9018-124.58976z" opacity=".1"/><path d="m605.581618 944.669795s-37.655524 22.992362 0 30.325992c37.659621 7.333629 260.065248 23.492196 160.467186-47.127787 0 0 68.096231 2.536043 68.096231 58.955825 0 0-349.650243 53.301966-228.563417-42.15403z" opacity=".1"/><path d="m264.383486 950.028671s-37.655524 22.988265 0 30.321895c37.659621 7.333629 260.065248 23.496293 160.471283-47.127788 0 0 68.092134 2.54014 68.092134 58.955826-.004097 0-349.650243 53.301966-228.563417-42.149933z" opacity=".1"/></g></svg>