<svg height="500pt" preserveAspectRatio="xMidYMid meet" viewBox="0 0 500 500" width="500pt"
     xmlns="http://www.w3.org/2000/svg">
    <g fill="var(--ifm-color-logo-svg)" transform="matrix(.1 0 0 -.1 0 500)">
        <path d="m2094 4726c-64-15-149-48-199-78l-30-18 33-6c43-9 40-18-9-33-113-34-282-130-387-219-55-46-56-61-4-62 19 0 14-7-30-43-73-59-142-147-189-241-41-82-40-95 4-96 16 0 16-3-3-40l-21-41-27 21c-34 28-98 112-128 172-56 110-94 271-110 463l-6 80-60-119c-74-148-134-323-153-452-18-121-18-157 0-259 30-168 146-332 294-415l62-35-6-55c-3-30-8-129-11-220l-6-165 46 50c25 28 43 42 40 32-10-28 15-258 41-392 29-146 85-324 133-425l35-75 27 60 26 59 35-99c45-133 154-352 220-445l53-75 10 49 11 49 60-69c33-38 91-101 129-141l69-72-12-76c-26-174-9-290 59-404 53-88 86-172 120-304 16-60 31-111 33-114 8-8 69 107 93 175 13 37 25 60 28 52 28-79 34-230 12-304-8-26-26-62-40-81-14-18-26-36-26-40 0-8 49 5 107 31 95 41 176 140 198 242l7 32 56-44c56-44 117-76 146-76 11 0 13 31 12 178-1 196-4 183 80 322 54 90 68 156 61 295l-6 121 91 99c49 55 104 117 121 138 33 40 47 36 47-15 0-16 4-28 10-28 18 0 112 145 171 265 32 66 76 170 98 230l39 110 20-45c10-25 21-52 24-60 7-21 59 85 101 207 63 180 116 464 117 627v59l41-44 40-44-6 185c-3 102-8 199-11 215-4 28-1 32 58 65 147 83 263 247 293 415 18 102 18 138 0 256-19 131-72 288-148 444l-64 130-7-70c-20-218-45-332-100-449-35-76-96-163-137-194l-25-20-22 39-23 39h25c36 0 39 12 16 66-35 80-107 179-180 247l-70 65 32 6 32 6-35 36c-70 73-239 173-379 225-51 18-69 29-57 33 9 3 25 9 35 12 16 5 16 6-2 20-38 28-179 75-257 87-91 13-197 1-297-32l-61-21-76 25c-95 32-241 41-331 21zm281-111c70-18 131-57 157-100 23-39 23-66-2-97l-20-26 42-6c23-4 63-16 88-28l45-21-38-11-38-12 34-12c93-33 233-146 269-216l20-39-22-75c-56-188 27-324 257-417l54-23-35-22c-52-31-92-96-137-218-78-213-91-241-120-281-45-63-97-84-188-79l-75 5 35-30c149-130 157-143 140-222-6-27-15-138-21-245-13-251-21-290-65-329-95-83-420-115-542-52-89 45-153 20-188-73-17-43-17-56-7-118 29-165 148-356 224-358 9 0 32-15 51-32 19-18 64-53 98-78 83-59 135-62 201-12 23 18 55 39 71 47l27 16v-68c0-63-4-75-45-147-87-152-123-288-103-380 6-22 12-76 15-118 6-90-19-190-62-247l-25-35v81c0 94-32 228-81 343-29 69-31 80-25 147 11 114 31 169 83 220l45 46-38-7c-68-12-139-53-170-97-35-51-41-117-25-267 7-68 8-125 2-157-7-40-9-43-10-18-2 47-28 120-67 184-19 31-41 76-50 100-21 60-19 187 4 274l19 71-54 53c-113 113-234 296-282 428l-28 74-34-45c-19-25-39-46-45-46-34-1-172 404-206 605-3 16-13 7-51-43-27-34-50-62-52-62s-13 33-25 72c-59 196-87 461-71 670 6 72 13 133 15 135s38-5 79-15c42-11 78-18 80-15 3 2-13 45-34 95-22 50-36 94-32 98s40 15 78 25c39 10 73 20 77 24 3 3-18 39-48 80l-55 75 76 76c41 41 75 79 75 83s-21 7-47 7c-25 0-75 5-110 11-61 11-63 12-57 38 27 118 50 175 94 225l32 36h-36c-35 0-36 1-25 22 25 47 224 234 281 263 60 31 65 45 17 45-120 0 175 136 390 180l84 17-47 13c-25 7-46 17-46 21 0 15 162 10 225-6zm-1373-549c36-114 104-225 172-281 56-46 142-84 205-92 28-3 51-9 51-13 0-3-20-21-45-40-50-37-52-28 20-110l39-45-49-12c-28-6-60-12-72-12-34-2-36-17-9-78 15-31 24-58 22-60-8-8-168 77-232 123-241 171-303 425-187 769l27 80 13-65c8-36 28-110 45-164zm3104 76c34-115 43-280 21-369-34-133-112-243-231-327-64-46-224-131-232-123-2 2 7 29 22 60 14 31 23 61 20 65-3 5-37 14-76 21-78 14-78 11-13 87l43 51-45 33c-25 19-45 37-45 40 0 4 23 10 51 13 63 8 149 46 205 92 106 87 198 293 225 504 2 13 30-63 55-147zm-626-812c31-9 16-16-52-24-108-13-191-81-283-236-53-89-119-170-137-170-4 0 7 21 26 48 18 26 57 93 85 149 74 144 133 207 221 234 32 9 108 9 140-1zm-124-331c26-71 13-149-34-202-24-28-105-47-147-36-39 11-40 13-24 57 10 30 11 30 45 16 88-37 162 65 102 141l-22 28 24 19c30 24 41 20 56-23zm-87-76c-14-16-31-17-47-1-9 9-8 16 5 30 15 17 17 17 35 2 14-13 15-20 7-31zm-984-977c41-9 118-16 185-16 104-1 112-2 85-14-48-21-59-41-57-105 1-51-2-61-26-83-29-28-90-51-162-63-25-4-65-18-90-32-42-23-45-23-58-6-39 53-68 252-43 291 10 17 58-37 66-74 3-13 7-34 10-47 9-44 69-57 165-36 56 12 73 32 68 82l-3 32-75 6c-98 8-190 48-190 82 0 10 17 8 125-17zm546-65c-12-22-21-54-21-70 0-24-7-34-31-47-27-13-43-14-101-6-87 13-100 23-96 76l3 41 75 5c86 7 165 39 177 73 7 21 8 21 11-5 2-14-6-45-17-67zm-421-51c0-16-3-31-8-34-4-2-7 13-7 34s3 36 7 34c5-3 8-18 8-34z"/>
        <path d="m2203 4435c-34-7-90-26-124-41-51-23-59-30-45-39 13-10 7-16-37-36-110-51-347-228-347-260 0-5 14-9 30-9 35 0 36-3 10-40-25-35-59-110-60-130 0-12 14-15 66-16 57 0 70-4 85-23 33-40 19-123-25-153-8-5-8-8 0-8 23 0 135 81 154 112 26 43 26 102 0 128-11 11-38 23-60 26-22 4-40 10-40 15 0 4 20 33 45 63l44 55-30 3-31 3 42 47c53 61 172 139 274 181 77 31 78 32 45 38-22 4-29 8-19 12 58 25 88 30 195 36l120 6-50 18c-69 24-168 29-242 12z"/>
        <path d="m1725 3530c8-16 15-40 15-53 0-36-40-88-86-112l-41-22 45-12c92-24 159-96 239-256 25-49 59-110 75-133 25-36 27-42 10-33-28 15-70 71-128 170-64 110-136 183-206 209-64 24-151 35-141 18 4-6 21-33 39-61 48-77 49-86 9-125-19-19-35-38-35-42s15-8 34-8c60 0 201-65 168-77-16-6-42-56-42-82 0-12 13-35 28-52 22-24 36-31 65-31 21 0 44 5 52 12 12 10 16 7 25-15 5-14 10-32 10-40 0-24-70-36-123-19-22 7-22 6-3-15 15-17 31-21 75-21 81 0 95-13 132-128 35-111 68-253 69-297 1-54 18-7 31 84 14 103 7 300-14 356l-14 40h66c80 1 104 13 196 95 64 59 66 62 34 54-56-15-131-10-173 10-58 29-92 84-136 227-62 198-118 290-214 355-65 43-82 45-61 4zm55-576c11-12 10-18-3-32-16-15-18-15-34 0-13 14-14 20-3 32 7 9 16 16 20 16s13-7 20-16z"/>
        <path d="m2758 3405c-79-69-87-73-93-54-6 18-15 12-77-55-38-42-78-76-88-76s-48 33-86 75c-62 69-69 74-76 55-7-20-14-16-88 49-44 39-83 71-86 71-7 0 71-142 108-197 32-48 36-50 52-28 10 13 17 8 48-32 20-26 57-68 82-92l45-44 31 26c17 15 56 56 87 92 47 55 58 63 66 50 12-22 28-7 71 64 50 84 98 171 94 171-2 0-42-34-90-75z"/>
    </g>
</svg>