<svg height="32" viewBox="0 0 1049 1024" width="32" xmlns="http://www.w3.org/2000/svg"><g fill="#191717"><path d="m524.979332 0c-290.303141 0-524.979332 234.676191-524.979332 524.979332 0 232.068678 150.366597 428.501342 358.967656 498.035028 26.075132 5.215026 35.636014-11.299224 35.636014-25.205961 0-12.168395-.869171-53.888607-.869171-97.347161-146.020741 31.290159-176.441729-62.580318-176.441729-62.580318-23.467619-60.841976-58.234462-76.487055-58.234463-76.487055-47.804409-32.15933 3.476684-32.15933 3.476685-32.15933 53.019436 3.476684 80.83291 53.888607 80.83291 53.888607 46.935238 79.963739 122.553122 57.365291 152.97411 43.458554 4.345855-33.897672 18.252593-57.365291 33.028501-70.402857-116.468925-12.168395-239.022047-57.365291-239.022047-259.012982 0-57.365291 20.860106-104.300529 53.888607-140.805715-5.215026-13.037566-23.467619-66.926173 5.215027-139.067372 0 0 44.327725-13.906737 144.282399 53.888607 41.720212-11.299224 86.917108-17.383422 131.244833-17.383422s89.524621 6.084198 131.244833 17.383422c99.954674-67.795345 144.282399-53.888607 144.282399-53.888607 28.682646 72.1412 10.430053 126.029806 5.215026 139.067372 33.897672 36.505185 53.888607 83.440424 53.888607 140.805715 0 201.64769-122.553122 245.975415-239.891218 259.012982 19.121764 16.514251 35.636014 47.804409 35.636015 97.347161 0 70.402857-.869171 126.898978-.869172 144.282399 0 13.906737 9.560882 30.420988 35.636015 25.205961 208.601059-69.533686 358.967656-265.96635 358.967655-498.035028.869171-290.303141-234.676191-524.979332-524.11016-524.979332z"/><path d="m199.040177 753.571326c-.869171 2.607513-5.215026 3.476684-8.691711 1.738342s-6.084198-5.215026-4.345855-7.82254c.869171-2.607513 5.215026-3.476684 8.691711-1.738342s5.215026 5.215026 4.345855 7.82254zm20.860106 23.467619c-2.607513 2.607513-7.82254.869171-10.430053-2.607514-3.476684-3.476684-4.345855-8.691711-1.738342-11.299224s6.953369-.869171 10.430053 2.607514c3.476684 4.345855 4.345855 9.560882 1.738342 11.299224zm20.860106 30.420987c-3.476684 2.607513-8.691711 0-11.299224-4.345855-3.476684-4.345855-3.476684-10.430053 0-12.168395 3.476684-2.607513 8.691711 0 11.299224 4.345855 3.476684 4.345855 3.476684 9.560882 0 12.168395zm28.682645 29.551817c-2.607513 3.476684-8.691711 2.607513-13.906737-1.738342-4.345855-4.345855-6.084198-10.430053-2.607513-13.037566 2.607513-3.476684 8.691711-2.607513 13.906737 1.738342 4.345855 3.476684 5.215026 9.560882 2.607513 13.037566zm39.112699 16.514251c-.869171 4.345855-6.953369 6.084198-13.037566 4.345855-6.084198-1.738342-9.560882-6.953369-8.691711-10.430053.869171-4.345855 6.953369-6.084198 13.037566-4.345855 6.084198 1.738342 9.560882 6.084198 8.691711 10.430053zm42.589383 3.476684c0 4.345855-5.215026 7.82254-11.299224 7.82254s-11.299224-3.476684-11.299224-7.82254 5.215026-7.82254 11.299224-7.82254 11.299224 3.476684 11.299224 7.82254zm39.98187-6.953369c.869171 4.345855-3.476684 8.691711-9.560882 9.560882s-11.299224-1.738342-12.168395-6.084197 3.476684-8.691711 9.560881-9.560882c6.084198-.869171 11.299224 1.738342 12.168396 6.084197zm0 0"/></g></svg>